ISO-10303-21;
HEADER;
FILE_DESCRIPTION (( 'STEP AP214' ),
    '1' );
FILE_NAME ('base shot.STEP',
    '2024-02-07T08:02:45',
    ( '' ),
    ( '' ),
    'SwSTEP 2.0',
    'SolidWorks 2022',
    '' );
FILE_SCHEMA (( 'AUTOMOTIVE_DESIGN' ));
ENDSEC;

DATA;
#1 = EDGE_CURVE ( 'NONE', #650, #730, #641, .T. ) ;
#2 = LINE ( 'NONE', #177, #598 ) ;
#3 = DIRECTION ( 'NONE',  ( 0.000000000000000000, 0.000000000000000000, 1.000000000000000000 ) ) ;
#4 = CARTESIAN_POINT ( 'NONE',  ( -249.9999999999999432, 0.000000000000000000, 200.0000000000000000 ) ) ;
#5 = PRODUCT_DEFINITION_FORMATION_WITH_SPECIFIED_SOURCE ( 'ANY', '', #19, .NOT_KNOWN. ) ;
#6 = LINE ( 'NONE', #312, #58 ) ;
#7 = EDGE_CURVE ( 'NONE', #445, #730, #110, .T. ) ;
#8 = ORIENTED_EDGE ( 'NONE', *, *, #452, .F. ) ;
#9 = CARTESIAN_POINT ( 'NONE',  ( 0.000000000000000000, 0.000000000000000000, 0.000000000000000000 ) ) ;
#10 = AXIS2_PLACEMENT_3D ( 'NONE', #244, #182, #664 ) ;
#11 = DIRECTION ( 'NONE',  ( -0.000000000000000000, 1.000000000000000000, 0.000000000000000000 ) ) ;
#12 = FACE_OUTER_BOUND ( 'NONE', #190, .T. ) ;
#13 = ORIENTED_EDGE ( 'NONE', *, *, #156, .T. ) ;
#14 = FACE_BOUND ( 'NONE', #685, .T. ) ;
#15 = EDGE_CURVE ( 'NONE', #66, #491, #232, .T. ) ;
#16 = CARTESIAN_POINT ( 'NONE',  ( -120.9474997033186412, 300.0000000000000000, 106.6172272266210541 ) ) ;
#17 = VERTEX_POINT ( 'NONE', #580 ) ;
#18 = LINE ( 'NONE', #304, #695 ) ;
#19 = PRODUCT ( 'base shot', 'base shot', '', ( #279 ) ) ;
#20 = EDGE_CURVE ( 'NONE', #559, #104, #222, .T. ) ;
#21 = LINE ( 'NONE', #296, #720 ) ;
#22 = AXIS2_PLACEMENT_3D ( 'NONE', #192, #440, #427 ) ;
#23 = ORIENTED_EDGE ( 'NONE', *, *, #108, .T. ) ;
#24 = CARTESIAN_POINT ( 'NONE',  ( -50.00000000000001421, 279.9999999999999432, -174.9999999999999432 ) ) ;
#25 = DIRECTION ( 'NONE',  ( -1.000000000000000000, 0.000000000000000000, -0.000000000000000000 ) ) ;
#26 = ORIENTED_EDGE ( 'NONE', *, *, #705, .T. ) ;
#27 = DIRECTION ( 'NONE',  ( -0.000000000000000000, 1.000000000000000000, -0.000000000000000000 ) ) ;
#28 = ADVANCED_FACE ( 'NONE', ( #519 ), #52, .F. ) ;
#29 = DIRECTION ( 'NONE',  ( -2.135044278125300850E-16, 1.000000000000000000, -0.000000000000000000 ) ) ;
#30 = VERTEX_POINT ( 'NONE', #282 ) ;
#31 = EDGE_CURVE ( 'NONE', #333, #221, #173, .T. ) ;
#32 = CARTESIAN_POINT ( 'NONE',  ( -239.7389447749160922, 290.6320830781248787, -190.0000000000000000 ) ) ;
#33 = ADVANCED_BREP_SHAPE_REPRESENTATION ( 'base shot', ( #240, #436 ), #670 ) ;
#34 = ORIENTED_EDGE ( 'NONE', *, *, #555, .F. ) ;
#35 = AXIS2_PLACEMENT_3D ( 'NONE', #32, #91, #374 ) ;
#36 = CARTESIAN_POINT ( 'NONE',  ( 249.9999999999999716, 279.9999999999999432, -175.0000000000000000 ) ) ;
#37 = VECTOR ( 'NONE', #299, 1000.000000000000000 ) ;
#38 = LINE ( 'NONE', #205, #262 ) ;
#39 = ORIENTED_EDGE ( 'NONE', *, *, #373, .F. ) ;
#40 = CARTESIAN_POINT ( 'NONE',  ( 107.7636490247577683, 300.0000000000000000, 135.2777721800140114 ) ) ;
#41 = ORIENTED_EDGE ( 'NONE', *, *, #502, .F. ) ;
#42 = CARTESIAN_POINT ( 'NONE',  ( 107.7636490247577683, 90.00000000000008527, 120.9474997033175470 ) ) ;
#43 = ORIENTED_EDGE ( 'NONE', *, *, #505, .F. ) ;
#44 = DIRECTION ( 'NONE',  ( 7.930164461608261179E-17, 0.000000000000000000, 1.000000000000000000 ) ) ;
#45 = VECTOR ( 'NONE', #29, 1000.000000000000000 ) ;
#46 = ORIENTED_EDGE ( 'NONE', *, *, #257, .F. ) ;
#47 = EDGE_CURVE ( 'NONE', #17, #638, #106, .T. ) ;
#48 = FACE_OUTER_BOUND ( 'NONE', #500, .T. ) ;
#49 = CARTESIAN_POINT ( 'NONE',  ( 250.0000000000000000, 300.0000000000000000, -200.0000000000000000 ) ) ;
#50 = ORIENTED_EDGE ( 'NONE', *, *, #371, .T. ) ;
#51 = CARTESIAN_POINT ( 'NONE',  ( 240.2610552250839646, 30.63208307812487163, -190.0000000000000000 ) ) ;
#52 = PLANE ( 'NONE',  #313 ) ;
#53 = ORIENTED_EDGE ( 'NONE', *, *, #493, .F. ) ;
#54 =( NAMED_UNIT ( * ) PLANE_ANGLE_UNIT ( ) SI_UNIT ( $, .RADIAN. ) );
#55 = LINE ( 'NONE', #125, #86 ) ;
#56 = VECTOR ( 'NONE', #247, 1000.000000000000000 ) ;
#57 = VECTOR ( 'NONE', #264, 1000.000000000000000 ) ;
#58 = VECTOR ( 'NONE', #237, 1000.000000000000000 ) ;
#59 = VECTOR ( 'NONE', #583, 1000.000000000000000 ) ;
#60 = ORIENTED_EDGE ( 'NONE', *, *, #572, .F. ) ;
#61 = LINE ( 'NONE', #174, #460 ) ;
#62 = ORIENTED_EDGE ( 'NONE', *, *, #513, .T. ) ;
#63 = APPLICATION_PROTOCOL_DEFINITION ( 'draft international standard', 'automotive_design', 1998, #687 ) ;
#64 = CARTESIAN_POINT ( 'NONE',  ( 107.7636490247577683, 290.6320830781248787, 120.9474997033175470 ) ) ;
#65 = CARTESIAN_POINT ( 'NONE',  ( 0.000000000000000000, 290.6320830781248787, 0.000000000000000000 ) ) ;
#66 = VERTEX_POINT ( 'NONE', #171 ) ;
#67 = CARTESIAN_POINT ( 'NONE',  ( -49.99999999999998579, 279.9999999999999432, 175.0000000000000568 ) ) ;
#68 = AXIS2_PLACEMENT_3D ( 'NONE', #554, #27, #601 ) ;
#69 = CARTESIAN_POINT ( 'NONE',  ( 240.2610552250840215, 30.63208307812487163, -174.9999999999999716 ) ) ;
#70 = VECTOR ( 'NONE', #701, 1000.000000000000000 ) ;
#71 = ORIENTED_EDGE ( 'NONE', *, *, #595, .T. ) ;
#72 = EDGE_CURVE ( 'NONE', #522, #253, #168, .T. ) ;
#73 = FACE_OUTER_BOUND ( 'NONE', #418, .T. ) ;
#74 = DIRECTION ( 'NONE',  ( 0.000000000000000000, 0.000000000000000000, 1.000000000000000000 ) ) ;
#75 = ORIENTED_EDGE ( 'NONE', *, *, #373, .T. ) ;
#76 = ADVANCED_FACE ( 'NONE', ( #574 ), #750, .F. ) ;
#77 = LINE ( 'NONE', #307, #331 ) ;
#78 = DIRECTION ( 'NONE',  ( 2.135044278125300850E-16, -1.000000000000000000, 0.000000000000000000 ) ) ;
#79 = EDGE_LOOP ( 'NONE', ( #198, #606, #506, #545 ) ) ;
#80 = LINE ( 'NONE', #316, #56 ) ;
#81 = FACE_BOUND ( 'NONE', #309, .T. ) ;
#82 = VECTOR ( 'NONE', #44, 1000.000000000000000 ) ;
#83 = ORIENTED_EDGE ( 'NONE', *, *, #671, .F. ) ;
#84 = VECTOR ( 'NONE', #270, 1000.000000000000000 ) ;
#85 = EDGE_CURVE ( 'NONE', #463, #176, #656, .T. ) ;
#86 = VECTOR ( 'NONE', #409, 1000.000000000000000 ) ;
#87 = FACE_OUTER_BOUND ( 'NONE', #746, .T. ) ;
#88 = CARTESIAN_POINT ( 'NONE',  ( 0.000000000000000000, 90.00000000000008527, 0.000000000000000000 ) ) ;
#89 = PRODUCT_DEFINITION ( 'UNKNOWN', '', #5, #347 ) ;
#90 = EDGE_LOOP ( 'NONE', ( #356, #133, #627, #360 ) ) ;
#91 = DIRECTION ( 'NONE',  ( -1.000000000000000000, -2.135044278125300850E-16, 0.000000000000000000 ) ) ;
#92 = DIRECTION ( 'NONE',  ( -1.000000000000000000, 0.000000000000000000, 1.387778780781445676E-16 ) ) ;
#93 = ORIENTED_EDGE ( 'NONE', *, *, #542, .F. ) ;
#94 = CARTESIAN_POINT ( 'NONE',  ( -50.00000000000001421, 30.63208307812487163, -190.0000000000000284 ) ) ;
#95 = CARTESIAN_POINT ( 'NONE',  ( -49.99999999999998579, 29.99999999999996803, 175.0000000000000568 ) ) ;
#96 = ORIENTED_EDGE ( 'NONE', *, *, #425, .T. ) ;
#97 = CARTESIAN_POINT ( 'NONE',  ( -120.9474997033186412, 290.6320830781248787, 120.9474997033175470 ) ) ;
#98 = MECHANICAL_DESIGN_GEOMETRIC_PRESENTATION_REPRESENTATION (  '', ( #474 ), #340 ) ;
#99 = VECTOR ( 'NONE', #164, 1000.000000000000000 ) ;
#100 = ADVANCED_FACE ( 'NONE', ( #130 ), #534, .F. ) ;
#101 = ORIENTED_EDGE ( 'NONE', *, *, #126, .T. ) ;
#102 = LINE ( 'NONE', #576, #248 ) ;
#103 = EDGE_CURVE ( 'NONE', #30, #463, #21, .T. ) ;
#104 = VERTEX_POINT ( 'NONE', #661 ) ;
#105 = FACE_OUTER_BOUND ( 'NONE', #599, .T. ) ;
#106 = LINE ( 'NONE', #462, #537 ) ;
#107 = FACE_BOUND ( 'NONE', #665, .T. ) ;
#108 = EDGE_CURVE ( 'NONE', #221, #668, #6, .T. ) ;
#109 = DIRECTION ( 'NONE',  ( 1.000000000000000000, -0.000000000000000000, -1.387778780781445676E-16 ) ) ;
#110 = CIRCLE ( 'NONE', #658, 14.33027247669647863 ) ;
#111 = CIRCLE ( 'NONE', #10, 14.33027247669647863 ) ;
#112 = DIRECTION ( 'NONE',  ( 2.135044278125300850E-16, -1.000000000000000000, -1.110223024625156787E-16 ) ) ;
#113 = LINE ( 'NONE', #49, #236 ) ;
#114 = LINE ( 'NONE', #95, #366 ) ;
#115 = EDGE_LOOP ( 'NONE', ( #372, #60, #319, #727 ) ) ;
#116 = CARTESIAN_POINT ( 'NONE',  ( 250.0000000000000000, 29.99999999999996803, 175.0000000000000000 ) ) ;
#117 = EDGE_LOOP ( 'NONE', ( #450, #315, #216, #406 ) ) ;
#118 = CARTESIAN_POINT ( 'NONE',  ( -250.0000000000000568, 0.000000000000000000, -199.9999999999999716 ) ) ;
#119 = STYLED_ITEM ( 'NONE', ( #389 ), #240 ) ;
#120 = ORIENTED_EDGE ( 'NONE', *, *, #586, .F. ) ;
#121 = ORIENTED_EDGE ( 'NONE', *, *, #286, .T. ) ;
#122 = CARTESIAN_POINT ( 'NONE',  ( -49.99999999999998579, 29.99999999999996803, 175.0000000000000568 ) ) ;
#123 = DIRECTION ( 'NONE',  ( 0.000000000000000000, 0.000000000000000000, -1.000000000000000000 ) ) ;
#124 =( LENGTH_UNIT ( ) NAMED_UNIT ( * ) SI_UNIT ( .MILLI., .METRE. ) );
#125 = CARTESIAN_POINT ( 'NONE',  ( 250.0000000000000000, 0.000000000000000000, -200.0000000000000000 ) ) ;
#126 = EDGE_CURVE ( 'NONE', #662, #738, #159, .T. ) ;
#127 = DIRECTION ( 'NONE',  ( 0.000000000000000000, -0.000000000000000000, 1.000000000000000000 ) ) ;
#128 = VERTEX_POINT ( 'NONE', #69 ) ;
#129 = LINE ( 'NONE', #712, #550 ) ;
#130 = FACE_OUTER_BOUND ( 'NONE', #117, .T. ) ;
#131 = EDGE_CURVE ( 'NONE', #650, #278, #111, .T. ) ;
#132 = VECTOR ( 'NONE', #234, 1000.000000000000000 ) ;
#133 = ORIENTED_EDGE ( 'NONE', *, *, #126, .F. ) ;
#134 = CARTESIAN_POINT ( 'NONE',  ( -50.00000000000001421, 279.9999999999999432, -174.9999999999999432 ) ) ;
#135 = FACE_BOUND ( 'NONE', #161, .T. ) ;
#136 = EDGE_LOOP ( 'NONE', ( #548, #363 ) ) ;
#137 = PLANE ( 'NONE',  #35 ) ;
#138 = CARTESIAN_POINT ( 'NONE',  ( 250.0000000000000000, 300.0000000000000000, -200.0000000000000000 ) ) ;
#139 = EDGE_CURVE ( 'NONE', #128, #466, #476, .T. ) ;
#140 = ORIENTED_EDGE ( 'NONE', *, *, #502, .T. ) ;
#141 = DIRECTION ( 'NONE',  ( 0.000000000000000000, 1.000000000000000000, 0.000000000000000000 ) ) ;
#142 =( LENGTH_UNIT ( ) NAMED_UNIT ( * ) SI_UNIT ( .MILLI., .METRE. ) );
#143 = PRESENTATION_LAYER_ASSIGNMENT (  '', '', ( #474 ) ) ;
#144 = ORIENTED_EDGE ( 'NONE', *, *, #274, .F. ) ;
#145 = DIRECTION ( 'NONE',  ( -7.930164461608261179E-17, 0.000000000000000000, -1.000000000000000000 ) ) ;
#146 = ADVANCED_FACE ( 'NONE', ( #308 ), #710, .F. ) ;
#147 = LINE ( 'NONE', #255, #721 ) ;
#148 = ORIENTED_EDGE ( 'NONE', *, *, #280, .T. ) ;
#149 = CARTESIAN_POINT ( 'NONE',  ( 250.0000000000000568, 300.0000000000000000, 200.0000000000000000 ) ) ;
#150 = DIRECTION ( 'NONE',  ( -0.000000000000000000, -0.000000000000000000, 1.000000000000000000 ) ) ;
#151 = ADVANCED_FACE ( 'NONE', ( #370, #484, #135, #178 ), #653, .T. ) ;
#152 = VERTEX_POINT ( 'NONE', #138 ) ;
#153 = CARTESIAN_POINT ( 'NONE',  ( -250.0000000000000568, 300.0000000000000000, -199.9999999999999716 ) ) ;
#154 = SURFACE_STYLE_FILL_AREA ( #342 ) ;
#155 = ORIENTED_EDGE ( 'NONE', *, *, #298, .F. ) ;
#156 = EDGE_CURVE ( 'NONE', #183, #463, #723, .T. ) ;
#157 = VECTOR ( 'NONE', #320, 1000.000000000000000 ) ;
#158 = LINE ( 'NONE', #207, #682 ) ;
#159 = CIRCLE ( 'NONE', #585, 25.00000000000000000 ) ;
#160 = AXIS2_PLACEMENT_3D ( 'NONE', #185, #92, #635 ) ;
#161 = EDGE_LOOP ( 'NONE', ( #226, #212 ) ) ;
#162 = CARTESIAN_POINT ( 'NONE',  ( -120.9474997033186412, 90.00000000000008527, 120.9474997033175470 ) ) ;
#163 = EDGE_CURVE ( 'NONE', #730, #445, #448, .T. ) ;
#164 = DIRECTION ( 'NONE',  ( 1.000000000000000000, -0.000000000000000000, -1.387778780781445676E-16 ) ) ;
#165 = CARTESIAN_POINT ( 'NONE',  ( 0.000000000000000000, 290.6320830781248787, 25.00000000000000000 ) ) ;
#166 = DIRECTION ( 'NONE',  ( 0.000000000000000000, 1.000000000000000000, 0.000000000000000000 ) ) ;
#167 = SHAPE_DEFINITION_REPRESENTATION ( #246, #33 ) ;
#168 = CIRCLE ( 'NONE', #328, 14.33027247669647863 ) ;
#169 =( NAMED_UNIT ( * ) PLANE_ANGLE_UNIT ( ) SI_UNIT ( $, .RADIAN. ) );
#170 = VECTOR ( 'NONE', #227, 1000.000000000000000 ) ;
#171 = CARTESIAN_POINT ( 'NONE',  ( -50.00000000000001421, 29.99999999999997158, -174.9999999999999432 ) ) ;
#172 = LINE ( 'NONE', #118, #564 ) ;
#173 = LINE ( 'NONE', #225, #538 ) ;
#174 = CARTESIAN_POINT ( 'NONE',  ( -239.7389447749160922, 290.6320830781248787, -190.0000000000000000 ) ) ;
#175 = VERTEX_POINT ( 'NONE', #16 ) ;
#176 = VERTEX_POINT ( 'NONE', #609 ) ;
#177 = CARTESIAN_POINT ( 'NONE',  ( 240.2610552250839078, 290.6320830781248787, 200.0000000000000000 ) ) ;
#178 = FACE_OUTER_BOUND ( 'NONE', #516, .T. ) ;
#179 = ORIENTED_EDGE ( 'NONE', *, *, #235, .F. ) ;
#180 = CARTESIAN_POINT ( 'NONE',  ( 240.2610552250839078, 290.6320830781248787, -190.0000000000000000 ) ) ;
#181 = ADVANCED_FACE ( 'NONE', ( #81, #552 ), #359, .F. ) ;
#182 = DIRECTION ( 'NONE',  ( -0.000000000000000000, 1.000000000000000000, 0.000000000000000000 ) ) ;
#183 = VERTEX_POINT ( 'NONE', #302 ) ;
#184 = CARTESIAN_POINT ( 'NONE',  ( 240.2610552250839078, 279.9999999999999432, 175.0000000000000284 ) ) ;
#185 = CARTESIAN_POINT ( 'NONE',  ( 250.0000000000000000, 300.0000000000000000, -200.0000000000000000 ) ) ;
#186 = ORIENTED_EDGE ( 'NONE', *, *, #420, .T. ) ;
#187 = LINE ( 'NONE', #607, #263 ) ;
#188 = CARTESIAN_POINT ( 'NONE',  ( 0.000000000000000000, 0.000000000000000000, -190.0000000000000000 ) ) ;
#189 =( GEOMETRIC_REPRESENTATION_CONTEXT ( 3 ) GLOBAL_UNCERTAINTY_ASSIGNED_CONTEXT ( ( #731 ) ) GLOBAL_UNIT_ASSIGNED_CONTEXT ( ( #142, #169, #437 ) ) REPRESENTATION_CONTEXT ( 'NONE', 'WORKASPACE' ) );
#190 = EDGE_LOOP ( 'NONE', ( #256, #186, #439, #524 ) ) ;
#191 = CIRCLE ( 'NONE', #288, 14.33027247669647863 ) ;
#192 = CARTESIAN_POINT ( 'NONE',  ( -49.99999999999998579, 279.9999999999999432, 175.0000000000000568 ) ) ;
#193 = CARTESIAN_POINT ( 'NONE',  ( -239.7389447749160922, 290.6320830781248787, 200.0000000000000000 ) ) ;
#194 = ORIENTED_EDGE ( 'NONE', *, *, #381, .F. ) ;
#195 = ADVANCED_FACE ( 'NONE', ( #12 ), #470, .T. ) ;
#196 = DIRECTION ( 'NONE',  ( 1.000000000000000000, 0.000000000000000000, -7.930164461608261179E-17 ) ) ;
#197 = DIRECTION ( 'NONE',  ( -0.000000000000000000, -0.000000000000000000, 1.000000000000000000 ) ) ;
#198 = ORIENTED_EDGE ( 'NONE', *, *, #425, .F. ) ;
#199 = DIRECTION ( 'NONE',  ( -0.000000000000000000, -0.000000000000000000, 1.000000000000000000 ) ) ;
#200 = CARTESIAN_POINT ( 'NONE',  ( -250.0000000000000568, 300.0000000000000000, -199.9999999999999716 ) ) ;
#201 = ORIENTED_EDGE ( 'NONE', *, *, #493, .T. ) ;
#202 = VECTOR ( 'NONE', #424, 1000.000000000000000 ) ;
#203 = LINE ( 'NONE', #24, #157 ) ;
#204 = ADVANCED_FACE ( 'NONE', ( #421, #648 ), #480, .F. ) ;
#205 = CARTESIAN_POINT ( 'NONE',  ( -249.9999999999999432, 300.0000000000000000, 200.0000000000000000 ) ) ;
#206 = ORIENTED_EDGE ( 'NONE', *, *, #415, .T. ) ;
#207 = CARTESIAN_POINT ( 'NONE',  ( -239.7389447749160354, 30.63208307812487163, -190.0000000000000000 ) ) ;
#208 = ADVANCED_FACE ( 'NONE', ( #691 ), #612, .F. ) ;
#209 = FACE_OUTER_BOUND ( 'NONE', #329, .T. ) ;
#210 = VERTEX_POINT ( 'NONE', #266 ) ;
#211 = FACE_OUTER_BOUND ( 'NONE', #510, .T. ) ;
#212 = ORIENTED_EDGE ( 'NONE', *, *, #349, .F. ) ;
#213 = CARTESIAN_POINT ( 'NONE',  ( 250.0000000000000000, 279.9999999999999432, 175.0000000000000284 ) ) ;
#214 = VECTOR ( 'NONE', #150, 1000.000000000000000 ) ;
#215 = ADVANCED_FACE ( 'NONE', ( #209 ), #444, .F. ) ;
#216 = ORIENTED_EDGE ( 'NONE', *, *, #1, .T. ) ;
#217 = DIRECTION ( 'NONE',  ( -0.000000000000000000, 1.000000000000000000, 0.000000000000000000 ) ) ;
#218 = ORIENTED_EDGE ( 'NONE', *, *, #452, .T. ) ;
#219 = DIRECTION ( 'NONE',  ( 0.000000000000000000, 0.000000000000000000, 1.000000000000000000 ) ) ;
#220 = ORIENTED_EDGE ( 'NONE', *, *, #698, .F. ) ;
#221 = VERTEX_POINT ( 'NONE', #252 ) ;
#222 = CIRCLE ( 'NONE', #742, 25.00000000000000000 ) ;
#223 = CARTESIAN_POINT ( 'NONE',  ( 107.7636490247577683, 300.0000000000000000, 106.6172272266210541 ) ) ;
#224 = CIRCLE ( 'NONE', #330, 14.33027247669647863 ) ;
#225 = CARTESIAN_POINT ( 'NONE',  ( 240.2610552250839078, 290.6320830781248219, 175.0000000000000000 ) ) ;
#226 = ORIENTED_EDGE ( 'NONE', *, *, #20, .F. ) ;
#227 = DIRECTION ( 'NONE',  ( -0.000000000000000000, -0.000000000000000000, 1.000000000000000000 ) ) ;
#228 = EDGE_CURVE ( 'NONE', #714, #380, #749, .T. ) ;
#229 = DIRECTION ( 'NONE',  ( 0.000000000000000000, 1.000000000000000000, 0.000000000000000000 ) ) ;
#230 = APPLICATION_PROTOCOL_DEFINITION ( 'draft international standard', 'automotive_design', 1998, #293 ) ;
#231 = LINE ( 'NONE', #407, #659 ) ;
#232 = LINE ( 'NONE', #351, #99 ) ;
#233 = ORIENTED_EDGE ( 'NONE', *, *, #560, .F. ) ;
#234 = DIRECTION ( 'NONE',  ( -1.000000000000000000, -0.000000000000000000, 5.551115123125782702E-17 ) ) ;
#235 = EDGE_CURVE ( 'NONE', #376, #619, #38, .T. ) ;
#236 = VECTOR ( 'NONE', #277, 1000.000000000000000 ) ;
#237 = DIRECTION ( 'NONE',  ( -1.000000000000000000, 0.000000000000000000, 1.387778780781445676E-16 ) ) ;
#238 = EDGE_LOOP ( 'NONE', ( #8, #645, #553, #261 ) ) ;
#239 = CARTESIAN_POINT ( 'NONE',  ( -239.7389447749160354, 30.63208307812487163, -190.0000000000000000 ) ) ;
#240 = MANIFOLD_SOLID_BREP ( 'Cut-Extrude4', #488 ) ;
#241 = DIRECTION ( 'NONE',  ( 0.000000000000000000, 0.000000000000000000, 1.000000000000000000 ) ) ;
#242 = ORIENTED_EDGE ( 'NONE', *, *, #752, .F. ) ;
#243 = CYLINDRICAL_SURFACE ( 'NONE', #68, 14.33027247669647863 ) ;
#244 = CARTESIAN_POINT ( 'NONE',  ( 107.7636490247577683, 290.6320830781248787, 120.9474997033175470 ) ) ;
#245 = ORIENTED_EDGE ( 'NONE', *, *, #748, .F. ) ;
#246 = PRODUCT_DEFINITION_SHAPE ( 'NONE', 'NONE',  #89 ) ;
#247 = DIRECTION ( 'NONE',  ( -0.000000000000000000, -1.000000000000000000, -0.000000000000000000 ) ) ;
#248 = VECTOR ( 'NONE', #736, 1000.000000000000000 ) ;
#249 = DIRECTION ( 'NONE',  ( 0.000000000000000000, 1.000000000000000000, 0.000000000000000000 ) ) ;
#250 = ORIENTED_EDGE ( 'NONE', *, *, #31, .F. ) ;
#251 = PLANE ( 'NONE',  #22 ) ;
#252 = CARTESIAN_POINT ( 'NONE',  ( 240.2610552250839646, 30.63208307812487163, 175.0000000000000000 ) ) ;
#253 = VERTEX_POINT ( 'NONE', #403 ) ;
#254 = FACE_OUTER_BOUND ( 'NONE', #115, .T. ) ;
#255 = CARTESIAN_POINT ( 'NONE',  ( -239.7389447749160354, 30.63208307812487163, -174.9999999999999147 ) ) ;
#256 = ORIENTED_EDGE ( 'NONE', *, *, #228, .T. ) ;
#257 = EDGE_CURVE ( 'NONE', #472, #683, #114, .T. ) ;
#258 = DIRECTION ( 'NONE',  ( 2.775557561562891351E-16, 0.000000000000000000, 1.000000000000000000 ) ) ;
#259 = CARTESIAN_POINT ( 'NONE',  ( -49.99999999999998579, 279.9999999999999432, 175.0000000000000568 ) ) ;
#260 = VECTOR ( 'NONE', #674, 1000.000000000000000 ) ;
#261 = ORIENTED_EDGE ( 'NONE', *, *, #642, .F. ) ;
#262 = VECTOR ( 'NONE', #563, 1000.000000000000000 ) ;
#263 = VECTOR ( 'NONE', #715, 1000.000000000000000 ) ;
#264 = DIRECTION ( 'NONE',  ( -0.000000000000000000, 1.000000000000000000, -0.000000000000000000 ) ) ;
#265 = EDGE_CURVE ( 'NONE', #581, #128, #147, .T. ) ;
#266 = CARTESIAN_POINT ( 'NONE',  ( -120.9474997033186412, 300.0000000000000000, 135.2777721800140114 ) ) ;
#267 = VERTEX_POINT ( 'NONE', #200 ) ;
#268 = CARTESIAN_POINT ( 'NONE',  ( -250.0000000000000568, 0.000000000000000000, -199.9999999999999716 ) ) ;
#269 = ORIENTED_EDGE ( 'NONE', *, *, #420, .F. ) ;
#270 = DIRECTION ( 'NONE',  ( 2.135044278125300850E-16, -1.000000000000000000, 0.000000000000000000 ) ) ;
#271 = ORIENTED_EDGE ( 'NONE', *, *, #85, .F. ) ;
#272 = CARTESIAN_POINT ( 'NONE',  ( 240.2610552250839646, 30.63208307812487163, -190.0000000000000000 ) ) ;
#273 = AXIS2_PLACEMENT_3D ( 'NONE', #188, #414, #540 ) ;
#274 = EDGE_CURVE ( 'NONE', #333, #638, #579, .T. ) ;
#275 = ORIENTED_EDGE ( 'NONE', *, *, #542, .T. ) ;
#276 = FACE_OUTER_BOUND ( 'NONE', #718, .T. ) ;
#277 = DIRECTION ( 'NONE',  ( -1.387778780781445676E-16, -0.000000000000000000, -1.000000000000000000 ) ) ;
#278 = VERTEX_POINT ( 'NONE', #672 ) ;
#279 = PRODUCT_CONTEXT ( 'NONE', #687, 'mechanical' ) ;
#280 = EDGE_CURVE ( 'NONE', #603, #152, #113, .T. ) ;
#281 = CARTESIAN_POINT ( 'NONE',  ( -250.0000000000000568, 0.000000000000000000, -199.9999999999999716 ) ) ;
#282 = CARTESIAN_POINT ( 'NONE',  ( -239.7389447749160922, 290.6320830781248787, -190.0000000000000000 ) ) ;
#283 = ORIENTED_EDGE ( 'NONE', *, *, #371, .F. ) ;
#284 = VECTOR ( 'NONE', #449, 1000.000000000000000 ) ;
#285 = DIRECTION ( 'NONE',  ( 1.000000000000000000, 0.000000000000000000, -2.775557561562891351E-16 ) ) ;
#286 = EDGE_CURVE ( 'NONE', #380, #183, #518, .T. ) ;
#287 = AXIS2_PLACEMENT_3D ( 'NONE', #713, #123, #25 ) ;
#288 = AXIS2_PLACEMENT_3D ( 'NONE', #492, #141, #377 ) ;
#289 = ORIENTED_EDGE ( 'NONE', *, *, #675, .T. ) ;
#290 = DIRECTION ( 'NONE',  ( 0.000000000000000000, 1.000000000000000000, 0.000000000000000000 ) ) ;
#291 = DIRECTION ( 'NONE',  ( -0.000000000000000000, 1.000000000000000000, -0.000000000000000000 ) ) ;
#292 = DIRECTION ( 'NONE',  ( -0.000000000000000000, 1.000000000000000000, -0.000000000000000000 ) ) ;
#293 = APPLICATION_CONTEXT ( 'automotive_design' ) ;
#294 = ADVANCED_FACE ( 'NONE', ( #734 ), #383, .F. ) ;
#295 = CARTESIAN_POINT ( 'NONE',  ( 0.000000000000000000, 300.0000000000000000, 0.000000000000000000 ) ) ;
#296 = CARTESIAN_POINT ( 'NONE',  ( -239.7389447749160922, 290.6320830781248787, -190.0000000000000000 ) ) ;
#297 = ORIENTED_EDGE ( 'NONE', *, *, #404, .F. ) ;
#298 = EDGE_CURVE ( 'NONE', #221, #589, #322, .T. ) ;
#299 = DIRECTION ( 'NONE',  ( 0.000000000000000000, -1.000000000000000000, -1.110223024625156540E-16 ) ) ;
#300 = PRESENTATION_LAYER_ASSIGNMENT (  '', '', ( #119 ) ) ;
#301 = COLOUR_RGB ( '',0.7921568627450980005, 0.8196078431372548767, 0.9333333333333333481 ) ;
#302 = CARTESIAN_POINT ( 'NONE',  ( 240.2610552250839078, 290.6320830781248787, 200.0000000000000000 ) ) ;
#303 = ORIENTED_EDGE ( 'NONE', *, *, #505, .T. ) ;
#304 = CARTESIAN_POINT ( 'NONE',  ( -250.0000000000000568, 300.0000000000000000, -199.9999999999999716 ) ) ;
#305 = DIRECTION ( 'NONE',  ( -0.000000000000000000, 1.000000000000000000, -0.000000000000000000 ) ) ;
#306 = ORIENTED_EDGE ( 'NONE', *, *, #274, .T. ) ;
#307 = CARTESIAN_POINT ( 'NONE',  ( -120.9474997033186412, 90.00000000000008527, 135.2777721800140114 ) ) ;
#308 = FACE_OUTER_BOUND ( 'NONE', #90, .T. ) ;
#309 = EDGE_LOOP ( 'NONE', ( #335, #514, #53, #271 ) ) ;
#310 = CARTESIAN_POINT ( 'NONE',  ( -50.00000000000001421, 30.63208307812487163, -174.9999999999999432 ) ) ;
#311 = CIRCLE ( 'NONE', #390, 25.00000000000000000 ) ;
#312 = CARTESIAN_POINT ( 'NONE',  ( -239.7389447749159785, 30.63208307812487163, 175.0000000000000568 ) ) ;
#313 = AXIS2_PLACEMENT_3D ( 'NONE', #755, #400, #633 ) ;
#314 = AXIS2_PLACEMENT_3D ( 'NONE', #259, #345, #456 ) ;
#315 = ORIENTED_EDGE ( 'NONE', *, *, #131, .F. ) ;
#316 = CARTESIAN_POINT ( 'NONE',  ( -250.0000000000000568, 300.0000000000000000, -199.9999999999999716 ) ) ;
#317 = CARTESIAN_POINT ( 'NONE',  ( 240.2610552250839078, 290.6320830781248787, -190.0000000000000000 ) ) ;
#318 = ADVANCED_FACE ( 'NONE', ( #386 ), #757, .F. ) ;
#319 = ORIENTED_EDGE ( 'NONE', *, *, #692, .F. ) ;
#320 = DIRECTION ( 'NONE',  ( -0.000000000000000000, 1.000000000000000000, -0.000000000000000000 ) ) ;
#321 = EDGE_CURVE ( 'NONE', #447, #636, #352, .T. ) ;
#322 = LINE ( 'NONE', #558, #214 ) ;
#323 = ORIENTED_EDGE ( 'NONE', *, *, #286, .F. ) ;
#324 = CARTESIAN_POINT ( 'NONE',  ( 3.061616997868382254E-15, 290.6320830781248787, -25.00000000000000000 ) ) ;
#325 = DIRECTION ( 'NONE',  ( 1.000000000000000000, -0.000000000000000000, -1.387778780781445676E-16 ) ) ;
#326 = VECTOR ( 'NONE', #423, 1000.000000000000000 ) ;
#327 = AXIS2_PLACEMENT_3D ( 'NONE', #501, #290, #529 ) ;
#328 = AXIS2_PLACEMENT_3D ( 'NONE', #343, #408, #578 ) ;
#329 = EDGE_LOOP ( 'NONE', ( #617, #756, #144, #442 ) ) ;
#330 = AXIS2_PLACEMENT_3D ( 'NONE', #64, #596, #527 ) ;
#331 = VECTOR ( 'NONE', #614, 1000.000000000000000 ) ;
#332 = CARTESIAN_POINT ( 'NONE',  ( -239.7389447749160922, 290.6320830781248787, -190.0000000000000000 ) ) ;
#333 = VERTEX_POINT ( 'NONE', #184 ) ;
#334 = DIRECTION ( 'NONE',  ( 1.000000000000000000, 2.135044278125300850E-16, 0.000000000000000000 ) ) ;
#335 = ORIENTED_EDGE ( 'NONE', *, *, #156, .F. ) ;
#336 = DIRECTION ( 'NONE',  ( 0.000000000000000000, 0.000000000000000000, 1.000000000000000000 ) ) ;
#337 = EDGE_CURVE ( 'NONE', #278, #445, #231, .T. ) ;
#338 = DIRECTION ( 'NONE',  ( 7.930164461608261179E-17, -0.000000000000000000, 1.000000000000000000 ) ) ;
#339 = UNCERTAINTY_MEASURE_WITH_UNIT (LENGTH_MEASURE( 1.000000000000000082E-05 ), #708, 'distance_accuracy_value', 'NONE');
#340 =( GEOMETRIC_REPRESENTATION_CONTEXT ( 3 ) GLOBAL_UNCERTAINTY_ASSIGNED_CONTEXT ( ( #515 ) ) GLOBAL_UNIT_ASSIGNED_CONTEXT ( ( #124, #54, #459 ) ) REPRESENTATION_CONTEXT ( 'NONE', 'WORKASPACE' ) );
#341 = DIRECTION ( 'NONE',  ( 1.000000000000000000, 0.000000000000000000, -5.551115123125782702E-17 ) ) ;
#342 = FILL_AREA_STYLE ('',( #631 ) ) ;
#343 = CARTESIAN_POINT ( 'NONE',  ( -120.9474997033186412, 290.6320830781248787, 120.9474997033175470 ) ) ;
#344 = EDGE_CURVE ( 'NONE', #278, #650, #224, .T. ) ;
#345 = DIRECTION ( 'NONE',  ( 0.000000000000000000, 1.000000000000000000, 0.000000000000000000 ) ) ;
#346 = ORIENTED_EDGE ( 'NONE', *, *, #698, .T. ) ;
#347 = PRODUCT_DEFINITION_CONTEXT ( 'detailed design', #293, 'design' ) ;
#348 = ORIENTED_EDGE ( 'NONE', *, *, #595, .F. ) ;
#349 = EDGE_CURVE ( 'NONE', #104, #559, #402, .T. ) ;
#350 = DIRECTION ( 'NONE',  ( -1.375664245990882825E-33, -1.000000000000000000, -9.912705577010326474E-18 ) ) ;
#351 = CARTESIAN_POINT ( 'NONE',  ( -50.00000000000001421, 29.99999999999997158, -174.9999999999999432 ) ) ;
#352 = LINE ( 'NONE', #281, #132 ) ;
#353 = AXIS2_PLACEMENT_3D ( 'NONE', #716, #249, #127 ) ;
#354 = ORIENTED_EDGE ( 'NONE', *, *, #381, .T. ) ;
#355 = ADVANCED_FACE ( 'NONE', ( #709 ), #652, .F. ) ;
#356 = ORIENTED_EDGE ( 'NONE', *, *, #626, .F. ) ;
#357 =( NAMED_UNIT ( * ) PLANE_ANGLE_UNIT ( ) SI_UNIT ( $, .RADIAN. ) );
#358 = DIRECTION ( 'NONE',  ( 0.000000000000000000, 9.912705577010326474E-18, -1.000000000000000000 ) ) ;
#359 = PLANE ( 'NONE',  #287 ) ;
#360 = ORIENTED_EDGE ( 'NONE', *, *, #20, .T. ) ;
#361 = DIRECTION ( 'NONE',  ( -2.135044278125300850E-16, 1.000000000000000000, -0.000000000000000000 ) ) ;
#362 = DIRECTION ( 'NONE',  ( -1.000000000000000000, -0.000000000000000000, -0.000000000000000000 ) ) ;
#363 = ORIENTED_EDGE ( 'NONE', *, *, #344, .T. ) ;
#364 = CARTESIAN_POINT ( 'NONE',  ( -250.0000000000000568, 300.0000000000000000, -199.9999999999999716 ) ) ;
#365 = VECTOR ( 'NONE', #604, 1000.000000000000000 ) ;
#366 = VECTOR ( 'NONE', #325, 1000.000000000000000 ) ;
#367 = CARTESIAN_POINT ( 'NONE',  ( 240.2610552250839078, 290.6320830781248787, -174.9999999999999716 ) ) ;
#368 = EDGE_LOOP ( 'NONE', ( #610, #426 ) ) ;
#369 = CARTESIAN_POINT ( 'NONE',  ( 250.0000000000000000, 300.0000000000000000, -200.0000000000000000 ) ) ;
#370 = FACE_BOUND ( 'NONE', #694, .T. ) ;
#371 = EDGE_CURVE ( 'NONE', #714, #128, #461, .T. ) ;
#372 = ORIENTED_EDGE ( 'NONE', *, *, #85, .T. ) ;
#373 = EDGE_CURVE ( 'NONE', #683, #491, #704, .T. ) ;
#374 = DIRECTION ( 'NONE',  ( 2.135044278125300850E-16, -1.000000000000000000, 0.000000000000000000 ) ) ;
#375 = DIRECTION ( 'NONE',  ( 0.000000000000000000, 0.000000000000000000, 1.000000000000000000 ) ) ;
#376 = VERTEX_POINT ( 'NONE', #465 ) ;
#377 = DIRECTION ( 'NONE',  ( 0.000000000000000000, 0.000000000000000000, 1.000000000000000000 ) ) ;
#378 = DIRECTION ( 'NONE',  ( 0.000000000000000000, 0.000000000000000000, 1.000000000000000000 ) ) ;
#379 = AXIS2_PLACEMENT_3D ( 'NONE', #605, #305, #241 ) ;
#380 = VERTEX_POINT ( 'NONE', #180 ) ;
#381 = EDGE_CURVE ( 'NONE', #152, #267, #521, .T. ) ;
#382 = CARTESIAN_POINT ( 'NONE',  ( 250.0000000000000000, 279.9999999999999432, 175.0000000000000284 ) ) ;
#383 = PLANE ( 'NONE',  #511 ) ;
#384 = VERTEX_POINT ( 'NONE', #239 ) ;
#385 = DIRECTION ( 'NONE',  ( -2.135044278125300850E-16, 1.000000000000000000, 0.000000000000000000 ) ) ;
#386 = FACE_OUTER_BOUND ( 'NONE', #624, .T. ) ;
#387 = ORIENTED_EDGE ( 'NONE', *, *, #103, .F. ) ;
#388 = CYLINDRICAL_SURFACE ( 'NONE', #622, 14.33027247669647863 ) ;
#389 = PRESENTATION_STYLE_ASSIGNMENT (( #499 ) ) ;
#390 = AXIS2_PLACEMENT_3D ( 'NONE', #644, #11, #588 ) ;
#391 = VECTOR ( 'NONE', #686, 1000.000000000000000 ) ;
#392 = AXIS2_PLACEMENT_3D ( 'NONE', #417, #602, #74 ) ;
#393 = ORIENTED_EDGE ( 'NONE', *, *, #572, .T. ) ;
#394 = AXIS2_PLACEMENT_3D ( 'NONE', #295, #469, #647 ) ;
#395 = DIRECTION ( 'NONE',  ( 1.000000000000000000, 0.000000000000000000, 0.000000000000000000 ) ) ;
#396 = EDGE_LOOP ( 'NONE', ( #711, #245, #39, #233 ) ) ;
#397 = LINE ( 'NONE', #446, #284 ) ;
#398 = CARTESIAN_POINT ( 'NONE',  ( 0.000000000000000000, 300.0000000000000000, 0.000000000000000000 ) ) ;
#399 = PLANE ( 'NONE',  #681 ) ;
#400 = DIRECTION ( 'NONE',  ( -1.387778780781445676E-16, 0.000000000000000000, -1.000000000000000000 ) ) ;
#401 = ORIENTED_EDGE ( 'NONE', *, *, #729, .T. ) ;
#402 = CIRCLE ( 'NONE', #394, 25.00000000000000000 ) ;
#403 = CARTESIAN_POINT ( 'NONE',  ( -120.9474997033186412, 290.6320830781248787, 135.2777721800140114 ) ) ;
#404 = EDGE_CURVE ( 'NONE', #668, #472, #475, .T. ) ;
#405 = ORIENTED_EDGE ( 'NONE', *, *, #555, .T. ) ;
#406 = ORIENTED_EDGE ( 'NONE', *, *, #163, .T. ) ;
#407 = CARTESIAN_POINT ( 'NONE',  ( 107.7636490247577683, 90.00000000000008527, 106.6172272266210541 ) ) ;
#408 = DIRECTION ( 'NONE',  ( -0.000000000000000000, 1.000000000000000000, 0.000000000000000000 ) ) ;
#409 = DIRECTION ( 'NONE',  ( -1.387778780781445676E-16, -0.000000000000000000, -1.000000000000000000 ) ) ;
#410 = ORIENTED_EDGE ( 'NONE', *, *, #705, .F. ) ;
#411 = VECTOR ( 'NONE', #611, 1000.000000000000000 ) ;
#412 = DIRECTION ( 'NONE',  ( 2.775557561562891351E-16, 0.000000000000000000, 1.000000000000000000 ) ) ;
#413 = AXIS2_PLACEMENT_3D ( 'NONE', #364, #285, #533 ) ;
#414 = DIRECTION ( 'NONE',  ( -0.000000000000000000, 0.000000000000000000, 1.000000000000000000 ) ) ;
#415 = EDGE_CURVE ( 'NONE', #619, #453, #478, .T. ) ;
#416 = CARTESIAN_POINT ( 'NONE',  ( -250.0000000000000568, 300.0000000000000000, -199.9999999999999716 ) ) ;
#417 = CARTESIAN_POINT ( 'NONE',  ( 107.7636490247577683, 90.00000000000008527, 120.9474997033175470 ) ) ;
#418 = EDGE_LOOP ( 'NONE', ( #306, #677, #46, #297, #494, #250 ) ) ;
#419 = CARTESIAN_POINT ( 'NONE',  ( 250.0000000000000568, 0.000000000000000000, 200.0000000000000000 ) ) ;
#420 = EDGE_CURVE ( 'NONE', #380, #30, #61, .T. ) ;
#421 = FACE_BOUND ( 'NONE', #396, .T. ) ;
#422 = ORIENTED_EDGE ( 'NONE', *, *, #15, .T. ) ;
#423 = DIRECTION ( 'NONE',  ( 1.000000000000000000, -0.000000000000000000, -1.387778780781445676E-16 ) ) ;
#424 = DIRECTION ( 'NONE',  ( -2.135044278125300850E-16, 1.000000000000000000, 2.962969145211131955E-32 ) ) ;
#425 = EDGE_CURVE ( 'NONE', #453, #447, #55, .T. ) ;
#426 = ORIENTED_EDGE ( 'NONE', *, *, #7, .F. ) ;
#427 = DIRECTION ( 'NONE',  ( 1.000000000000000000, 0.000000000000000000, -1.387778780781445676E-16 ) ) ;
#428 = DIRECTION ( 'NONE',  ( 0.000000000000000000, 1.000000000000000000, 0.000000000000000000 ) ) ;
#429 = ORIENTED_EDGE ( 'NONE', *, *, #435, .T. ) ;
#430 = CARTESIAN_POINT ( 'NONE',  ( 0.000000000000000000, 300.0000000000000000, 25.00000000000000000 ) ) ;
#431 = CARTESIAN_POINT ( 'NONE',  ( -239.7389447749160354, 30.63208307812487163, -190.0000000000000000 ) ) ;
#432 = EDGE_CURVE ( 'NONE', #522, #175, #129, .T. ) ;
#433 = ORIENTED_EDGE ( 'NONE', *, *, #675, .F. ) ;
#434 = LINE ( 'NONE', #369, #365 ) ;
#435 = EDGE_CURVE ( 'NONE', #589, #183, #2, .T. ) ;
#436 = AXIS2_PLACEMENT_3D ( 'NONE', #9, #700, #464 ) ;
#437 =( NAMED_UNIT ( * ) SI_UNIT ( $, .STERADIAN. ) SOLID_ANGLE_UNIT ( ) );
#438 = VECTOR ( 'NONE', #292, 1000.000000000000000 ) ;
#439 = ORIENTED_EDGE ( 'NONE', *, *, #692, .T. ) ;
#440 = DIRECTION ( 'NONE',  ( 1.387778780781445676E-16, -1.110223024625156540E-16, 1.000000000000000000 ) ) ;
#441 = DIRECTION ( 'NONE',  ( -0.000000000000000000, 1.000000000000000000, -0.000000000000000000 ) ) ;
#442 = ORIENTED_EDGE ( 'NONE', *, *, #729, .F. ) ;
#443 = DIRECTION ( 'NONE',  ( -0.000000000000000000, 1.000000000000000000, 0.000000000000000000 ) ) ;
#444 = PLANE ( 'NONE',  #314 ) ;
#445 = VERTEX_POINT ( 'NONE', #223 ) ;
#446 = CARTESIAN_POINT ( 'NONE',  ( 0.000000000000000000, 90.00000000000008527, 25.00000000000000000 ) ) ;
#447 = VERTEX_POINT ( 'NONE', #539 ) ;
#448 = CIRCLE ( 'NONE', #634, 14.33027247669647863 ) ;
#449 = DIRECTION ( 'NONE',  ( -0.000000000000000000, 1.000000000000000000, -0.000000000000000000 ) ) ;
#450 = ORIENTED_EDGE ( 'NONE', *, *, #337, .F. ) ;
#451 = CARTESIAN_POINT ( 'NONE',  ( 240.2610552250839078, 279.9999999999999432, -190.0000000000000000 ) ) ;
#452 = EDGE_CURVE ( 'NONE', #738, #662, #311, .T. ) ;
#453 = VERTEX_POINT ( 'NONE', #419 ) ;
#454 = ORIENTED_EDGE ( 'NONE', *, *, #1, .F. ) ;
#455 = DIRECTION ( 'NONE',  ( 5.551115123125782702E-17, -0.000000000000000000, 1.000000000000000000 ) ) ;
#456 = DIRECTION ( 'NONE',  ( 0.000000000000000000, -0.000000000000000000, 1.000000000000000000 ) ) ;
#457 = CARTESIAN_POINT ( 'NONE',  ( 0.000000000000000000, 0.000000000000000000, 0.000000000000000000 ) ) ;
#458 = ORIENTED_EDGE ( 'NONE', *, *, #280, .F. ) ;
#459 =( NAMED_UNIT ( * ) SI_UNIT ( $, .STERADIAN. ) SOLID_ANGLE_UNIT ( ) );
#460 = VECTOR ( 'NONE', #751, 1000.000000000000000 ) ;
#461 = LINE ( 'NONE', #51, #170 ) ;
#462 = CARTESIAN_POINT ( 'NONE',  ( 250.0000000000000000, 279.9999999999999432, 175.0000000000000284 ) ) ;
#463 = VERTEX_POINT ( 'NONE', #655 ) ;
#464 = DIRECTION ( 'NONE',  ( 1.000000000000000000, 0.000000000000000000, 0.000000000000000000 ) ) ;
#465 = CARTESIAN_POINT ( 'NONE',  ( -249.9999999999999432, 300.0000000000000000, 200.0000000000000000 ) ) ;
#466 = VERTEX_POINT ( 'NONE', #697 ) ;
#467 = ORIENTED_EDGE ( 'NONE', *, *, #752, .T. ) ;
#468 = PRODUCT_RELATED_PRODUCT_CATEGORY ( 'part', '', ( #19 ) ) ;
#469 = DIRECTION ( 'NONE',  ( 0.000000000000000000, 1.000000000000000000, 0.000000000000000000 ) ) ;
#470 = PLANE ( 'NONE',  #273 ) ;
#471 = EDGE_CURVE ( 'NONE', #636, #619, #172, .T. ) ;
#472 = VERTEX_POINT ( 'NONE', #122 ) ;
#473 = PRESENTATION_STYLE_ASSIGNMENT (( #582 ) ) ;
#474 = STYLED_ITEM ( 'NONE', ( #473 ), #33 ) ;
#475 = LINE ( 'NONE', #67, #37 ) ;
#476 = LINE ( 'NONE', #367, #202 ) ;
#477 = ORIENTED_EDGE ( 'NONE', *, *, #337, .T. ) ;
#478 = LINE ( 'NONE', #4, #489 ) ;
#479 = EDGE_CURVE ( 'NONE', #466, #17, #549, .T. ) ;
#480 = PLANE ( 'NONE',  #160 ) ;
#481 = ORIENTED_EDGE ( 'NONE', *, *, #235, .T. ) ;
#482 = FACE_BOUND ( 'NONE', #136, .T. ) ;
#483 = ADVANCED_FACE ( 'NONE', ( #73 ), #251, .F. ) ;
#484 = FACE_BOUND ( 'NONE', #368, .T. ) ;
#485 = ORIENTED_EDGE ( 'NONE', *, *, #471, .T. ) ;
#486 = FACE_OUTER_BOUND ( 'NONE', #590, .T. ) ;
#487 = VECTOR ( 'NONE', #199, 1000.000000000000000 ) ;
#488 = CLOSED_SHELL ( 'NONE', ( #608, #637, #208, #204, #620, #318, #181, #151, #76, #649, #294, #575, #616, #195, #215, #28, #483, #567, #355, #146, #100, #632 ) ) ;
#489 = VECTOR ( 'NONE', #530, 1000.000000000000000 ) ;
#490 = CARTESIAN_POINT ( 'NONE',  ( -239.7389447749160922, 290.6320830781248787, 200.0000000000000000 ) ) ;
#491 = VERTEX_POINT ( 'NONE', #669 ) ;
#492 = CARTESIAN_POINT ( 'NONE',  ( -120.9474997033186412, 300.0000000000000000, 120.9474997033175470 ) ) ;
#493 = EDGE_CURVE ( 'NONE', #176, #589, #495, .T. ) ;
#494 = ORIENTED_EDGE ( 'NONE', *, *, #108, .F. ) ;
#495 = LINE ( 'NONE', #497, #411 ) ;
#496 = EDGE_LOOP ( 'NONE', ( #206, #43, #410, #481 ) ) ;
#497 = CARTESIAN_POINT ( 'NONE',  ( -239.7389447749160354, 30.63208307812487163, 200.0000000000000000 ) ) ;
#498 = VECTOR ( 'NONE', #666, 1000.000000000000000 ) ;
#499 = SURFACE_STYLE_USAGE ( .BOTH. , #615 ) ;
#500 = EDGE_LOOP ( 'NONE', ( #13, #387, #269, #121 ) ) ;
#501 = CARTESIAN_POINT ( 'NONE',  ( -120.9474997033186412, 300.0000000000000000, 120.9474997033175470 ) ) ;
#502 = EDGE_CURVE ( 'NONE', #472, #66, #546, .T. ) ;
#503 = ORIENTED_EDGE ( 'NONE', *, *, #228, .F. ) ;
#504 = CARTESIAN_POINT ( 'NONE',  ( -249.9999999999999432, 300.0000000000000000, 200.0000000000000000 ) ) ;
#505 = EDGE_CURVE ( 'NONE', #603, #453, #187, .T. ) ;
#506 = ORIENTED_EDGE ( 'NONE', *, *, #471, .F. ) ;
#507 = FACE_OUTER_BOUND ( 'NONE', #696, .T. ) ;
#508 = VECTOR ( 'NONE', #618, 1000.000000000000000 ) ;
#509 = COLOUR_RGB ( '',0.7921568627450980005, 0.8196078431372548767, 0.9333333333333333481 ) ;
#510 = EDGE_LOOP ( 'NONE', ( #679, #477, #541, #454 ) ) ;
#511 = AXIS2_PLACEMENT_3D ( 'NONE', #431, #667, #676 ) ;
#512 = DIRECTION ( 'NONE',  ( 0.000000000000000000, -0.000000000000000000, 1.000000000000000000 ) ) ;
#513 = EDGE_CURVE ( 'NONE', #152, #447, #434, .T. ) ;
#514 = ORIENTED_EDGE ( 'NONE', *, *, #435, .F. ) ;
#515 = UNCERTAINTY_MEASURE_WITH_UNIT (LENGTH_MEASURE( 1.000000000000000082E-05 ), #124, 'distance_accuracy_value', 'NONE');
#516 = EDGE_LOOP ( 'NONE', ( #148, #354, #275, #26 ) ) ;
#517 = CARTESIAN_POINT ( 'NONE',  ( 240.2610552250839078, 290.6320830781248787, -190.0000000000000000 ) ) ;
#518 = LINE ( 'NONE', #726, #551 ) ;
#519 = FACE_OUTER_BOUND ( 'NONE', #593, .T. ) ;
#520 = ORIENTED_EDGE ( 'NONE', *, *, #748, .T. ) ;
#521 = LINE ( 'NONE', #416, #70 ) ;
#522 = VERTEX_POINT ( 'NONE', #728 ) ;
#523 = AXIS2_PLACEMENT_3D ( 'NONE', #97, #217, #336 ) ;
#524 = ORIENTED_EDGE ( 'NONE', *, *, #671, .T. ) ;
#525 = MECHANICAL_DESIGN_GEOMETRIC_PRESENTATION_REPRESENTATION (  '', ( #119 ), #189 ) ;
#526 = AXIS2_PLACEMENT_3D ( 'NONE', #725, #196, #145 ) ;
#527 = DIRECTION ( 'NONE',  ( 0.000000000000000000, 0.000000000000000000, 1.000000000000000000 ) ) ;
#528 = ORIENTED_EDGE ( 'NONE', *, *, #536, .T. ) ;
#529 = DIRECTION ( 'NONE',  ( 0.000000000000000000, 0.000000000000000000, 1.000000000000000000 ) ) ;
#530 = DIRECTION ( 'NONE',  ( 1.000000000000000000, 0.000000000000000000, 0.000000000000000000 ) ) ;
#531 = EDGE_LOOP ( 'NONE', ( #220, #654, #283, #83, #393, #201, #155, #23 ) ) ;
#532 = ORIENTED_EDGE ( 'NONE', *, *, #31, .T. ) ;
#533 = DIRECTION ( 'NONE',  ( -2.775557561562891351E-16, 0.000000000000000000, -1.000000000000000000 ) ) ;
#534 = CYLINDRICAL_SURFACE ( 'NONE', #392, 14.33027247669647863 ) ;
#535 = ORIENTED_EDGE ( 'NONE', *, *, #586, .T. ) ;
#536 = EDGE_CURVE ( 'NONE', #253, #210, #77, .T. ) ;
#537 = VECTOR ( 'NONE', #338, 1000.000000000000000 ) ;
#538 = VECTOR ( 'NONE', #112, 1000.000000000000000 ) ;
#539 = CARTESIAN_POINT ( 'NONE',  ( 250.0000000000000000, 0.000000000000000000, -200.0000000000000000 ) ) ;
#540 = DIRECTION ( 'NONE',  ( 1.000000000000000000, 0.000000000000000000, 0.000000000000000000 ) ) ;
#541 = ORIENTED_EDGE ( 'NONE', *, *, #7, .T. ) ;
#542 = EDGE_CURVE ( 'NONE', #267, #376, #18, .T. ) ;
#543 = LINE ( 'NONE', #382, #498 ) ;
#544 = CARTESIAN_POINT ( 'NONE',  ( 107.7636490247577683, 300.0000000000000000, 120.9474997033175470 ) ) ;
#545 = ORIENTED_EDGE ( 'NONE', *, *, #321, .F. ) ;
#546 = LINE ( 'NONE', #660, #260 ) ;
#547 = DIRECTION ( 'NONE',  ( 0.000000000000000000, -0.000000000000000000, 1.000000000000000000 ) ) ;
#548 = ORIENTED_EDGE ( 'NONE', *, *, #131, .T. ) ;
#549 = LINE ( 'NONE', #134, #326 ) ;
#550 = VECTOR ( 'NONE', #291, 1000.000000000000000 ) ;
#551 = VECTOR ( 'NONE', #197, 1000.000000000000000 ) ;
#552 = FACE_OUTER_BOUND ( 'NONE', #496, .T. ) ;
#553 = ORIENTED_EDGE ( 'NONE', *, *, #349, .T. ) ;
#554 = CARTESIAN_POINT ( 'NONE',  ( -120.9474997033186412, 90.00000000000008527, 120.9474997033175470 ) ) ;
#555 = EDGE_CURVE ( 'NONE', #267, #636, #80, .T. ) ;
#556 = ORIENTED_EDGE ( 'NONE', *, *, #432, .T. ) ;
#557 = CARTESIAN_POINT ( 'NONE',  ( 240.2610552250839646, 30.63208307812487163, 200.0000000000000000 ) ) ;
#558 = CARTESIAN_POINT ( 'NONE',  ( 240.2610552250839646, 30.63208307812487163, -190.0000000000000000 ) ) ;
#559 = VERTEX_POINT ( 'NONE', #430 ) ;
#560 = EDGE_CURVE ( 'NONE', #638, #683, #543, .T. ) ;
#561 = LINE ( 'NONE', #36, #57 ) ;
#562 = AXIS2_PLACEMENT_3D ( 'NONE', #684, #443, #512 ) ;
#563 = DIRECTION ( 'NONE',  ( -0.000000000000000000, -1.000000000000000000, -0.000000000000000000 ) ) ;
#564 = VECTOR ( 'NONE', #412, 1000.000000000000000 ) ;
#565 = ORIENTED_EDGE ( 'NONE', *, *, #72, .F. ) ;
#566 = LINE ( 'NONE', #451, #391 ) ;
#567 = ADVANCED_FACE ( 'NONE', ( #486 ), #722, .T. ) ;
#568 = ORIENTED_EDGE ( 'NONE', *, *, #432, .F. ) ;
#569 = LINE ( 'NONE', #504, #508 ) ;
#570 = ORIENTED_EDGE ( 'NONE', *, *, #139, .T. ) ;
#571 = LINE ( 'NONE', #94, #82 ) ;
#572 = EDGE_CURVE ( 'NONE', #384, #176, #732, .T. ) ;
#573 = CIRCLE ( 'NONE', #327, 14.33027247669647863 ) ;
#574 = FACE_OUTER_BOUND ( 'NONE', #79, .T. ) ;
#575 = ADVANCED_FACE ( 'NONE', ( #254 ), #137, .F. ) ;
#576 = CARTESIAN_POINT ( 'NONE',  ( 3.061616997868382254E-15, 90.00000000000008527, -25.00000000000000000 ) ) ;
#577 = CARTESIAN_POINT ( 'NONE',  ( -49.99999999999998579, 279.9999999999999432, 175.0000000000000568 ) ) ;
#578 = DIRECTION ( 'NONE',  ( 0.000000000000000000, 0.000000000000000000, 1.000000000000000000 ) ) ;
#579 = LINE ( 'NONE', #577, #733 ) ;
#580 = CARTESIAN_POINT ( 'NONE',  ( 250.0000000000000000, 279.9999999999999432, -175.0000000000000000 ) ) ;
#581 = VERTEX_POINT ( 'NONE', #310 ) ;
#582 = SURFACE_STYLE_USAGE ( .BOTH. , #594 ) ;
#583 = DIRECTION ( 'NONE',  ( -7.930164461608261179E-17, 9.912705577010326474E-18, -1.000000000000000000 ) ) ;
#584 = CARTESIAN_POINT ( 'NONE',  ( 107.7636490247577683, 90.00000000000008527, 135.2777721800140114 ) ) ;
#585 = AXIS2_PLACEMENT_3D ( 'NONE', #65, #597, #592 ) ;
#586 = EDGE_CURVE ( 'NONE', #66, #581, #203, .T. ) ;
#587 = FILL_AREA_STYLE_COLOUR ( '', #509 ) ;
#588 = DIRECTION ( 'NONE',  ( 0.000000000000000000, 0.000000000000000000, 1.000000000000000000 ) ) ;
#589 = VERTEX_POINT ( 'NONE', #557 ) ;
#590 = EDGE_LOOP ( 'NONE', ( #346, #657, #140, #535 ) ) ;
#591 = CARTESIAN_POINT ( 'NONE',  ( -49.99999999999998579, 29.99999999999996803, 175.0000000000000568 ) ) ;
#592 = DIRECTION ( 'NONE',  ( 0.000000000000000000, 0.000000000000000000, 1.000000000000000000 ) ) ;
#593 = EDGE_LOOP ( 'NONE', ( #688, #120, #422, #520, #703, #740 ) ) ;
#594 = SURFACE_SIDE_STYLE ('',( #643 ) ) ;
#595 = EDGE_CURVE ( 'NONE', #175, #210, #191, .T. ) ;
#596 = DIRECTION ( 'NONE',  ( -0.000000000000000000, 1.000000000000000000, 0.000000000000000000 ) ) ;
#597 = DIRECTION ( 'NONE',  ( -0.000000000000000000, 1.000000000000000000, 0.000000000000000000 ) ) ;
#598 = VECTOR ( 'NONE', #361, 1000.000000000000000 ) ;
#599 = EDGE_LOOP ( 'NONE', ( #50, #570, #401, #532, #735, #429, #323, #503 ) ) ;
#600 = VECTOR ( 'NONE', #362, 1000.000000000000000 ) ;
#601 = DIRECTION ( 'NONE',  ( 0.000000000000000000, 0.000000000000000000, 1.000000000000000000 ) ) ;
#602 = DIRECTION ( 'NONE',  ( -0.000000000000000000, 1.000000000000000000, -0.000000000000000000 ) ) ;
#603 = VERTEX_POINT ( 'NONE', #149 ) ;
#604 = DIRECTION ( 'NONE',  ( -0.000000000000000000, -1.000000000000000000, -0.000000000000000000 ) ) ;
#605 = CARTESIAN_POINT ( 'NONE',  ( 0.000000000000000000, 90.00000000000008527, 0.000000000000000000 ) ) ;
#606 = ORIENTED_EDGE ( 'NONE', *, *, #415, .F. ) ;
#607 = CARTESIAN_POINT ( 'NONE',  ( 250.0000000000000568, 300.0000000000000000, 200.0000000000000000 ) ) ;
#608 = ADVANCED_FACE ( 'NONE', ( #87 ), #243, .F. ) ;
#609 = CARTESIAN_POINT ( 'NONE',  ( -239.7389447749160354, 30.63208307812487163, 200.0000000000000000 ) ) ;
#610 = ORIENTED_EDGE ( 'NONE', *, *, #163, .F. ) ;
#611 = DIRECTION ( 'NONE',  ( 1.000000000000000000, 0.000000000000000000, 0.000000000000000000 ) ) ;
#612 = CYLINDRICAL_SURFACE ( 'NONE', #646, 25.00000000000000000 ) ;
#613 = ORIENTED_EDGE ( 'NONE', *, *, #513, .F. ) ;
#614 = DIRECTION ( 'NONE',  ( -0.000000000000000000, 1.000000000000000000, -0.000000000000000000 ) ) ;
#615 = SURFACE_SIDE_STYLE ('',( #154 ) ) ;
#616 = ADVANCED_FACE ( 'NONE', ( #14, #482, #107, #48 ), #678, .F. ) ;
#617 = ORIENTED_EDGE ( 'NONE', *, *, #479, .T. ) ;
#618 = DIRECTION ( 'NONE',  ( 1.000000000000000000, 0.000000000000000000, 0.000000000000000000 ) ) ;
#619 = VERTEX_POINT ( 'NONE', #628 ) ;
#620 = ADVANCED_FACE ( 'NONE', ( #507 ), #690, .F. ) ;
#621 = DIRECTION ( 'NONE',  ( -0.000000000000000000, 1.000000000000000000, -0.000000000000000000 ) ) ;
#622 = AXIS2_PLACEMENT_3D ( 'NONE', #162, #621, #744 ) ;
#623 = VECTOR ( 'NONE', #78, 1000.000000000000000 ) ;
#624 = EDGE_LOOP ( 'NONE', ( #485, #179, #93, #405 ) ) ;
#625 = CARTESIAN_POINT ( 'NONE',  ( 250.0000000000000000, 29.99999999999996803, 175.0000000000000000 ) ) ;
#626 = EDGE_CURVE ( 'NONE', #738, #104, #102, .T. ) ;
#627 = ORIENTED_EDGE ( 'NONE', *, *, #642, .T. ) ;
#628 = CARTESIAN_POINT ( 'NONE',  ( -249.9999999999999432, 0.000000000000000000, 200.0000000000000000 ) ) ;
#629 = DIRECTION ( 'NONE',  ( 0.000000000000000000, 0.000000000000000000, 1.000000000000000000 ) ) ;
#630 = CARTESIAN_POINT ( 'NONE',  ( -49.99999999999998579, 30.63208307812487163, 175.0000000000000284 ) ) ;
#631 = FILL_AREA_STYLE_COLOUR ( '', #301 ) ;
#632 = ADVANCED_FACE ( 'NONE', ( #276 ), #388, .F. ) ;
#633 = DIRECTION ( 'NONE',  ( -1.000000000000000000, 0.000000000000000000, 1.387778780781445676E-16 ) ) ;
#634 = AXIS2_PLACEMENT_3D ( 'NONE', #544, #428, #375 ) ;
#635 = DIRECTION ( 'NONE',  ( 1.387778780781445676E-16, 0.000000000000000000, 1.000000000000000000 ) ) ;
#636 = VERTEX_POINT ( 'NONE', #268 ) ;
#637 = ADVANCED_FACE ( 'NONE', ( #211 ), #741, .F. ) ;
#638 = VERTEX_POINT ( 'NONE', #213 ) ;
#639 = FILL_AREA_STYLE ('',( #587 ) ) ;
#640 = DIRECTION ( 'NONE',  ( -0.000000000000000000, 1.000000000000000000, -0.000000000000000000 ) ) ;
#641 = LINE ( 'NONE', #584, #438 ) ;
#642 = EDGE_CURVE ( 'NONE', #662, #559, #397, .T. ) ;
#643 = SURFACE_STYLE_FILL_AREA ( #639 ) ;
#644 = CARTESIAN_POINT ( 'NONE',  ( 0.000000000000000000, 290.6320830781248787, 0.000000000000000000 ) ) ;
#645 = ORIENTED_EDGE ( 'NONE', *, *, #626, .T. ) ;
#646 = AXIS2_PLACEMENT_3D ( 'NONE', #88, #441, #378 ) ;
#647 = DIRECTION ( 'NONE',  ( 0.000000000000000000, 0.000000000000000000, 1.000000000000000000 ) ) ;
#648 = FACE_OUTER_BOUND ( 'NONE', #702, .T. ) ;
#649 = ADVANCED_FACE ( 'NONE', ( #105 ), #399, .F. ) ;
#650 = VERTEX_POINT ( 'NONE', #680 ) ;
#651 =( NAMED_UNIT ( * ) SI_UNIT ( $, .STERADIAN. ) SOLID_ANGLE_UNIT ( ) );
#652 = PLANE ( 'NONE',  #693 ) ;
#653 = PLANE ( 'NONE',  #353 ) ;
#654 = ORIENTED_EDGE ( 'NONE', *, *, #265, .T. ) ;
#655 = CARTESIAN_POINT ( 'NONE',  ( -239.7389447749160922, 290.6320830781248787, 200.0000000000000000 ) ) ;
#656 = LINE ( 'NONE', #490, #623 ) ;
#657 = ORIENTED_EDGE ( 'NONE', *, *, #404, .T. ) ;
#658 = AXIS2_PLACEMENT_3D ( 'NONE', #758, #166, #3 ) ;
#659 = VECTOR ( 'NONE', #640, 1000.000000000000000 ) ;
#660 = CARTESIAN_POINT ( 'NONE',  ( -49.99999999999998579, 29.99999999999996803, 175.0000000000000568 ) ) ;
#661 = CARTESIAN_POINT ( 'NONE',  ( 3.061616997868382254E-15, 300.0000000000000000, -25.00000000000000000 ) ) ;
#662 = VERTEX_POINT ( 'NONE', #165 ) ;
#663 = CARTESIAN_POINT ( 'NONE',  ( -239.7389447749160354, 30.63208307812487163, -190.0000000000000000 ) ) ;
#664 = DIRECTION ( 'NONE',  ( 0.000000000000000000, 0.000000000000000000, 1.000000000000000000 ) ) ;
#665 = EDGE_LOOP ( 'NONE', ( #101, #218 ) ) ;
#666 = DIRECTION ( 'NONE',  ( 0.000000000000000000, -1.000000000000000000, -1.110223024625156540E-16 ) ) ;
#667 = DIRECTION ( 'NONE',  ( 0.000000000000000000, -1.000000000000000000, 0.000000000000000000 ) ) ;
#668 = VERTEX_POINT ( 'NONE', #630 ) ;
#669 = CARTESIAN_POINT ( 'NONE',  ( 249.9999999999999716, 29.99999999999997158, -175.0000000000000000 ) ) ;
#670 =( GEOMETRIC_REPRESENTATION_CONTEXT ( 3 ) GLOBAL_UNCERTAINTY_ASSIGNED_CONTEXT ( ( #339 ) ) GLOBAL_UNIT_ASSIGNED_CONTEXT ( ( #708, #357, #651 ) ) REPRESENTATION_CONTEXT ( 'NONE', 'WORKASPACE' ) );
#671 = EDGE_CURVE ( 'NONE', #384, #714, #158, .T. ) ;
#672 = CARTESIAN_POINT ( 'NONE',  ( 107.7636490247577683, 290.6320830781248787, 106.6172272266210541 ) ) ;
#673 = EDGE_LOOP ( 'NONE', ( #75, #724, #41, #745 ) ) ;
#674 = DIRECTION ( 'NONE',  ( -7.930164461608261179E-17, 9.912705577010326474E-18, -1.000000000000000000 ) ) ;
#675 = EDGE_CURVE ( 'NONE', #253, #522, #719, .T. ) ;
#676 = DIRECTION ( 'NONE',  ( 0.000000000000000000, -0.000000000000000000, -1.000000000000000000 ) ) ;
#677 = ORIENTED_EDGE ( 'NONE', *, *, #560, .T. ) ;
#678 = PLANE ( 'NONE',  #562 ) ;
#679 = ORIENTED_EDGE ( 'NONE', *, *, #344, .F. ) ;
#680 = CARTESIAN_POINT ( 'NONE',  ( 107.7636490247577683, 290.6320830781248787, 135.2777721800140114 ) ) ;
#681 = AXIS2_PLACEMENT_3D ( 'NONE', #517, #334, #385 ) ;
#682 = VECTOR ( 'NONE', #395, 1000.000000000000000 ) ;
#683 = VERTEX_POINT ( 'NONE', #625 ) ;
#684 = CARTESIAN_POINT ( 'NONE',  ( -239.7389447749160922, 290.6320830781248787, -190.0000000000000000 ) ) ;
#685 = EDGE_LOOP ( 'NONE', ( #289, #743 ) ) ;
#686 = DIRECTION ( 'NONE',  ( 0.000000000000000000, 0.000000000000000000, 1.000000000000000000 ) ) ;
#687 = APPLICATION_CONTEXT ( 'automotive_design' ) ;
#688 = ORIENTED_EDGE ( 'NONE', *, *, #265, .F. ) ;
#689 = ORIENTED_EDGE ( 'NONE', *, *, #321, .T. ) ;
#690 = PLANE ( 'NONE',  #753 ) ;
#691 = FACE_OUTER_BOUND ( 'NONE', #238, .T. ) ;
#692 = EDGE_CURVE ( 'NONE', #30, #384, #747, .T. ) ;
#693 = AXIS2_PLACEMENT_3D ( 'NONE', #591, #350, #358 ) ;
#694 = EDGE_LOOP ( 'NONE', ( #242, #348 ) ) ;
#695 = VECTOR ( 'NONE', #258, 1000.000000000000000 ) ;
#696 = EDGE_LOOP ( 'NONE', ( #689, #34, #194, #62 ) ) ;
#697 = CARTESIAN_POINT ( 'NONE',  ( 240.2610552250839362, 279.9999999999999432, -174.9999999999999716 ) ) ;
#698 = EDGE_CURVE ( 'NONE', #581, #668, #571, .T. ) ;
#699 = DIRECTION ( 'NONE',  ( 0.000000000000000000, 1.000000000000000000, 0.000000000000000000 ) ) ;
#700 = DIRECTION ( 'NONE',  ( 0.000000000000000000, 0.000000000000000000, 1.000000000000000000 ) ) ;
#701 = DIRECTION ( 'NONE',  ( -1.000000000000000000, -0.000000000000000000, 5.551115123125782702E-17 ) ) ;
#702 = EDGE_LOOP ( 'NONE', ( #96, #613, #458, #303 ) ) ;
#703 = ORIENTED_EDGE ( 'NONE', *, *, #479, .F. ) ;
#704 = LINE ( 'NONE', #116, #59 ) ;
#705 = EDGE_CURVE ( 'NONE', #376, #603, #569, .T. ) ;
#706 = DIRECTION ( 'NONE',  ( -0.000000000000000000, -0.000000000000000000, 1.000000000000000000 ) ) ;
#707 = ORIENTED_EDGE ( 'NONE', *, *, #536, .F. ) ;
#708 =( LENGTH_UNIT ( ) NAMED_UNIT ( * ) SI_UNIT ( .MILLI., .METRE. ) );
#709 = FACE_OUTER_BOUND ( 'NONE', #673, .T. ) ;
#710 = CYLINDRICAL_SURFACE ( 'NONE', #379, 25.00000000000000000 ) ;
#711 = ORIENTED_EDGE ( 'NONE', *, *, #47, .F. ) ;
#712 = CARTESIAN_POINT ( 'NONE',  ( -120.9474997033186412, 90.00000000000008527, 106.6172272266210541 ) ) ;
#713 = CARTESIAN_POINT ( 'NONE',  ( -249.9999999999999432, 300.0000000000000000, 200.0000000000000000 ) ) ;
#714 = VERTEX_POINT ( 'NONE', #272 ) ;
#715 = DIRECTION ( 'NONE',  ( -0.000000000000000000, -1.000000000000000000, -0.000000000000000000 ) ) ;
#716 = CARTESIAN_POINT ( 'NONE',  ( 0.000000000000000000, 300.0000000000000000, 0.000000000000000000 ) ) ;
#717 = AXIS2_PLACEMENT_3D ( 'NONE', #42, #739, #219 ) ;
#718 = EDGE_LOOP ( 'NONE', ( #568, #433, #528, #467 ) ) ;
#719 = CIRCLE ( 'NONE', #523, 14.33027247669647863 ) ;
#720 = VECTOR ( 'NONE', #706, 1000.000000000000000 ) ;
#721 = VECTOR ( 'NONE', #737, 1000.000000000000000 ) ;
#722 = PLANE ( 'NONE',  #526 ) ;
#723 = LINE ( 'NONE', #193, #600 ) ;
#724 = ORIENTED_EDGE ( 'NONE', *, *, #15, .F. ) ;
#725 = CARTESIAN_POINT ( 'NONE',  ( -49.99999999999998579, 0.000000000000000000, 2.180795226942271641E-14 ) ) ;
#726 = CARTESIAN_POINT ( 'NONE',  ( 240.2610552250839078, 290.6320830781248787, -190.0000000000000000 ) ) ;
#727 = ORIENTED_EDGE ( 'NONE', *, *, #103, .T. ) ;
#728 = CARTESIAN_POINT ( 'NONE',  ( -120.9474997033186412, 290.6320830781248787, 106.6172272266210541 ) ) ;
#729 = EDGE_CURVE ( 'NONE', #466, #333, #566, .T. ) ;
#730 = VERTEX_POINT ( 'NONE', #40 ) ;
#731 = UNCERTAINTY_MEASURE_WITH_UNIT (LENGTH_MEASURE( 1.000000000000000082E-05 ), #142, 'distance_accuracy_value', 'NONE');
#732 = LINE ( 'NONE', #663, #487 ) ;
#733 = VECTOR ( 'NONE', #109, 1000.000000000000000 ) ;
#734 = FACE_OUTER_BOUND ( 'NONE', #531, .T. ) ;
#735 = ORIENTED_EDGE ( 'NONE', *, *, #298, .T. ) ;
#736 = DIRECTION ( 'NONE',  ( -0.000000000000000000, 1.000000000000000000, -0.000000000000000000 ) ) ;
#737 = DIRECTION ( 'NONE',  ( 1.000000000000000000, 0.000000000000000000, -1.387778780781445676E-16 ) ) ;
#738 = VERTEX_POINT ( 'NONE', #324 ) ;
#739 = DIRECTION ( 'NONE',  ( -0.000000000000000000, 1.000000000000000000, -0.000000000000000000 ) ) ;
#740 = ORIENTED_EDGE ( 'NONE', *, *, #139, .F. ) ;
#741 = CYLINDRICAL_SURFACE ( 'NONE', #717, 14.33027247669647863 ) ;
#742 = AXIS2_PLACEMENT_3D ( 'NONE', #398, #229, #629 ) ;
#743 = ORIENTED_EDGE ( 'NONE', *, *, #72, .T. ) ;
#744 = DIRECTION ( 'NONE',  ( 0.000000000000000000, 0.000000000000000000, 1.000000000000000000 ) ) ;
#745 = ORIENTED_EDGE ( 'NONE', *, *, #257, .T. ) ;
#746 = EDGE_LOOP ( 'NONE', ( #565, #556, #71, #707 ) ) ;
#747 = LINE ( 'NONE', #332, #84 ) ;
#748 = EDGE_CURVE ( 'NONE', #491, #17, #561, .T. ) ;
#749 = LINE ( 'NONE', #317, #45 ) ;
#750 = PLANE ( 'NONE',  #754 ) ;
#751 = DIRECTION ( 'NONE',  ( -1.000000000000000000, -0.000000000000000000, -0.000000000000000000 ) ) ;
#752 = EDGE_CURVE ( 'NONE', #210, #175, #573, .T. ) ;
#753 = AXIS2_PLACEMENT_3D ( 'NONE', #153, #455, #341 ) ;
#754 = AXIS2_PLACEMENT_3D ( 'NONE', #457, #699, #547 ) ;
#755 = CARTESIAN_POINT ( 'NONE',  ( -50.00000000000001421, 279.9999999999999432, -174.9999999999999432 ) ) ;
#756 = ORIENTED_EDGE ( 'NONE', *, *, #47, .T. ) ;
#757 = PLANE ( 'NONE',  #413 ) ;
#758 = CARTESIAN_POINT ( 'NONE',  ( 107.7636490247577683, 300.0000000000000000, 120.9474997033175470 ) ) ;
ENDSEC;
END-ISO-10303-21;
