ISO-10303-21;
HEADER;
FILE_DESCRIPTION (( 'STEP AP214' ),
    '1' );
FILE_NAME ('circular plate.STEP',
    '2024-02-07T08:05:57',
    ( '' ),
    ( '' ),
    'SwSTEP 2.0',
    'SolidWorks 2022',
    '' );
FILE_SCHEMA (( 'AUTOMOTIVE_DESIGN' ));
ENDSEC;

DATA;
#1 = ORIENTED_EDGE ( 'NONE', *, *, #96, .T. ) ;
#2 = DIRECTION ( 'NONE',  ( -0.000000000000000000, -1.000000000000000000, -0.000000000000000000 ) ) ;
#3 = FILL_AREA_STYLE ('',( #631 ) ) ;
#4 = FACE_OUTER_BOUND ( 'NONE', #605, .T. ) ;
#5 = VECTOR ( 'NONE', #767, 1000.000000000000000 ) ;
#6 = EDGE_CURVE ( 'NONE', #272, #90, #625, .T. ) ;
#7 = VECTOR ( 'NONE', #234, 1000.000000000000000 ) ;
#8 =( GEOMETRIC_REPRESENTATION_CONTEXT ( 3 ) GLOBAL_UNCERTAINTY_ASSIGNED_CONTEXT ( ( #49 ) ) GLOBAL_UNIT_ASSIGNED_CONTEXT ( ( #506, #624, #380 ) ) REPRESENTATION_CONTEXT ( 'NONE', 'WORKASPACE' ) );
#9 = VERTEX_POINT ( 'NONE', #567 ) ;
#10 = CARTESIAN_POINT ( 'NONE',  ( -103.0068824897355597, -20.00000000000000000, 37.86652769398438068 ) ) ;
#11 = CARTESIAN_POINT ( 'NONE',  ( 65.37660698650320512, 50.00000000000000000, -128.7532841728503001 ) ) ;
#12 = ORIENTED_EDGE ( 'NONE', *, *, #157, .T. ) ;
#13 = DIRECTION ( 'NONE',  ( 0.000000000000000000, 1.000000000000000000, 0.000000000000000000 ) ) ;
#14 = CARTESIAN_POINT ( 'NONE',  ( 103.0068824897368387, 0.000000000000000000, -37.86652769398192220 ) ) ;
#15 = EDGE_CURVE ( 'NONE', #59, #272, #557, .T. ) ;
#16 = EDGE_CURVE ( 'NONE', #773, #32, #734, .T. ) ;
#17 = DIRECTION ( 'NONE',  ( -0.000000000000000000, -1.000000000000000000, -0.000000000000000000 ) ) ;
#18 = LINE ( 'NONE', #684, #338 ) ;
#19 = CIRCLE ( 'NONE', #337, 15.01209672305890663 ) ;
#20 = DIRECTION ( 'NONE',  ( 0.000000000000000000, 0.000000000000000000, 1.000000000000000000 ) ) ;
#21 = DIRECTION ( 'NONE',  ( 0.000000000000000000, 0.000000000000000000, -1.000000000000000000 ) ) ;
#22 = CARTESIAN_POINT ( 'NONE',  ( 65.37660698650159929, 50.00000000000000000, 97.71792568132009649 ) ) ;
#23 = DIRECTION ( 'NONE',  ( -0.000000000000000000, -1.000000000000000000, -0.000000000000000000 ) ) ;
#24 = CARTESIAN_POINT ( 'NONE',  ( 22.85443097092743869, -20.00000000000000000, 103.0068824897390698 ) ) ;
#25 = MANIFOLD_SOLID_BREP ( 'Boss-Extrude3', #42 ) ;
#26 = DIRECTION ( 'NONE',  ( -0.000000000000000000, -1.000000000000000000, -0.000000000000000000 ) ) ;
#27 = ORIENTED_EDGE ( 'NONE', *, *, #404, .T. ) ;
#28 = CYLINDRICAL_SURFACE ( 'NONE', #692, 150.0000000000000284 ) ;
#29 = CIRCLE ( 'NONE', #480, 150.0000000000000284 ) ;
#30 = FACE_OUTER_BOUND ( 'NONE', #250, .T. ) ;
#31 = AXIS2_PLACEMENT_3D ( 'NONE', #634, #253, #84 ) ;
#32 = VERTEX_POINT ( 'NONE', #217 ) ;
#33 = CARTESIAN_POINT ( 'NONE',  ( 0.000000000000000000, 0.000000000000000000, 0.000000000000000000 ) ) ;
#34 = ORIENTED_EDGE ( 'NONE', *, *, #404, .F. ) ;
#35 = CARTESIAN_POINT ( 'NONE',  ( 0.000000000000000000, 0.000000000000000000, 0.000000000000000000 ) ) ;
#36 = EDGE_CURVE ( 'NONE', #613, #749, #383, .T. ) ;
#37 = DIRECTION ( 'NONE',  ( -0.000000000000000000, -1.000000000000000000, -0.000000000000000000 ) ) ;
#38 = VERTEX_POINT ( 'NONE', #643 ) ;
#39 = CARTESIAN_POINT ( 'NONE',  ( -130.7532139730053302, 50.00000000000000000, 0.000000000000000000 ) ) ;
#40 = DIRECTION ( 'NONE',  ( -0.000000000000000000, -1.000000000000000000, -0.000000000000000000 ) ) ;
#41 = FACE_OUTER_BOUND ( 'NONE', #348, .T. ) ;
#42 = CLOSED_SHELL ( 'NONE', ( #576, #222, #482, #379, #320, #126, #610, #54, #296, #683, #266, #696, #543, #491, #188, #389, #527, #663, #286, #674, #720, #740, #235, #615, #63, #416, #729 ) ) ;
#43 = ORIENTED_EDGE ( 'NONE', *, *, #464, .T. ) ;
#44 = AXIS2_PLACEMENT_3D ( 'NONE', #571, #747, #690 ) ;
#45 = AXIS2_PLACEMENT_3D ( 'NONE', #414, #657, #316 ) ;
#46 = CARTESIAN_POINT ( 'NONE',  ( 65.37660698650159929, 50.00000000000000000, 97.71792568132009649 ) ) ;
#47 = FACE_BOUND ( 'NONE', #483, .T. ) ;
#48 = ORIENTED_EDGE ( 'NONE', *, *, #202, .F. ) ;
#49 = UNCERTAINTY_MEASURE_WITH_UNIT (LENGTH_MEASURE( 1.000000000000000082E-05 ), #506, 'distance_accuracy_value', 'NONE');
#50 = DIRECTION ( 'NONE',  ( 0.000000000000000000, 0.000000000000000000, -1.000000000000000000 ) ) ;
#51 = CARTESIAN_POINT ( 'NONE',  ( 0.000000000000000000, 20.00000000000000000, -150.0000000000000284 ) ) ;
#52 = ORIENTED_EDGE ( 'NONE', *, *, #36, .F. ) ;
#53 = DIRECTION ( 'NONE',  ( -0.000000000000000000, -1.000000000000000000, -0.000000000000000000 ) ) ;
#54 = ADVANCED_FACE ( 'NONE', ( #288 ), #92, .F. ) ;
#55 = VERTEX_POINT ( 'NONE', #650 ) ;
#56 = DIRECTION ( 'NONE',  ( 0.000000000000000000, 1.000000000000000000, 0.000000000000000000 ) ) ;
#57 = VECTOR ( 'NONE', #162, 1000.000000000000000 ) ;
#58 = AXIS2_PLACEMENT_3D ( 'NONE', #460, #544, #153 ) ;
#59 = VERTEX_POINT ( 'NONE', #159 ) ;
#60 = CARTESIAN_POINT ( 'NONE',  ( 0.000000000000000000, 0.000000000000000000, 0.000000000000000000 ) ) ;
#61 = ORIENTED_EDGE ( 'NONE', *, *, #16, .F. ) ;
#62 = DIRECTION ( 'NONE',  ( 0.000000000000000000, -0.000000000000000000, 1.000000000000000000 ) ) ;
#63 = ADVANCED_FACE ( 'NONE', ( #101 ), #646, .T. ) ;
#64 = DIRECTION ( 'NONE',  ( -0.000000000000000000, 1.000000000000000000, -0.000000000000000000 ) ) ;
#65 = VERTEX_POINT ( 'NONE', #46 ) ;
#66 = CARTESIAN_POINT ( 'NONE',  ( 65.37660698650320512, 20.00000000000000000, -128.7532841728503001 ) ) ;
#67 = AXIS2_PLACEMENT_3D ( 'NONE', #604, #156, #772 ) ;
#68 = AXIS2_PLACEMENT_3D ( 'NONE', #393, #384, #742 ) ;
#69 = AXIS2_PLACEMENT_3D ( 'NONE', #135, #328, #149 ) ;
#70 = FILL_AREA_STYLE ('',( #191 ) ) ;
#71 = ORIENTED_EDGE ( 'NONE', *, *, #584, .F. ) ;
#72 = CYLINDRICAL_SURFACE ( 'NONE', #190, 15.51767924576555302 ) ;
#73 = EDGE_CURVE ( 'NONE', #658, #113, #756, .T. ) ;
#74 = ORIENTED_EDGE ( 'NONE', *, *, #322, .F. ) ;
#75 = CYLINDRICAL_SURFACE ( 'NONE', #549, 25.00000000000000000 ) ;
#76 = DIRECTION ( 'NONE',  ( -0.000000000000000000, 1.000000000000000000, -0.000000000000000000 ) ) ;
#77 = ORIENTED_EDGE ( 'NONE', *, *, #504, .T. ) ;
#78 = CARTESIAN_POINT ( 'NONE',  ( 0.000000000000000000, 20.00000000000000000, 0.000000000000000000 ) ) ;
#79 = PLANE ( 'NONE',  #583 ) ;
#80 = AXIS2_PLACEMENT_3D ( 'NONE', #428, #13, #499 ) ;
#81 = COLOUR_RGB ( '',0.7921568627450980005, 0.8196078431372548767, 0.9333333333333333481 ) ;
#82 = ORIENTED_EDGE ( 'NONE', *, *, #475, .T. ) ;
#83 = CARTESIAN_POINT ( 'NONE',  ( 103.0068824897368387, -20.00000000000000000, -7.842334247865912822 ) ) ;
#84 = DIRECTION ( 'NONE',  ( 0.000000000000000000, 0.000000000000000000, 1.000000000000000000 ) ) ;
#85 = ORIENTED_EDGE ( 'NONE', *, *, #119, .T. ) ;
#86 = EDGE_CURVE ( 'NONE', #374, #246, #279, .T. ) ;
#87 = DIRECTION ( 'NONE',  ( 0.000000000000000000, 0.000000000000000000, -1.000000000000000000 ) ) ;
#88 = ORIENTED_EDGE ( 'NONE', *, *, #268, .T. ) ;
#89 = DIRECTION ( 'NONE',  ( 0.000000000000000000, 0.000000000000000000, 1.000000000000000000 ) ) ;
#90 = VERTEX_POINT ( 'NONE', #710 ) ;
#91 = FACE_OUTER_BOUND ( 'NONE', #603, .T. ) ;
#92 = CYLINDRICAL_SURFACE ( 'NONE', #309, 25.00000000000000000 ) ;
#93 = CYLINDRICAL_SURFACE ( 'NONE', #58, 15.01209672305416021 ) ;
#94 = ORIENTED_EDGE ( 'NONE', *, *, #36, .T. ) ;
#95 = DIRECTION ( 'NONE',  ( 0.000000000000000000, -0.000000000000000000, -1.000000000000000000 ) ) ;
#96 = EDGE_CURVE ( 'NONE', #183, #637, #601, .T. ) ;
#97 = CARTESIAN_POINT ( 'NONE',  ( 65.37660698650320512, 50.00000000000000000, -128.7532841728503001 ) ) ;
#98 = VERTEX_POINT ( 'NONE', #412 ) ;
#99 = FACE_OUTER_BOUND ( 'NONE', #421, .T. ) ;
#100 = LINE ( 'NONE', #659, #5 ) ;
#101 = FACE_OUTER_BOUND ( 'NONE', #560, .T. ) ;
#102 = CARTESIAN_POINT ( 'NONE',  ( 0.000000000000000000, 0.000000000000000000, -29.72419459347686654 ) ) ;
#103 =( GEOMETRIC_REPRESENTATION_CONTEXT ( 3 ) GLOBAL_UNCERTAINTY_ASSIGNED_CONTEXT ( ( #287 ) ) GLOBAL_UNIT_ASSIGNED_CONTEXT ( ( #707, #112, #474 ) ) REPRESENTATION_CONTEXT ( 'NONE', 'WORKASPACE' ) );
#104 = ORIENTED_EDGE ( 'NONE', *, *, #566, .T. ) ;
#105 = AXIS2_PLACEMENT_3D ( 'NONE', #686, #697, #21 ) ;
#106 = PRESENTATION_LAYER_ASSIGNMENT (  '', '', ( #366 ) ) ;
#107 = FACE_OUTER_BOUND ( 'NONE', #172, .T. ) ;
#108 = DIRECTION ( 'NONE',  ( 0.000000000000000000, 1.000000000000000000, 0.000000000000000000 ) ) ;
#109 = ORIENTED_EDGE ( 'NONE', *, *, #86, .F. ) ;
#110 = DIRECTION ( 'NONE',  ( -0.000000000000000000, 1.000000000000000000, -0.000000000000000000 ) ) ;
#111 = EDGE_CURVE ( 'NONE', #303, #757, #569, .T. ) ;
#112 =( NAMED_UNIT ( * ) PLANE_ANGLE_UNIT ( ) SI_UNIT ( $, .RADIAN. ) );
#113 = VERTEX_POINT ( 'NONE', #390 ) ;
#114 = FACE_BOUND ( 'NONE', #700, .T. ) ;
#115 = EDGE_LOOP ( 'NONE', ( #34, #231 ) ) ;
#116 = DIRECTION ( 'NONE',  ( 0.000000000000000000, 0.000000000000000000, -1.000000000000000000 ) ) ;
#117 = STYLED_ITEM ( 'NONE', ( #542 ), #25 ) ;
#118 = AXIS2_PLACEMENT_3D ( 'NONE', #378, #449, #738 ) ;
#119 = EDGE_CURVE ( 'NONE', #38, #246, #413, .T. ) ;
#120 = EDGE_LOOP ( 'NONE', ( #360, #207 ) ) ;
#121 = CYLINDRICAL_SURFACE ( 'NONE', #715, 15.01209672305470910 ) ;
#122 = ORIENTED_EDGE ( 'NONE', *, *, #15, .F. ) ;
#123 = CARTESIAN_POINT ( 'NONE',  ( 65.37660698650320512, 50.00000000000000000, -113.2356049270847649 ) ) ;
#124 = ORIENTED_EDGE ( 'NONE', *, *, #612, .T. ) ;
#125 = FACE_OUTER_BOUND ( 'NONE', #201, .T. ) ;
#126 = ADVANCED_FACE ( 'NONE', ( #107 ), #448, .T. ) ;
#127 = AXIS2_PLACEMENT_3D ( 'NONE', #60, #232, #496 ) ;
#128 = AXIS2_PLACEMENT_3D ( 'NONE', #577, #26, #519 ) ;
#129 = MECHANICAL_DESIGN_GEOMETRIC_PRESENTATION_REPRESENTATION (  '', ( #366 ), #8 ) ;
#130 = PRESENTATION_STYLE_ASSIGNMENT (( #436 ) ) ;
#131 = ORIENTED_EDGE ( 'NONE', *, *, #249, .T. ) ;
#132 = CARTESIAN_POINT ( 'NONE',  ( -103.0068824897355597, -20.00000000000000000, 7.842334247874959807 ) ) ;
#133 = ORIENTED_EDGE ( 'NONE', *, *, #260, .F. ) ;
#134 = CARTESIAN_POINT ( 'NONE',  ( 65.37660698650159929, 50.00000000000000000, 128.7532841728512096 ) ) ;
#135 = CARTESIAN_POINT ( 'NONE',  ( -103.0068824897355597, -20.00000000000000000, 22.85443097092967335 ) ) ;
#136 = CARTESIAN_POINT ( 'NONE',  ( -130.7532139730053302, 50.00000000000000000, 15.51767924576556013 ) ) ;
#137 = DIRECTION ( 'NONE',  ( 0.000000000000000000, -1.000000000000000000, 0.000000000000000000 ) ) ;
#138 = PLANE ( 'NONE',  #69 ) ;
#139 = VECTOR ( 'NONE', #317, 1000.000000000000000 ) ;
#140 = CIRCLE ( 'NONE', #118, 15.01209672305416021 ) ;
#141 = DIRECTION ( 'NONE',  ( 0.000000000000000000, 1.000000000000000000, 0.000000000000000000 ) ) ;
#142 = DIRECTION ( 'NONE',  ( 0.000000000000000000, 0.000000000000000000, 1.000000000000000000 ) ) ;
#143 = ORIENTED_EDGE ( 'NONE', *, *, #182, .F. ) ;
#144 = DIRECTION ( 'NONE',  ( -0.000000000000000000, -1.000000000000000000, -0.000000000000000000 ) ) ;
#145 = CARTESIAN_POINT ( 'NONE',  ( -130.7532139730053302, 50.00000000000000000, 0.000000000000000000 ) ) ;
#146 = ORIENTED_EDGE ( 'NONE', *, *, #249, .F. ) ;
#147 = CARTESIAN_POINT ( 'NONE',  ( 65.37660698650159929, 50.00000000000000000, 113.2356049270856460 ) ) ;
#148 = ORIENTED_EDGE ( 'NONE', *, *, #322, .T. ) ;
#149 = DIRECTION ( 'NONE',  ( 0.000000000000000000, -0.000000000000000000, -1.000000000000000000 ) ) ;
#150 = EDGE_CURVE ( 'NONE', #374, #540, #688, .T. ) ;
#151 = EDGE_CURVE ( 'NONE', #233, #65, #254, .T. ) ;
#152 = CIRCLE ( 'NONE', #533, 15.51767924576556013 ) ;
#153 = DIRECTION ( 'NONE',  ( 0.000000000000000000, 0.000000000000000000, 1.000000000000000000 ) ) ;
#154 = VECTOR ( 'NONE', #536, 1000.000000000000000 ) ;
#155 = ORIENTED_EDGE ( 'NONE', *, *, #525, .T. ) ;
#156 = DIRECTION ( 'NONE',  ( 0.000000000000000000, -1.000000000000000000, 0.000000000000000000 ) ) ;
#157 = EDGE_CURVE ( 'NONE', #32, #773, #465, .T. ) ;
#158 = UNCERTAINTY_MEASURE_WITH_UNIT (LENGTH_MEASURE( 1.000000000000000082E-05 ), #558, 'distance_accuracy_value', 'NONE');
#159 = CARTESIAN_POINT ( 'NONE',  ( -130.7532139730053302, 50.00000000000000000, -15.51767924576556013 ) ) ;
#160 = CARTESIAN_POINT ( 'NONE',  ( -103.0068824897355597, -20.00000000000000000, 22.85443097092967335 ) ) ;
#161 = ORIENTED_EDGE ( 'NONE', *, *, #454, .F. ) ;
#162 = DIRECTION ( 'NONE',  ( -0.000000000000000000, -1.000000000000000000, -0.000000000000000000 ) ) ;
#163 = CARTESIAN_POINT ( 'NONE',  ( 0.000000000000000000, 20.00000000000000000, -4.724194593476865656 ) ) ;
#164 = FACE_BOUND ( 'NONE', #618, .T. ) ;
#165 = ORIENTED_EDGE ( 'NONE', *, *, #525, .F. ) ;
#166 = CARTESIAN_POINT ( 'NONE',  ( -103.0068824897355597, -20.00000000000000000, 37.86652769398438068 ) ) ;
#167 = DIRECTION ( 'NONE',  ( 0.000000000000000000, 0.000000000000000000, -1.000000000000000000 ) ) ;
#168 = CIRCLE ( 'NONE', #621, 15.51767924576556723 ) ;
#169 = ORIENTED_EDGE ( 'NONE', *, *, #419, .T. ) ;
#170 = AXIS2_PLACEMENT_3D ( 'NONE', #78, #508, #263 ) ;
#171 = ORIENTED_EDGE ( 'NONE', *, *, #16, .T. ) ;
#172 = EDGE_LOOP ( 'NONE', ( #373, #665, #381, #532 ) ) ;
#173 = DIRECTION ( 'NONE',  ( 0.000000000000000000, 0.000000000000000000, 1.000000000000000000 ) ) ;
#174 = EDGE_CURVE ( 'NONE', #9, #394, #509, .T. ) ;
#175 = EDGE_CURVE ( 'NONE', #434, #706, #100, .T. ) ;
#176 = ORIENTED_EDGE ( 'NONE', *, *, #359, .T. ) ;
#177 = DIRECTION ( 'NONE',  ( 0.000000000000000000, 0.000000000000000000, -1.000000000000000000 ) ) ;
#178 = AXIS2_PLACEMENT_3D ( 'NONE', #180, #722, #116 ) ;
#179 = ORIENTED_EDGE ( 'NONE', *, *, #182, .T. ) ;
#180 = CARTESIAN_POINT ( 'NONE',  ( -22.85443097092614551, -20.00000000000000000, -103.0068824897333286 ) ) ;
#181 = CARTESIAN_POINT ( 'NONE',  ( 1.836970198721030062E-14, 20.00000000000000000, 150.0000000000000284 ) ) ;
#182 = EDGE_CURVE ( 'NONE', #670, #90, #297, .T. ) ;
#183 = VERTEX_POINT ( 'NONE', #703 ) ;
#184 = CARTESIAN_POINT ( 'NONE',  ( 65.37660698650159929, 50.00000000000000000, 113.2356049270856460 ) ) ;
#185 = APPLICATION_PROTOCOL_DEFINITION ( 'draft international standard', 'automotive_design', 1998, #385 ) ;
#186 = EDGE_LOOP ( 'NONE', ( #514, #131, #284, #444 ) ) ;
#187 = DIRECTION ( 'NONE',  ( 0.000000000000000000, 1.000000000000000000, 0.000000000000000000 ) ) ;
#188 = ADVANCED_FACE ( 'NONE', ( #529 ), #402, .T. ) ;
#189 = AXIS2_PLACEMENT_3D ( 'NONE', #574, #23, #689 ) ;
#190 = AXIS2_PLACEMENT_3D ( 'NONE', #123, #619, #315 ) ;
#191 = FILL_AREA_STYLE_COLOUR ( '', #81 ) ;
#192 = ORIENTED_EDGE ( 'NONE', *, *, #745, .F. ) ;
#193 = CYLINDRICAL_SURFACE ( 'NONE', #704, 15.01209672305416021 ) ;
#194 = CARTESIAN_POINT ( 'NONE',  ( 103.0068824897368387, 0.000000000000000000, -22.85443097092391795 ) ) ;
#195 = CARTESIAN_POINT ( 'NONE',  ( -22.85443097092614551, -20.00000000000000000, -103.0068824897333286 ) ) ;
#196 = DIRECTION ( 'NONE',  ( 0.000000000000000000, -1.000000000000000000, 0.000000000000000000 ) ) ;
#197 = CYLINDRICAL_SURFACE ( 'NONE', #572, 15.51767924576556013 ) ;
#198 = DIRECTION ( 'NONE',  ( -0.000000000000000000, -1.000000000000000000, -0.000000000000000000 ) ) ;
#199 = AXIS2_PLACEMENT_3D ( 'NONE', #258, #137, #391 ) ;
#200 = CARTESIAN_POINT ( 'NONE',  ( 22.85443097092743869, -20.00000000000000000, 103.0068824897390698 ) ) ;
#201 = EDGE_LOOP ( 'NONE', ( #590, #578, #685, #461 ) ) ;
#202 = EDGE_CURVE ( 'NONE', #55, #706, #398, .T. ) ;
#203 = DIRECTION ( 'NONE',  ( 0.000000000000000000, 1.000000000000000000, 0.000000000000000000 ) ) ;
#204 = EDGE_CURVE ( 'NONE', #762, #431, #473, .T. ) ;
#205 = EDGE_LOOP ( 'NONE', ( #169, #648 ) ) ;
#206 = CARTESIAN_POINT ( 'NONE',  ( 22.85443097092743869, 0.000000000000000000, 103.0068824897390698 ) ) ;
#207 = ORIENTED_EDGE ( 'NONE', *, *, #638, .F. ) ;
#208 = DIRECTION ( 'NONE',  ( 0.000000000000000000, 0.000000000000000000, 1.000000000000000000 ) ) ;
#209 = LINE ( 'NONE', #22, #522 ) ;
#210 = EDGE_CURVE ( 'NONE', #303, #771, #649, .T. ) ;
#211 = DIRECTION ( 'NONE',  ( 0.000000000000000000, 0.000000000000000000, 1.000000000000000000 ) ) ;
#212 = CIRCLE ( 'NONE', #691, 25.00000000000000000 ) ;
#213 = FACE_OUTER_BOUND ( 'NONE', #270, .T. ) ;
#214 = AXIS2_PLACEMENT_3D ( 'NONE', #147, #218, #752 ) ;
#215 = ORIENTED_EDGE ( 'NONE', *, *, #332, .F. ) ;
#216 = CARTESIAN_POINT ( 'NONE',  ( 22.85443097092743869, 0.000000000000000000, 103.0068824897390698 ) ) ;
#217 = CARTESIAN_POINT ( 'NONE',  ( 103.0068824897368387, 0.000000000000000000, -7.842334247865912822 ) ) ;
#218 = DIRECTION ( 'NONE',  ( -0.000000000000000000, -1.000000000000000000, -0.000000000000000000 ) ) ;
#219 = ORIENTED_EDGE ( 'NONE', *, *, #150, .T. ) ;
#220 = DIRECTION ( 'NONE',  ( 0.000000000000000000, 1.000000000000000000, 0.000000000000000000 ) ) ;
#221 = CARTESIAN_POINT ( 'NONE',  ( 65.37660698650159929, 20.00000000000000000, 113.2356049270856460 ) ) ;
#222 = ADVANCED_FACE ( 'NONE', ( #99 ), #285, .T. ) ;
#223 = PLANE ( 'NONE',  #45 ) ;
#224 = ORIENTED_EDGE ( 'NONE', *, *, #664, .F. ) ;
#225 = CARTESIAN_POINT ( 'NONE',  ( 0.000000000000000000, 20.00000000000000000, -29.72419459347686654 ) ) ;
#226 = AXIS2_PLACEMENT_3D ( 'NONE', #302, #236, #608 ) ;
#227 = ORIENTED_EDGE ( 'NONE', *, *, #716, .T. ) ;
#228 = AXIS2_PLACEMENT_3D ( 'NONE', #750, #203, #679 ) ;
#229 = CARTESIAN_POINT ( 'NONE',  ( 65.37660698650320512, 50.00000000000000000, -97.71792568131918699 ) ) ;
#230 = EDGE_CURVE ( 'NONE', #90, #670, #152, .T. ) ;
#231 = ORIENTED_EDGE ( 'NONE', *, *, #73, .F. ) ;
#232 = DIRECTION ( 'NONE',  ( 0.000000000000000000, 1.000000000000000000, 0.000000000000000000 ) ) ;
#233 = VERTEX_POINT ( 'NONE', #411 ) ;
#234 = DIRECTION ( 'NONE',  ( -0.000000000000000000, 1.000000000000000000, -0.000000000000000000 ) ) ;
#235 = ADVANCED_FACE ( 'NONE', ( #358 ), #418, .T. ) ;
#236 = DIRECTION ( 'NONE',  ( 0.000000000000000000, -1.000000000000000000, 0.000000000000000000 ) ) ;
#237 = ORIENTED_EDGE ( 'NONE', *, *, #73, .T. ) ;
#238 = FACE_OUTER_BOUND ( 'NONE', #426, .T. ) ;
#239 = AXIS2_PLACEMENT_3D ( 'NONE', #660, #261, #530 ) ;
#240 = AXIS2_PLACEMENT_3D ( 'NONE', #184, #606, #505 ) ;
#241 = VECTOR ( 'NONE', #144, 1000.000000000000000 ) ;
#242 = EDGE_CURVE ( 'NONE', #757, #303, #168, .T. ) ;
#243 = VECTOR ( 'NONE', #403, 1000.000000000000000 ) ;
#244 = APPLICATION_CONTEXT ( 'automotive_design' ) ;
#245 = APPLICATION_PROTOCOL_DEFINITION ( 'draft international standard', 'automotive_design', 1998, #244 ) ;
#246 = VERTEX_POINT ( 'NONE', #719 ) ;
#247 = FACE_BOUND ( 'NONE', #599, .T. ) ;
#248 = CARTESIAN_POINT ( 'NONE',  ( 22.85443097092743869, -20.00000000000000000, 103.0068824897390698 ) ) ;
#249 = EDGE_CURVE ( 'NONE', #553, #55, #422, .T. ) ;
#250 = EDGE_LOOP ( 'NONE', ( #377, #537 ) ) ;
#251 = DIRECTION ( 'NONE',  ( 0.000000000000000000, 1.000000000000000000, 0.000000000000000000 ) ) ;
#252 = DIRECTION ( 'NONE',  ( 0.000000000000000000, 1.000000000000000000, 0.000000000000000000 ) ) ;
#253 = DIRECTION ( 'NONE',  ( 0.000000000000000000, 1.000000000000000000, 0.000000000000000000 ) ) ;
#254 = CIRCLE ( 'NONE', #376, 15.51767924576555302 ) ;
#255 = AXIS2_PLACEMENT_3D ( 'NONE', #666, #728, #177 ) ;
#256 = DIRECTION ( 'NONE',  ( 0.000000000000000000, 1.000000000000000000, 0.000000000000000000 ) ) ;
#257 = EDGE_LOOP ( 'NONE', ( #165, #645 ) ) ;
#258 = CARTESIAN_POINT ( 'NONE',  ( 103.0068824897368387, -20.00000000000000000, -22.85443097092391795 ) ) ;
#259 = DIRECTION ( 'NONE',  ( -0.000000000000000000, -1.000000000000000000, -0.000000000000000000 ) ) ;
#260 = EDGE_CURVE ( 'NONE', #555, #749, #29, .T. ) ;
#261 = DIRECTION ( 'NONE',  ( 0.000000000000000000, 1.000000000000000000, 0.000000000000000000 ) ) ;
#262 = DIRECTION ( 'NONE',  ( 0.000000000000000000, -1.000000000000000000, 0.000000000000000000 ) ) ;
#263 = DIRECTION ( 'NONE',  ( 0.000000000000000000, 0.000000000000000000, 1.000000000000000000 ) ) ;
#264 = ORIENTED_EDGE ( 'NONE', *, *, #230, .T. ) ;
#265 = LINE ( 'NONE', #463, #241 ) ;
#266 = ADVANCED_FACE ( 'NONE', ( #299, #247, #114, #551, #432, #375 ), #774, .F. ) ;
#267 = AXIS2_PLACEMENT_3D ( 'NONE', #200, #323, #333 ) ;
#268 = EDGE_CURVE ( 'NONE', #59, #670, #424, .T. ) ;
#269 = PLANE ( 'NONE',  #228 ) ;
#270 = EDGE_LOOP ( 'NONE', ( #732, #680, #334, #27 ) ) ;
#271 = CARTESIAN_POINT ( 'NONE',  ( 65.37660698650320512, 20.00000000000000000, -113.2356049270847649 ) ) ;
#272 = VERTEX_POINT ( 'NONE', #361 ) ;
#273 = DIRECTION ( 'NONE',  ( 0.000000000000000000, 1.000000000000000000, 0.000000000000000000 ) ) ;
#274 = CARTESIAN_POINT ( 'NONE',  ( 0.000000000000000000, 20.00000000000000000, 0.000000000000000000 ) ) ;
#275 = DIRECTION ( 'NONE',  ( 0.000000000000000000, 0.000000000000000000, 1.000000000000000000 ) ) ;
#276 = DIRECTION ( 'NONE',  ( -0.000000000000000000, -1.000000000000000000, -0.000000000000000000 ) ) ;
#277 = ORIENTED_EDGE ( 'NONE', *, *, #745, .T. ) ;
#278 = DIRECTION ( 'NONE',  ( 0.000000000000000000, -0.000000000000000000, 1.000000000000000000 ) ) ;
#279 = LINE ( 'NONE', #166, #746 ) ;
#280 = AXIS2_PLACEMENT_3D ( 'NONE', #39, #759, #278 ) ;
#281 = AXIS2_PLACEMENT_3D ( 'NONE', #490, #438, #561 ) ;
#282 = DIRECTION ( 'NONE',  ( 0.000000000000000000, 0.000000000000000000, 1.000000000000000000 ) ) ;
#283 = AXIS2_PLACEMENT_3D ( 'NONE', #160, #339, #585 ) ;
#284 = ORIENTED_EDGE ( 'NONE', *, *, #202, .T. ) ;
#285 = CYLINDRICAL_SURFACE ( 'NONE', #353, 15.01209672305800602 ) ;
#286 = ADVANCED_FACE ( 'NONE', ( #724 ), #733, .T. ) ;
#287 = UNCERTAINTY_MEASURE_WITH_UNIT (LENGTH_MEASURE( 1.000000000000000082E-05 ), #707, 'distance_accuracy_value', 'NONE');
#288 = FACE_OUTER_BOUND ( 'NONE', #298, .T. ) ;
#289 = FACE_OUTER_BOUND ( 'NONE', #528, .T. ) ;
#290 = ORIENTED_EDGE ( 'NONE', *, *, #566, .F. ) ;
#291 = CARTESIAN_POINT ( 'NONE',  ( 3.061616997868383043E-15, 20.00000000000000000, 20.27580540652313701 ) ) ;
#292 = CARTESIAN_POINT ( 'NONE',  ( 103.0068824897368387, 0.000000000000000000, -22.85443097092391795 ) ) ;
#293 = DIRECTION ( 'NONE',  ( -0.000000000000000000, -1.000000000000000000, -0.000000000000000000 ) ) ;
#294 = VERTEX_POINT ( 'NONE', #66 ) ;
#295 = DIRECTION ( 'NONE',  ( 0.000000000000000000, 0.000000000000000000, 1.000000000000000000 ) ) ;
#296 = ADVANCED_FACE ( 'NONE', ( #238 ), #673, .T. ) ;
#297 = CIRCLE ( 'NONE', #451, 15.51767924576556013 ) ;
#298 = EDGE_LOOP ( 'NONE', ( #277, #712, #406, #340 ) ) ;
#299 = FACE_BOUND ( 'NONE', #120, .T. ) ;
#300 = ORIENTED_EDGE ( 'NONE', *, *, #454, .T. ) ;
#301 = CARTESIAN_POINT ( 'NONE',  ( 65.37660698650159929, 50.00000000000000000, 113.2356049270856460 ) ) ;
#302 = CARTESIAN_POINT ( 'NONE',  ( -22.85443097092614551, -20.00000000000000000, -103.0068824897333286 ) ) ;
#303 = VERTEX_POINT ( 'NONE', #308 ) ;
#304 = DIRECTION ( 'NONE',  ( 0.000000000000000000, 0.000000000000000000, 1.000000000000000000 ) ) ;
#305 = ADVANCED_BREP_SHAPE_REPRESENTATION ( 'circular plate', ( #25, #678 ), #415 ) ;
#306 =( NAMED_UNIT ( * ) PLANE_ANGLE_UNIT ( ) SI_UNIT ( $, .RADIAN. ) );
#307 = ORIENTED_EDGE ( 'NONE', *, *, #770, .F. ) ;
#308 = CARTESIAN_POINT ( 'NONE',  ( 65.37660698650320512, 50.00000000000000000, -97.71792568131918699 ) ) ;
#309 = AXIS2_PLACEMENT_3D ( 'NONE', #163, #408, #768 ) ;
#310 = CIRCLE ( 'NONE', #178, 15.01209672305416021 ) ;
#311 = AXIS2_PLACEMENT_3D ( 'NONE', #501, #256, #429 ) ;
#312 = PRODUCT_DEFINITION ( 'UNKNOWN', '', #453, #541 ) ;
#313 = SURFACE_STYLE_FILL_AREA ( #70 ) ;
#314 = ORIENTED_EDGE ( 'NONE', *, *, #174, .F. ) ;
#315 = DIRECTION ( 'NONE',  ( 0.000000000000000000, 0.000000000000000000, -1.000000000000000000 ) ) ;
#316 = DIRECTION ( 'NONE',  ( 0.000000000000000000, -0.000000000000000000, 1.000000000000000000 ) ) ;
#317 = DIRECTION ( 'NONE',  ( -0.000000000000000000, -1.000000000000000000, -0.000000000000000000 ) ) ;
#318 = CARTESIAN_POINT ( 'NONE',  ( 0.000000000000000000, 20.00000000000000000, -4.724194593476865656 ) ) ;
#319 =( NAMED_UNIT ( * ) SI_UNIT ( $, .STERADIAN. ) SOLID_ANGLE_UNIT ( ) );
#320 = ADVANCED_FACE ( 'NONE', ( #4 ), #488, .T. ) ;
#321 = ORIENTED_EDGE ( 'NONE', *, *, #204, .F. ) ;
#322 = EDGE_CURVE ( 'NONE', #762, #183, #481, .T. ) ;
#323 = DIRECTION ( 'NONE',  ( 0.000000000000000000, -1.000000000000000000, 0.000000000000000000 ) ) ;
#324 = PRESENTATION_LAYER_ASSIGNMENT (  '', '', ( #117 ) ) ;
#325 = CIRCLE ( 'NONE', #44, 150.0000000000000284 ) ;
#326 = ORIENTED_EDGE ( 'NONE', *, *, #600, .T. ) ;
#327 = CARTESIAN_POINT ( 'NONE',  ( 3.061616997868383043E-15, 0.000000000000000000, 20.27580540652313701 ) ) ;
#328 = DIRECTION ( 'NONE',  ( 0.000000000000000000, -1.000000000000000000, 0.000000000000000000 ) ) ;
#329 = CARTESIAN_POINT ( 'NONE',  ( 65.37660698650320512, 20.00000000000000000, -113.2356049270847649 ) ) ;
#330 = ORIENTED_EDGE ( 'NONE', *, *, #600, .F. ) ;
#331 = FACE_OUTER_BOUND ( 'NONE', #550, .T. ) ;
#332 = EDGE_CURVE ( 'NONE', #394, #9, #310, .T. ) ;
#333 = DIRECTION ( 'NONE',  ( 0.000000000000000000, 0.000000000000000000, -1.000000000000000000 ) ) ;
#334 = ORIENTED_EDGE ( 'NONE', *, *, #739, .T. ) ;
#335 = VECTOR ( 'NONE', #478, 1000.000000000000000 ) ;
#336 = EDGE_CURVE ( 'NONE', #431, #637, #212, .T. ) ;
#337 = AXIS2_PLACEMENT_3D ( 'NONE', #24, #262, #628 ) ;
#338 = VECTOR ( 'NONE', #484, 1000.000000000000000 ) ;
#339 = DIRECTION ( 'NONE',  ( -0.000000000000000000, 1.000000000000000000, -0.000000000000000000 ) ) ;
#340 = ORIENTED_EDGE ( 'NONE', *, *, #96, .F. ) ;
#341 = DIRECTION ( 'NONE',  ( -0.000000000000000000, 1.000000000000000000, -0.000000000000000000 ) ) ;
#342 = DIRECTION ( 'NONE',  ( 0.000000000000000000, -1.000000000000000000, 0.000000000000000000 ) ) ;
#343 = DIRECTION ( 'NONE',  ( -0.000000000000000000, 1.000000000000000000, -0.000000000000000000 ) ) ;
#344 = VERTEX_POINT ( 'NONE', #614 ) ;
#345 = DIRECTION ( 'NONE',  ( 0.000000000000000000, 1.000000000000000000, 0.000000000000000000 ) ) ;
#346 = DIRECTION ( 'NONE',  ( 0.000000000000000000, 1.000000000000000000, 0.000000000000000000 ) ) ;
#347 = EDGE_CURVE ( 'NONE', #65, #233, #521, .T. ) ;
#348 = EDGE_LOOP ( 'NONE', ( #698, #721, #563, #155 ) ) ;
#349 = CARTESIAN_POINT ( 'NONE',  ( 103.0068824897368387, -20.00000000000000000, -22.85443097092391795 ) ) ;
#350 = AXIS2_PLACEMENT_3D ( 'NONE', #479, #40, #656 ) ;
#351 = AXIS2_PLACEMENT_3D ( 'NONE', #329, #632, #455 ) ;
#352 = DIRECTION ( 'NONE',  ( 0.000000000000000000, 0.000000000000000000, -1.000000000000000000 ) ) ;
#353 = AXIS2_PLACEMENT_3D ( 'NONE', #594, #110, #538 ) ;
#354 = ORIENTED_EDGE ( 'NONE', *, *, #151, .F. ) ;
#355 = CARTESIAN_POINT ( 'NONE',  ( 65.37660698650159929, 50.00000000000000000, 113.2356049270856460 ) ) ;
#356 = LINE ( 'NONE', #476, #154 ) ;
#357 = ORIENTED_EDGE ( 'NONE', *, *, #760, .F. ) ;
#358 = FACE_OUTER_BOUND ( 'NONE', #205, .T. ) ;
#359 = EDGE_CURVE ( 'NONE', #540, #38, #617, .T. ) ;
#360 = ORIENTED_EDGE ( 'NONE', *, *, #464, .F. ) ;
#361 = CARTESIAN_POINT ( 'NONE',  ( -130.7532139730053302, 50.00000000000000000, 15.51767924576556013 ) ) ;
#362 = AXIS2_PLACEMENT_3D ( 'NONE', #33, #108, #644 ) ;
#363 = EDGE_LOOP ( 'NONE', ( #627, #616 ) ) ;
#364 = CIRCLE ( 'NONE', #351, 15.51767924576556723 ) ;
#365 = DIRECTION ( 'NONE',  ( 0.000000000000000000, 0.000000000000000000, 1.000000000000000000 ) ) ;
#366 = STYLED_ITEM ( 'NONE', ( #130 ), #305 ) ;
#367 = EDGE_LOOP ( 'NONE', ( #71, #176, #85, #109 ) ) ;
#368 = CARTESIAN_POINT ( 'NONE',  ( -103.0068824897355597, -20.00000000000000000, 22.85443097092967335 ) ) ;
#369 = CARTESIAN_POINT ( 'NONE',  ( 103.0068824897368387, -20.00000000000000000, -7.842334247865912822 ) ) ;
#370 = ORIENTED_EDGE ( 'NONE', *, *, #419, .F. ) ;
#371 = CARTESIAN_POINT ( 'NONE',  ( 65.37660698650159929, 50.00000000000000000, 113.2356049270856460 ) ) ;
#372 = EDGE_CURVE ( 'NONE', #272, #59, #633, .T. ) ;
#373 = ORIENTED_EDGE ( 'NONE', *, *, #111, .F. ) ;
#374 = VERTEX_POINT ( 'NONE', #10 ) ;
#375 = FACE_BOUND ( 'NONE', #620, .T. ) ;
#376 = AXIS2_PLACEMENT_3D ( 'NONE', #355, #141, #275 ) ;
#377 = ORIENTED_EDGE ( 'NONE', *, *, #242, .T. ) ;
#378 = CARTESIAN_POINT ( 'NONE',  ( -22.85443097092614551, 0.000000000000000000, -103.0068824897333286 ) ) ;
#379 = ADVANCED_FACE ( 'NONE', ( #669 ), #121, .T. ) ;
#380 =( NAMED_UNIT ( * ) SI_UNIT ( $, .STERADIAN. ) SOLID_ANGLE_UNIT ( ) );
#381 = ORIENTED_EDGE ( 'NONE', *, *, #440, .T. ) ;
#382 = DIRECTION ( 'NONE',  ( -0.000000000000000000, -1.000000000000000000, -0.000000000000000000 ) ) ;
#383 = LINE ( 'NONE', #420, #243 ) ;
#384 = DIRECTION ( 'NONE',  ( -0.000000000000000000, 1.000000000000000000, -0.000000000000000000 ) ) ;
#385 = APPLICATION_CONTEXT ( 'automotive_design' ) ;
#386 = AXIS2_PLACEMENT_3D ( 'NONE', #349, #764, #95 ) ;
#387 = CIRCLE ( 'NONE', #676, 15.51767924576555302 ) ;
#388 = AXIS2_PLACEMENT_3D ( 'NONE', #755, #769, #598 ) ;
#389 = ADVANCED_FACE ( 'NONE', ( #125 ), #72, .T. ) ;
#390 = CARTESIAN_POINT ( 'NONE',  ( 65.37660698650159929, 20.00000000000000000, 97.71792568132009649 ) ) ;
#391 = DIRECTION ( 'NONE',  ( 0.000000000000000000, 0.000000000000000000, -1.000000000000000000 ) ) ;
#392 = ORIENTED_EDGE ( 'NONE', *, *, #174, .T. ) ;
#393 = CARTESIAN_POINT ( 'NONE',  ( 22.85443097092743869, -20.00000000000000000, 103.0068824897390698 ) ) ;
#394 = VERTEX_POINT ( 'NONE', #564 ) ;
#395 = CARTESIAN_POINT ( 'NONE',  ( 22.85443097092743869, 0.000000000000000000, 118.0189792127979871 ) ) ;
#396 = CARTESIAN_POINT ( 'NONE',  ( -22.85443097092614551, -20.00000000000000000, -87.99478576667917196 ) ) ;
#397 = EDGE_LOOP ( 'NONE', ( #192, #74 ) ) ;
#398 = CIRCLE ( 'NONE', #675, 15.01209672305890663 ) ;
#399 = CIRCLE ( 'NONE', #128, 15.01209672305470910 ) ;
#400 = CYLINDRICAL_SURFACE ( 'NONE', #283, 15.01209672305470910 ) ;
#401 = ORIENTED_EDGE ( 'NONE', *, *, #466, .T. ) ;
#402 = PLANE ( 'NONE',  #280 ) ;
#403 = DIRECTION ( 'NONE',  ( -0.000000000000000000, -1.000000000000000000, -0.000000000000000000 ) ) ;
#404 = EDGE_CURVE ( 'NONE', #113, #658, #387, .T. ) ;
#405 = CARTESIAN_POINT ( 'NONE',  ( 1.836970198721030062E-14, 0.000000000000000000, 150.0000000000000284 ) ) ;
#406 = ORIENTED_EDGE ( 'NONE', *, *, #510, .F. ) ;
#407 = DIRECTION ( 'NONE',  ( 0.000000000000000000, 0.000000000000000000, 1.000000000000000000 ) ) ;
#408 = DIRECTION ( 'NONE',  ( -0.000000000000000000, -1.000000000000000000, -0.000000000000000000 ) ) ;
#409 = CARTESIAN_POINT ( 'NONE',  ( -103.0068824897355597, -20.00000000000000000, 22.85443097092967335 ) ) ;
#410 = ORIENTED_EDGE ( 'NONE', *, *, #6, .T. ) ;
#411 = CARTESIAN_POINT ( 'NONE',  ( 65.37660698650159929, 50.00000000000000000, 128.7532841728512096 ) ) ;
#412 = CARTESIAN_POINT ( 'NONE',  ( 103.0068824897368387, -20.00000000000000000, -37.86652769398192220 ) ) ;
#413 = CIRCLE ( 'NONE', #350, 15.01209672305470910 ) ;
#414 = CARTESIAN_POINT ( 'NONE',  ( 0.000000000000000000, 20.00000000000000000, 0.000000000000000000 ) ) ;
#415 =( GEOMETRIC_REPRESENTATION_CONTEXT ( 3 ) GLOBAL_UNCERTAINTY_ASSIGNED_CONTEXT ( ( #158 ) ) GLOBAL_UNIT_ASSIGNED_CONTEXT ( ( #558, #306, #319 ) ) REPRESENTATION_CONTEXT ( 'NONE', 'WORKASPACE' ) );
#416 = ADVANCED_FACE ( 'NONE', ( #744 ), #193, .T. ) ;
#417 = ORIENTED_EDGE ( 'NONE', *, *, #612, .F. ) ;
#418 = PLANE ( 'NONE',  #67 ) ;
#419 = EDGE_CURVE ( 'NONE', #434, #553, #452, .T. ) ;
#420 = CARTESIAN_POINT ( 'NONE',  ( 0.000000000000000000, 20.00000000000000000, -150.0000000000000284 ) ) ;
#421 = EDGE_LOOP ( 'NONE', ( #161, #751, #171, #357 ) ) ;
#422 = LINE ( 'NONE', #662, #714 ) ;
#423 = EDGE_LOOP ( 'NONE', ( #215, #326, #520, #224 ) ) ;
#424 = LINE ( 'NONE', #556, #609 ) ;
#425 = CIRCLE ( 'NONE', #388, 15.01209672305416021 ) ;
#426 = EDGE_LOOP ( 'NONE', ( #652, #227, #730, #52 ) ) ;
#427 = VECTOR ( 'NONE', #539, 1000.000000000000000 ) ;
#428 = CARTESIAN_POINT ( 'NONE',  ( -130.7532139730053302, 50.00000000000000000, 0.000000000000000000 ) ) ;
#429 = DIRECTION ( 'NONE',  ( 0.000000000000000000, 0.000000000000000000, 1.000000000000000000 ) ) ;
#430 = PRODUCT_RELATED_PRODUCT_CATEGORY ( 'part', '', ( #607 ) ) ;
#431 = VERTEX_POINT ( 'NONE', #327 ) ;
#432 = FACE_OUTER_BOUND ( 'NONE', #766, .T. ) ;
#433 = LINE ( 'NONE', #369, #495 ) ;
#434 = VERTEX_POINT ( 'NONE', #447 ) ;
#435 = CARTESIAN_POINT ( 'NONE',  ( 0.000000000000000000, 0.000000000000000000, -4.724194593476865656 ) ) ;
#436 = SURFACE_STYLE_USAGE ( .BOTH. , #562 ) ;
#437 = VERTEX_POINT ( 'NONE', #445 ) ;
#438 = DIRECTION ( 'NONE',  ( 0.000000000000000000, 1.000000000000000000, 0.000000000000000000 ) ) ;
#439 = MECHANICAL_DESIGN_GEOMETRIC_PRESENTATION_REPRESENTATION (  '', ( #117 ), #103 ) ;
#440 = EDGE_CURVE ( 'NONE', #771, #294, #364, .T. ) ;
#441 = VECTOR ( 'NONE', #293, 1000.000000000000000 ) ;
#442 = EDGE_CURVE ( 'NONE', #613, #741, #325, .T. ) ;
#443 = CARTESIAN_POINT ( 'NONE',  ( 3.061616997868383043E-15, 20.00000000000000000, 20.27580540652313701 ) ) ;
#444 = ORIENTED_EDGE ( 'NONE', *, *, #175, .F. ) ;
#445 = CARTESIAN_POINT ( 'NONE',  ( -22.85443097092614551, 0.000000000000000000, -87.99478576667917196 ) ) ;
#446 = DIRECTION ( 'NONE',  ( 0.000000000000000000, 0.000000000000000000, 1.000000000000000000 ) ) ;
#447 = CARTESIAN_POINT ( 'NONE',  ( 22.85443097092743869, -20.00000000000000000, 118.0189792127979871 ) ) ;
#448 = CYLINDRICAL_SURFACE ( 'NONE', #189, 15.51767924576555302 ) ;
#449 = DIRECTION ( 'NONE',  ( -0.000000000000000000, -1.000000000000000000, -0.000000000000000000 ) ) ;
#450 = ORIENTED_EDGE ( 'NONE', *, *, #584, .T. ) ;
#451 = AXIS2_PLACEMENT_3D ( 'NONE', #653, #220, #407 ) ;
#452 = CIRCLE ( 'NONE', #267, 15.01209672305890663 ) ;
#453 = PRODUCT_DEFINITION_FORMATION_WITH_SPECIFIED_SOURCE ( 'ANY', '', #607, .NOT_KNOWN. ) ;
#454 = EDGE_CURVE ( 'NONE', #98, #500, #493, .T. ) ;
#455 = DIRECTION ( 'NONE',  ( 0.000000000000000000, 0.000000000000000000, 1.000000000000000000 ) ) ;
#456 = EDGE_LOOP ( 'NONE', ( #672, #640, #94, #104 ) ) ;
#457 = FACE_OUTER_BOUND ( 'NONE', #423, .T. ) ;
#458 = ORIENTED_EDGE ( 'NONE', *, *, #440, .F. ) ;
#459 = FACE_OUTER_BOUND ( 'NONE', #456, .T. ) ;
#460 = CARTESIAN_POINT ( 'NONE',  ( -22.85443097092614551, -20.00000000000000000, -103.0068824897333286 ) ) ;
#461 = ORIENTED_EDGE ( 'NONE', *, *, #682, .T. ) ;
#462 = CARTESIAN_POINT ( 'NONE',  ( -130.7532139730053302, 20.00000000000000000, 0.000000000000000000 ) ) ;
#463 = CARTESIAN_POINT ( 'NONE',  ( 1.836970198721030062E-14, 20.00000000000000000, 150.0000000000000284 ) ) ;
#464 = EDGE_CURVE ( 'NONE', #437, #344, #140, .T. ) ;
#465 = CIRCLE ( 'NONE', #695, 15.01209672305800602 ) ;
#466 = EDGE_CURVE ( 'NONE', #500, #98, #559, .T. ) ;
#467 = AXIS2_PLACEMENT_3D ( 'NONE', #206, #276, #89 ) ;
#468 = DIRECTION ( 'NONE',  ( 0.000000000000000000, 0.000000000000000000, 1.000000000000000000 ) ) ;
#469 = CYLINDRICAL_SURFACE ( 'NONE', #214, 15.51767924576555302 ) ;
#470 = ORIENTED_EDGE ( 'NONE', *, *, #664, .T. ) ;
#471 = DIRECTION ( 'NONE',  ( 0.000000000000000000, 0.000000000000000000, 1.000000000000000000 ) ) ;
#472 = ORIENTED_EDGE ( 'NONE', *, *, #175, .T. ) ;
#473 = LINE ( 'NONE', #291, #57 ) ;
#474 =( NAMED_UNIT ( * ) SI_UNIT ( $, .STERADIAN. ) SOLID_ANGLE_UNIT ( ) );
#475 = EDGE_CURVE ( 'NONE', #233, #658, #515, .T. ) ;
#476 = CARTESIAN_POINT ( 'NONE',  ( -22.85443097092614195, -20.00000000000000000, -118.0189792127874853 ) ) ;
#477 = ORIENTED_EDGE ( 'NONE', *, *, #347, .T. ) ;
#478 = DIRECTION ( 'NONE',  ( -0.000000000000000000, -1.000000000000000000, -0.000000000000000000 ) ) ;
#479 = CARTESIAN_POINT ( 'NONE',  ( -103.0068824897355597, 0.000000000000000000, 22.85443097092967335 ) ) ;
#480 = AXIS2_PLACEMENT_3D ( 'NONE', #35, #273, #173 ) ;
#481 = CIRCLE ( 'NONE', #281, 25.00000000000000000 ) ;
#482 = ADVANCED_FACE ( 'NONE', ( #636 ), #518, .T. ) ;
#483 = EDGE_LOOP ( 'NONE', ( #143, #487 ) ) ;
#484 = DIRECTION ( 'NONE',  ( -0.000000000000000000, 1.000000000000000000, -0.000000000000000000 ) ) ;
#485 = DIRECTION ( 'NONE',  ( 0.000000000000000000, 1.000000000000000000, 0.000000000000000000 ) ) ;
#486 = PRODUCT_DEFINITION_SHAPE ( 'NONE', 'NONE',  #312 ) ;
#487 = ORIENTED_EDGE ( 'NONE', *, *, #230, .F. ) ;
#488 = CYLINDRICAL_SURFACE ( 'NONE', #240, 15.51767924576555302 ) ;
#489 = ORIENTED_EDGE ( 'NONE', *, *, #510, .T. ) ;
#490 = CARTESIAN_POINT ( 'NONE',  ( 0.000000000000000000, 20.00000000000000000, -4.724194593476865656 ) ) ;
#491 = ADVANCED_FACE ( 'NONE', ( #579 ), #197, .T. ) ;
#492 = COLOUR_RGB ( '',0.7921568627450980005, 0.8196078431372548767, 0.9333333333333333481 ) ;
#493 = CIRCLE ( 'NONE', #105, 15.01209672305800424 ) ;
#494 = SURFACE_STYLE_FILL_AREA ( #3 ) ;
#495 = VECTOR ( 'NONE', #64, 1000.000000000000000 ) ;
#496 = DIRECTION ( 'NONE',  ( 0.000000000000000000, -0.000000000000000000, 1.000000000000000000 ) ) ;
#497 = PRODUCT_CONTEXT ( 'NONE', #244, 'mechanical' ) ;
#498 = EDGE_LOOP ( 'NONE', ( #727, #122, #88, #179 ) ) ;
#499 = DIRECTION ( 'NONE',  ( 0.000000000000000000, 0.000000000000000000, 1.000000000000000000 ) ) ;
#500 = VERTEX_POINT ( 'NONE', #83 ) ;
#501 = CARTESIAN_POINT ( 'NONE',  ( 0.000000000000000000, 20.00000000000000000, -4.724194593476865656 ) ) ;
#502 = EDGE_CURVE ( 'NONE', #553, #434, #19, .T. ) ;
#503 = ORIENTED_EDGE ( 'NONE', *, *, #332, .T. ) ;
#504 = EDGE_CURVE ( 'NONE', #741, #613, #654, .T. ) ;
#505 = DIRECTION ( 'NONE',  ( 0.000000000000000000, 0.000000000000000000, -1.000000000000000000 ) ) ;
#506 =( LENGTH_UNIT ( ) NAMED_UNIT ( * ) SI_UNIT ( .MILLI., .METRE. ) );
#507 = ORIENTED_EDGE ( 'NONE', *, *, #442, .T. ) ;
#508 = DIRECTION ( 'NONE',  ( 0.000000000000000000, 1.000000000000000000, 0.000000000000000000 ) ) ;
#509 = CIRCLE ( 'NONE', #226, 15.01209672305416021 ) ;
#510 = EDGE_CURVE ( 'NONE', #637, #431, #582, .T. ) ;
#511 = AXIS2_PLACEMENT_3D ( 'NONE', #409, #589, #167 ) ;
#512 = AXIS2_PLACEMENT_3D ( 'NONE', #248, #76, #718 ) ;
#513 = CARTESIAN_POINT ( 'NONE',  ( 65.37660698650320512, 20.00000000000000000, -97.71792568131918699 ) ) ;
#514 = ORIENTED_EDGE ( 'NONE', *, *, #502, .F. ) ;
#515 = LINE ( 'NONE', #134, #611 ) ;
#516 = FACE_OUTER_BOUND ( 'NONE', #753, .T. ) ;
#517 = DIRECTION ( 'NONE',  ( -0.000000000000000000, -1.000000000000000000, -0.000000000000000000 ) ) ;
#518 = CYLINDRICAL_SURFACE ( 'NONE', #68, 15.01209672305890663 ) ;
#519 = DIRECTION ( 'NONE',  ( 0.000000000000000000, 0.000000000000000000, 1.000000000000000000 ) ) ;
#520 = ORIENTED_EDGE ( 'NONE', *, *, #638, .T. ) ;
#521 = CIRCLE ( 'NONE', #595, 15.51767924576555302 ) ;
#522 = VECTOR ( 'NONE', #259, 1000.000000000000000 ) ;
#523 = DIRECTION ( 'NONE',  ( 0.000000000000000000, 0.000000000000000000, 1.000000000000000000 ) ) ;
#524 = ORIENTED_EDGE ( 'NONE', *, *, #151, .T. ) ;
#525 = EDGE_CURVE ( 'NONE', #246, #38, #399, .T. ) ;
#526 = CARTESIAN_POINT ( 'NONE',  ( 103.0068824897368387, -20.00000000000000000, -22.85443097092391795 ) ) ;
#527 = ADVANCED_FACE ( 'NONE', ( #30 ), #269, .T. ) ;
#528 = EDGE_LOOP ( 'NONE', ( #507, #77 ) ) ;
#529 = FACE_OUTER_BOUND ( 'NONE', #363, .T. ) ;
#530 = DIRECTION ( 'NONE',  ( 0.000000000000000000, 0.000000000000000000, 1.000000000000000000 ) ) ;
#531 = CARTESIAN_POINT ( 'NONE',  ( -130.7532139730053302, 50.00000000000000000, 0.000000000000000000 ) ) ;
#532 = ORIENTED_EDGE ( 'NONE', *, *, #552, .F. ) ;
#533 = AXIS2_PLACEMENT_3D ( 'NONE', #462, #713, #763 ) ;
#534 = CIRCLE ( 'NONE', #467, 15.01209672305890663 ) ;
#535 = SURFACE_SIDE_STYLE ('',( #494 ) ) ;
#536 = DIRECTION ( 'NONE',  ( -0.000000000000000000, 1.000000000000000000, -0.000000000000000000 ) ) ;
#537 = ORIENTED_EDGE ( 'NONE', *, *, #111, .T. ) ;
#538 = DIRECTION ( 'NONE',  ( 0.000000000000000000, 0.000000000000000000, 1.000000000000000000 ) ) ;
#539 = DIRECTION ( 'NONE',  ( -0.000000000000000000, 1.000000000000000000, -0.000000000000000000 ) ) ;
#540 = VERTEX_POINT ( 'NONE', #132 ) ;
#541 = PRODUCT_DEFINITION_CONTEXT ( 'detailed design', #385, 'design' ) ;
#542 = PRESENTATION_STYLE_ASSIGNMENT (( #591 ) ) ;
#543 = ADVANCED_FACE ( 'NONE', ( #626 ), #75, .F. ) ;
#544 = DIRECTION ( 'NONE',  ( -0.000000000000000000, 1.000000000000000000, -0.000000000000000000 ) ) ;
#545 = ORIENTED_EDGE ( 'NONE', *, *, #760, .T. ) ;
#546 = DIRECTION ( 'NONE',  ( 1.000000000000000000, 0.000000000000000000, 0.000000000000000000 ) ) ;
#547 = CARTESIAN_POINT ( 'NONE',  ( 65.37660698650320512, 50.00000000000000000, -113.2356049270847649 ) ) ;
#548 = AXIS2_PLACEMENT_3D ( 'NONE', #221, #345, #468 ) ;
#549 = AXIS2_PLACEMENT_3D ( 'NONE', #318, #568, #651 ) ;
#550 = EDGE_LOOP ( 'NONE', ( #219, #450 ) ) ;
#551 = FACE_BOUND ( 'NONE', #257, .T. ) ;
#552 = EDGE_CURVE ( 'NONE', #757, #294, #711, .T. ) ;
#553 = VERTEX_POINT ( 'NONE', #701 ) ;
#554 = CARTESIAN_POINT ( 'NONE',  ( -103.0068824897355597, -20.00000000000000000, 7.842334247874959807 ) ) ;
#555 = VERTEX_POINT ( 'NONE', #405 ) ;
#556 = CARTESIAN_POINT ( 'NONE',  ( -130.7532139730053302, 50.00000000000000000, -15.51767924576556013 ) ) ;
#557 = CIRCLE ( 'NONE', #641, 15.51767924576556013 ) ;
#558 =( LENGTH_UNIT ( ) NAMED_UNIT ( * ) SI_UNIT ( .MILLI., .METRE. ) );
#559 = CIRCLE ( 'NONE', #199, 15.01209672305800424 ) ;
#560 = EDGE_LOOP ( 'NONE', ( #401, #300 ) ) ;
#561 = DIRECTION ( 'NONE',  ( 0.000000000000000000, 0.000000000000000000, 1.000000000000000000 ) ) ;
#562 = SURFACE_SIDE_STYLE ('',( #313 ) ) ;
#563 = ORIENTED_EDGE ( 'NONE', *, *, #86, .T. ) ;
#564 = CARTESIAN_POINT ( 'NONE',  ( -22.85443097092614195, -20.00000000000000000, -118.0189792127874853 ) ) ;
#565 = CARTESIAN_POINT ( 'NONE',  ( 0.000000000000000000, 0.000000000000000000, -150.0000000000000284 ) ) ;
#566 = EDGE_CURVE ( 'NONE', #749, #555, #642, .T. ) ;
#567 = CARTESIAN_POINT ( 'NONE',  ( -22.85443097092614551, -20.00000000000000000, -87.99478576667917196 ) ) ;
#568 = DIRECTION ( 'NONE',  ( -0.000000000000000000, -1.000000000000000000, -0.000000000000000000 ) ) ;
#569 = CIRCLE ( 'NONE', #239, 15.51767924576556723 ) ;
#570 = CARTESIAN_POINT ( 'NONE',  ( -130.7532139730053302, 50.00000000000000000, 0.000000000000000000 ) ) ;
#571 = CARTESIAN_POINT ( 'NONE',  ( 0.000000000000000000, 20.00000000000000000, 0.000000000000000000 ) ) ;
#572 = AXIS2_PLACEMENT_3D ( 'NONE', #145, #382, #87 ) ;
#573 = SHAPE_DEFINITION_REPRESENTATION ( #486, #305 ) ;
#574 = CARTESIAN_POINT ( 'NONE',  ( 65.37660698650320512, 50.00000000000000000, -113.2356049270847649 ) ) ;
#575 = DIRECTION ( 'NONE',  ( -0.000000000000000000, 1.000000000000000000, -0.000000000000000000 ) ) ;
#576 = ADVANCED_FACE ( 'NONE', ( #457 ), #93, .T. ) ;
#577 = CARTESIAN_POINT ( 'NONE',  ( -103.0068824897355597, 0.000000000000000000, 22.85443097092967335 ) ) ;
#578 = ORIENTED_EDGE ( 'NONE', *, *, #242, .F. ) ;
#579 = FACE_OUTER_BOUND ( 'NONE', #498, .T. ) ;
#580 = ORIENTED_EDGE ( 'NONE', *, *, #372, .F. ) ;
#581 = AXIS2_PLACEMENT_3D ( 'NONE', #743, #196, #50 ) ;
#582 = CIRCLE ( 'NONE', #31, 25.00000000000000000 ) ;
#583 = AXIS2_PLACEMENT_3D ( 'NONE', #687, #342, #588 ) ;
#584 = EDGE_CURVE ( 'NONE', #540, #374, #736, .T. ) ;
#585 = DIRECTION ( 'NONE',  ( 0.000000000000000000, 0.000000000000000000, 1.000000000000000000 ) ) ;
#586 = ORIENTED_EDGE ( 'NONE', *, *, #466, .F. ) ;
#587 = DIRECTION ( 'NONE',  ( 0.000000000000000000, 0.000000000000000000, 1.000000000000000000 ) ) ;
#588 = DIRECTION ( 'NONE',  ( 0.000000000000000000, -0.000000000000000000, -1.000000000000000000 ) ) ;
#589 = DIRECTION ( 'NONE',  ( 0.000000000000000000, -1.000000000000000000, 0.000000000000000000 ) ) ;
#590 = ORIENTED_EDGE ( 'NONE', *, *, #210, .F. ) ;
#591 = SURFACE_STYLE_USAGE ( .BOTH. , #535 ) ;
#592 = CYLINDRICAL_SURFACE ( 'NONE', #758, 15.51767924576556013 ) ;
#593 = ORIENTED_EDGE ( 'NONE', *, *, #336, .F. ) ;
#594 = CARTESIAN_POINT ( 'NONE',  ( 103.0068824897368387, -20.00000000000000000, -22.85443097092391795 ) ) ;
#595 = AXIS2_PLACEMENT_3D ( 'NONE', #301, #251, #671 ) ;
#596 = AXIS2_PLACEMENT_3D ( 'NONE', #271, #346, #471 ) ;
#597 = DIRECTION ( 'NONE',  ( -0.000000000000000000, 1.000000000000000000, -0.000000000000000000 ) ) ;
#598 = DIRECTION ( 'NONE',  ( 0.000000000000000000, 0.000000000000000000, 1.000000000000000000 ) ) ;
#599 = EDGE_LOOP ( 'NONE', ( #723, #61 ) ) ;
#600 = EDGE_CURVE ( 'NONE', #394, #344, #356, .T. ) ;
#601 = LINE ( 'NONE', #225, #725 ) ;
#602 = FACE_OUTER_BOUND ( 'NONE', #717, .T. ) ;
#603 = EDGE_LOOP ( 'NONE', ( #392, #503 ) ) ;
#604 = CARTESIAN_POINT ( 'NONE',  ( 22.85443097092743869, -20.00000000000000000, 103.0068824897390698 ) ) ;
#605 = EDGE_LOOP ( 'NONE', ( #354, #82, #237, #668 ) ) ;
#606 = DIRECTION ( 'NONE',  ( -0.000000000000000000, -1.000000000000000000, -0.000000000000000000 ) ) ;
#607 = PRODUCT ( 'circular plate', 'circular plate', '', ( #497 ) ) ;
#608 = DIRECTION ( 'NONE',  ( 0.000000000000000000, 0.000000000000000000, -1.000000000000000000 ) ) ;
#609 = VECTOR ( 'NONE', #2, 1000.000000000000000 ) ;
#610 = ADVANCED_FACE ( 'NONE', ( #602 ), #592, .T. ) ;
#611 = VECTOR ( 'NONE', #17, 1000.000000000000000 ) ;
#612 = EDGE_CURVE ( 'NONE', #706, #55, #534, .T. ) ;
#613 = VERTEX_POINT ( 'NONE', #51 ) ;
#614 = CARTESIAN_POINT ( 'NONE',  ( -22.85443097092614195, 0.000000000000000000, -118.0189792127874853 ) ) ;
#615 = ADVANCED_FACE ( 'NONE', ( #699 ), #639, .T. ) ;
#616 = ORIENTED_EDGE ( 'NONE', *, *, #372, .T. ) ;
#617 = LINE ( 'NONE', #554, #7 ) ;
#618 = EDGE_LOOP ( 'NONE', ( #661, #458 ) ) ;
#619 = DIRECTION ( 'NONE',  ( -0.000000000000000000, -1.000000000000000000, -0.000000000000000000 ) ) ;
#620 = EDGE_LOOP ( 'NONE', ( #489, #622 ) ) ;
#621 = AXIS2_PLACEMENT_3D ( 'NONE', #547, #485, #208 ) ;
#622 = ORIENTED_EDGE ( 'NONE', *, *, #336, .T. ) ;
#623 = DIRECTION ( 'NONE',  ( -0.000000000000000000, 1.000000000000000000, -0.000000000000000000 ) ) ;
#624 =( NAMED_UNIT ( * ) PLANE_ANGLE_UNIT ( ) SI_UNIT ( $, .RADIAN. ) );
#625 = LINE ( 'NONE', #136, #139 ) ;
#626 = FACE_OUTER_BOUND ( 'NONE', #635, .T. ) ;
#627 = ORIENTED_EDGE ( 'NONE', *, *, #15, .T. ) ;
#628 = DIRECTION ( 'NONE',  ( 0.000000000000000000, 0.000000000000000000, -1.000000000000000000 ) ) ;
#629 = CARTESIAN_POINT ( 'NONE',  ( 0.000000000000000000, 0.000000000000000000, 0.000000000000000000 ) ) ;
#630 = AXIS2_PLACEMENT_3D ( 'NONE', #371, #187, #62 ) ;
#631 = FILL_AREA_STYLE_COLOUR ( '', #492 ) ;
#632 = DIRECTION ( 'NONE',  ( 0.000000000000000000, 1.000000000000000000, 0.000000000000000000 ) ) ;
#633 = CIRCLE ( 'NONE', #80, 15.51767924576556013 ) ;
#634 = CARTESIAN_POINT ( 'NONE',  ( 0.000000000000000000, 0.000000000000000000, -4.724194593476865656 ) ) ;
#635 = EDGE_LOOP ( 'NONE', ( #321, #148, #1, #593 ) ) ;
#636 = FACE_OUTER_BOUND ( 'NONE', #186, .T. ) ;
#637 = VERTEX_POINT ( 'NONE', #102 ) ;
#638 = EDGE_CURVE ( 'NONE', #344, #437, #425, .T. ) ;
#639 = CYLINDRICAL_SURFACE ( 'NONE', #726, 15.01209672305800602 ) ;
#640 = ORIENTED_EDGE ( 'NONE', *, *, #442, .F. ) ;
#641 = AXIS2_PLACEMENT_3D ( 'NONE', #570, #252, #20 ) ;
#642 = CIRCLE ( 'NONE', #362, 150.0000000000000284 ) ;
#643 = CARTESIAN_POINT ( 'NONE',  ( -103.0068824897355597, 0.000000000000000000, 7.842334247874959807 ) ) ;
#644 = DIRECTION ( 'NONE',  ( 0.000000000000000000, 0.000000000000000000, 1.000000000000000000 ) ) ;
#645 = ORIENTED_EDGE ( 'NONE', *, *, #119, .F. ) ;
#646 = PLANE ( 'NONE',  #386 ) ;
#647 = CARTESIAN_POINT ( 'NONE',  ( 65.37660698650159929, 20.00000000000000000, 128.7532841728512096 ) ) ;
#648 = ORIENTED_EDGE ( 'NONE', *, *, #502, .T. ) ;
#649 = LINE ( 'NONE', #229, #335 ) ;
#650 = CARTESIAN_POINT ( 'NONE',  ( 22.85443097092744225, 0.000000000000000000, 87.99478576668016672 ) ) ;
#651 = DIRECTION ( 'NONE',  ( 0.000000000000000000, 0.000000000000000000, -1.000000000000000000 ) ) ;
#652 = ORIENTED_EDGE ( 'NONE', *, *, #504, .F. ) ;
#653 = CARTESIAN_POINT ( 'NONE',  ( -130.7532139730053302, 20.00000000000000000, 0.000000000000000000 ) ) ;
#654 = CIRCLE ( 'NONE', #170, 150.0000000000000284 ) ;
#655 = CIRCLE ( 'NONE', #596, 15.51767924576556723 ) ;
#656 = DIRECTION ( 'NONE',  ( 0.000000000000000000, 0.000000000000000000, 1.000000000000000000 ) ) ;
#657 = DIRECTION ( 'NONE',  ( 0.000000000000000000, 1.000000000000000000, 0.000000000000000000 ) ) ;
#658 = VERTEX_POINT ( 'NONE', #647 ) ;
#659 = CARTESIAN_POINT ( 'NONE',  ( 22.85443097092743869, -20.00000000000000000, 118.0189792127979871 ) ) ;
#660 = CARTESIAN_POINT ( 'NONE',  ( 65.37660698650320512, 50.00000000000000000, -113.2356049270847649 ) ) ;
#661 = ORIENTED_EDGE ( 'NONE', *, *, #682, .F. ) ;
#662 = CARTESIAN_POINT ( 'NONE',  ( 22.85443097092744225, -20.00000000000000000, 87.99478576668016672 ) ) ;
#663 = ADVANCED_FACE ( 'NONE', ( #213 ), #469, .T. ) ;
#664 = EDGE_CURVE ( 'NONE', #9, #437, #761, .T. ) ;
#665 = ORIENTED_EDGE ( 'NONE', *, *, #210, .T. ) ;
#666 = CARTESIAN_POINT ( 'NONE',  ( 0.000000000000000000, 20.00000000000000000, 0.000000000000000000 ) ) ;
#667 = AXIS2_PLACEMENT_3D ( 'NONE', #194, #737, #446 ) ;
#668 = ORIENTED_EDGE ( 'NONE', *, *, #739, .F. ) ;
#669 = FACE_OUTER_BOUND ( 'NONE', #367, .T. ) ;
#670 = VERTEX_POINT ( 'NONE', #705 ) ;
#671 = DIRECTION ( 'NONE',  ( 0.000000000000000000, 0.000000000000000000, 1.000000000000000000 ) ) ;
#672 = ORIENTED_EDGE ( 'NONE', *, *, #716, .F. ) ;
#673 = CYLINDRICAL_SURFACE ( 'NONE', #255, 150.0000000000000284 ) ;
#674 = ADVANCED_FACE ( 'NONE', ( #41 ), #400, .T. ) ;
#675 = AXIS2_PLACEMENT_3D ( 'NONE', #216, #53, #587 ) ;
#676 = AXIS2_PLACEMENT_3D ( 'NONE', #731, #681, #523 ) ;
#677 = ORIENTED_EDGE ( 'NONE', *, *, #268, .F. ) ;
#678 = AXIS2_PLACEMENT_3D ( 'NONE', #629, #295, #546 ) ;
#679 = DIRECTION ( 'NONE',  ( 0.000000000000000000, -0.000000000000000000, 1.000000000000000000 ) ) ;
#680 = ORIENTED_EDGE ( 'NONE', *, *, #347, .F. ) ;
#681 = DIRECTION ( 'NONE',  ( 0.000000000000000000, 1.000000000000000000, 0.000000000000000000 ) ) ;
#682 = EDGE_CURVE ( 'NONE', #294, #771, #655, .T. ) ;
#683 = ADVANCED_FACE ( 'NONE', ( #708, #164, #47, #289, #765 ), #223, .T. ) ;
#684 = CARTESIAN_POINT ( 'NONE',  ( 103.0068824897368387, -20.00000000000000000, -37.86652769398192220 ) ) ;
#685 = ORIENTED_EDGE ( 'NONE', *, *, #552, .T. ) ;
#686 = CARTESIAN_POINT ( 'NONE',  ( 103.0068824897368387, -20.00000000000000000, -22.85443097092391795 ) ) ;
#687 = CARTESIAN_POINT ( 'NONE',  ( -22.85443097092614551, -20.00000000000000000, -103.0068824897333286 ) ) ;
#688 = CIRCLE ( 'NONE', #581, 15.01209672305471265 ) ;
#689 = DIRECTION ( 'NONE',  ( 0.000000000000000000, 0.000000000000000000, -1.000000000000000000 ) ) ;
#690 = DIRECTION ( 'NONE',  ( 0.000000000000000000, 0.000000000000000000, 1.000000000000000000 ) ) ;
#691 = AXIS2_PLACEMENT_3D ( 'NONE', #435, #56, #365 ) ;
#692 = AXIS2_PLACEMENT_3D ( 'NONE', #274, #198, #694 ) ;
#693 = EDGE_LOOP ( 'NONE', ( #330, #314, #470, #43 ) ) ;
#694 = DIRECTION ( 'NONE',  ( 0.000000000000000000, 0.000000000000000000, -1.000000000000000000 ) ) ;
#695 = AXIS2_PLACEMENT_3D ( 'NONE', #292, #754, #211 ) ;
#696 = ADVANCED_FACE ( 'NONE', ( #459 ), #28, .T. ) ;
#697 = DIRECTION ( 'NONE',  ( 0.000000000000000000, -1.000000000000000000, 0.000000000000000000 ) ) ;
#698 = ORIENTED_EDGE ( 'NONE', *, *, #359, .F. ) ;
#699 = FACE_OUTER_BOUND ( 'NONE', #709, .T. ) ;
#700 = EDGE_LOOP ( 'NONE', ( #417, #48 ) ) ;
#701 = CARTESIAN_POINT ( 'NONE',  ( 22.85443097092744225, -20.00000000000000000, 87.99478576668016672 ) ) ;
#702 = EDGE_LOOP ( 'NONE', ( #477, #524 ) ) ;
#703 = CARTESIAN_POINT ( 'NONE',  ( 0.000000000000000000, 20.00000000000000000, -29.72419459347686654 ) ) ;
#704 = AXIS2_PLACEMENT_3D ( 'NONE', #195, #575, #142 ) ;
#705 = CARTESIAN_POINT ( 'NONE',  ( -130.7532139730053302, 20.00000000000000000, -15.51767924576556013 ) ) ;
#706 = VERTEX_POINT ( 'NONE', #395 ) ;
#707 =( LENGTH_UNIT ( ) NAMED_UNIT ( * ) SI_UNIT ( .MILLI., .METRE. ) );
#708 = FACE_BOUND ( 'NONE', #115, .T. ) ;
#709 = EDGE_LOOP ( 'NONE', ( #307, #586, #545, #12 ) ) ;
#710 = CARTESIAN_POINT ( 'NONE',  ( -130.7532139730053302, 20.00000000000000000, 15.51767924576556013 ) ) ;
#711 = LINE ( 'NONE', #97, #441 ) ;
#712 = ORIENTED_EDGE ( 'NONE', *, *, #204, .T. ) ;
#713 = DIRECTION ( 'NONE',  ( 0.000000000000000000, 1.000000000000000000, 0.000000000000000000 ) ) ;
#714 = VECTOR ( 'NONE', #341, 1000.000000000000000 ) ;
#715 = AXIS2_PLACEMENT_3D ( 'NONE', #368, #623, #304 ) ;
#716 = EDGE_CURVE ( 'NONE', #741, #555, #265, .T. ) ;
#717 = EDGE_LOOP ( 'NONE', ( #580, #410, #264, #677 ) ) ;
#718 = DIRECTION ( 'NONE',  ( 0.000000000000000000, 0.000000000000000000, 1.000000000000000000 ) ) ;
#719 = CARTESIAN_POINT ( 'NONE',  ( -103.0068824897355597, 0.000000000000000000, 37.86652769398438068 ) ) ;
#720 = ADVANCED_FACE ( 'NONE', ( #331 ), #138, .T. ) ;
#721 = ORIENTED_EDGE ( 'NONE', *, *, #150, .F. ) ;
#722 = DIRECTION ( 'NONE',  ( 0.000000000000000000, -1.000000000000000000, 0.000000000000000000 ) ) ;
#723 = ORIENTED_EDGE ( 'NONE', *, *, #157, .F. ) ;
#724 = FACE_OUTER_BOUND ( 'NONE', #702, .T. ) ;
#725 = VECTOR ( 'NONE', #517, 1000.000000000000000 ) ;
#726 = AXIS2_PLACEMENT_3D ( 'NONE', #526, #343, #282 ) ;
#727 = ORIENTED_EDGE ( 'NONE', *, *, #6, .F. ) ;
#728 = DIRECTION ( 'NONE',  ( -0.000000000000000000, -1.000000000000000000, -0.000000000000000000 ) ) ;
#729 = ADVANCED_FACE ( 'NONE', ( #91 ), #79, .T. ) ;
#730 = ORIENTED_EDGE ( 'NONE', *, *, #260, .T. ) ;
#731 = CARTESIAN_POINT ( 'NONE',  ( 65.37660698650159929, 20.00000000000000000, 113.2356049270856460 ) ) ;
#732 = ORIENTED_EDGE ( 'NONE', *, *, #475, .F. ) ;
#733 = PLANE ( 'NONE',  #630 ) ;
#734 = CIRCLE ( 'NONE', #667, 15.01209672305800602 ) ;
#735 = CYLINDRICAL_SURFACE ( 'NONE', #512, 15.01209672305890663 ) ;
#736 = CIRCLE ( 'NONE', #511, 15.01209672305471265 ) ;
#737 = DIRECTION ( 'NONE',  ( -0.000000000000000000, -1.000000000000000000, -0.000000000000000000 ) ) ;
#738 = DIRECTION ( 'NONE',  ( 0.000000000000000000, 0.000000000000000000, 1.000000000000000000 ) ) ;
#739 = EDGE_CURVE ( 'NONE', #65, #113, #209, .T. ) ;
#740 = ADVANCED_FACE ( 'NONE', ( #516 ), #735, .T. ) ;
#741 = VERTEX_POINT ( 'NONE', #181 ) ;
#742 = DIRECTION ( 'NONE',  ( 0.000000000000000000, 0.000000000000000000, 1.000000000000000000 ) ) ;
#743 = CARTESIAN_POINT ( 'NONE',  ( -103.0068824897355597, -20.00000000000000000, 22.85443097092967335 ) ) ;
#744 = FACE_OUTER_BOUND ( 'NONE', #693, .T. ) ;
#745 = EDGE_CURVE ( 'NONE', #183, #762, #748, .T. ) ;
#746 = VECTOR ( 'NONE', #597, 1000.000000000000000 ) ;
#747 = DIRECTION ( 'NONE',  ( 0.000000000000000000, 1.000000000000000000, 0.000000000000000000 ) ) ;
#748 = CIRCLE ( 'NONE', #311, 25.00000000000000000 ) ;
#749 = VERTEX_POINT ( 'NONE', #565 ) ;
#750 = CARTESIAN_POINT ( 'NONE',  ( 65.37660698650320512, 50.00000000000000000, -113.2356049270847649 ) ) ;
#751 = ORIENTED_EDGE ( 'NONE', *, *, #770, .T. ) ;
#752 = DIRECTION ( 'NONE',  ( 0.000000000000000000, 0.000000000000000000, -1.000000000000000000 ) ) ;
#753 = EDGE_LOOP ( 'NONE', ( #146, #370, #472, #124 ) ) ;
#754 = DIRECTION ( 'NONE',  ( -0.000000000000000000, -1.000000000000000000, -0.000000000000000000 ) ) ;
#755 = CARTESIAN_POINT ( 'NONE',  ( -22.85443097092614551, 0.000000000000000000, -103.0068824897333286 ) ) ;
#756 = CIRCLE ( 'NONE', #548, 15.51767924576555302 ) ;
#757 = VERTEX_POINT ( 'NONE', #11 ) ;
#758 = AXIS2_PLACEMENT_3D ( 'NONE', #531, #37, #352 ) ;
#759 = DIRECTION ( 'NONE',  ( 0.000000000000000000, 1.000000000000000000, 0.000000000000000000 ) ) ;
#760 = EDGE_CURVE ( 'NONE', #500, #32, #433, .T. ) ;
#761 = LINE ( 'NONE', #396, #427 ) ;
#762 = VERTEX_POINT ( 'NONE', #443 ) ;
#763 = DIRECTION ( 'NONE',  ( 0.000000000000000000, 0.000000000000000000, 1.000000000000000000 ) ) ;
#764 = DIRECTION ( 'NONE',  ( 0.000000000000000000, -1.000000000000000000, 0.000000000000000000 ) ) ;
#765 = FACE_BOUND ( 'NONE', #397, .T. ) ;
#766 = EDGE_LOOP ( 'NONE', ( #290, #133 ) ) ;
#767 = DIRECTION ( 'NONE',  ( -0.000000000000000000, 1.000000000000000000, -0.000000000000000000 ) ) ;
#768 = DIRECTION ( 'NONE',  ( 0.000000000000000000, 0.000000000000000000, -1.000000000000000000 ) ) ;
#769 = DIRECTION ( 'NONE',  ( -0.000000000000000000, -1.000000000000000000, -0.000000000000000000 ) ) ;
#770 = EDGE_CURVE ( 'NONE', #98, #773, #18, .T. ) ;
#771 = VERTEX_POINT ( 'NONE', #513 ) ;
#772 = DIRECTION ( 'NONE',  ( 0.000000000000000000, -0.000000000000000000, -1.000000000000000000 ) ) ;
#773 = VERTEX_POINT ( 'NONE', #14 ) ;
#774 = PLANE ( 'NONE',  #127 ) ;
ENDSEC;
END-ISO-10303-21;
