ISO-10303-21;
HEADER;
FILE_DESCRIPTION (( 'STEP AP214' ),
    '1' );
FILE_NAME ('shaft.STEP',
    '2024-02-07T08:05:20',
    ( '' ),
    ( '' ),
    'SwSTEP 2.0',
    'SolidWorks 2022',
    '' );
FILE_SCHEMA (( 'AUTOMOTIVE_DESIGN' ));
ENDSEC;

DATA;
#1 = AXIS2_PLACEMENT_3D ( 'NONE', #42, #78, #30 ) ;
#2 = ORIENTED_EDGE ( 'NONE', *, *, #28, .F. ) ;
#3 = EDGE_LOOP ( 'NONE', ( #77, #111 ) ) ;
#4 = STYLED_ITEM ( 'NONE', ( #59 ), #12 ) ;
#5 = SURFACE_STYLE_FILL_AREA ( #101 ) ;
#6 = LINE ( 'NONE', #25, #9 ) ;
#7 = CARTESIAN_POINT ( 'NONE',  ( 0.000000000000000000, 0.000000000000000000, 0.000000000000000000 ) ) ;
#8 = CARTESIAN_POINT ( 'NONE',  ( 0.000000000000000000, 0.000000000000000000, 350.0000000000000000 ) ) ;
#9 = VECTOR ( 'NONE', #76, 1000.000000000000000 ) ;
#10 = PRODUCT_DEFINITION_FORMATION_WITH_SPECIFIED_SOURCE ( 'ANY', '', #20, .NOT_KNOWN. ) ;
#11 = CLOSED_SHELL ( 'NONE', ( #72, #118, #35, #136 ) ) ;
#12 = ADVANCED_BREP_SHAPE_REPRESENTATION ( 'shaft', ( #14, #84 ), #127 ) ;
#13 = ORIENTED_EDGE ( 'NONE', *, *, #110, .F. ) ;
#14 = MANIFOLD_SOLID_BREP ( 'Boss-Extrude1', #11 ) ;
#15 = SURFACE_STYLE_USAGE ( .BOTH. , #113 ) ;
#16 =( GEOMETRIC_REPRESENTATION_CONTEXT ( 3 ) GLOBAL_UNCERTAINTY_ASSIGNED_CONTEXT ( ( #19 ) ) GLOBAL_UNIT_ASSIGNED_CONTEXT ( ( #135, #85, #74 ) ) REPRESENTATION_CONTEXT ( 'NONE', 'WORKASPACE' ) );
#17 = DIRECTION ( 'NONE',  ( -1.000000000000000000, 0.000000000000000000, 0.000000000000000000 ) ) ;
#18 = DIRECTION ( 'NONE',  ( -0.000000000000000000, -0.000000000000000000, -1.000000000000000000 ) ) ;
#19 = UNCERTAINTY_MEASURE_WITH_UNIT (LENGTH_MEASURE( 1.000000000000000082E-05 ), #135, 'distance_accuracy_value', 'NONE');
#20 = PRODUCT ( 'shaft', 'shaft', '', ( #93 ) ) ;
#21 = PRODUCT_DEFINITION_SHAPE ( 'NONE', 'NONE',  #92 ) ;
#22 = CARTESIAN_POINT ( 'NONE',  ( 0.000000000000000000, 0.000000000000000000, 0.000000000000000000 ) ) ;
#23 = PRODUCT_DEFINITION_CONTEXT ( 'detailed design', #61, 'design' ) ;
#24 = CYLINDRICAL_SURFACE ( 'NONE', #139, 25.00000000000000000 ) ;
#25 = CARTESIAN_POINT ( 'NONE',  ( 25.00000000000000000, 3.061616997868383043E-15, 350.0000000000000000 ) ) ;
#26 = ORIENTED_EDGE ( 'NONE', *, *, #106, .F. ) ;
#27 = CARTESIAN_POINT ( 'NONE',  ( -25.00000000000000000, 0.000000000000000000, 350.0000000000000000 ) ) ;
#28 = EDGE_CURVE ( 'NONE', #112, #68, #46, .T. ) ;
#29 = ORIENTED_EDGE ( 'NONE', *, *, #117, .F. ) ;
#30 = DIRECTION ( 'NONE',  ( 1.000000000000000000, 0.000000000000000000, -0.000000000000000000 ) ) ;
#31 =( NAMED_UNIT ( * ) SI_UNIT ( $, .STERADIAN. ) SOLID_ANGLE_UNIT ( ) );
#32 = CARTESIAN_POINT ( 'NONE',  ( 0.000000000000000000, 0.000000000000000000, 0.000000000000000000 ) ) ;
#33 = PRODUCT_RELATED_PRODUCT_CATEGORY ( 'part', '', ( #20 ) ) ;
#34 = CIRCLE ( 'NONE', #73, 25.00000000000000000 ) ;
#35 = ADVANCED_FACE ( 'NONE', ( #86 ), #123, .T. ) ;
#36 = ORIENTED_EDGE ( 'NONE', *, *, #110, .T. ) ;
#37 = DIRECTION ( 'NONE',  ( 0.000000000000000000, 0.000000000000000000, 1.000000000000000000 ) ) ;
#38 = MECHANICAL_DESIGN_GEOMETRIC_PRESENTATION_REPRESENTATION (  '', ( #97 ), #16 ) ;
#39 = FILL_AREA_STYLE ('',( #131 ) ) ;
#40 = DIRECTION ( 'NONE',  ( 1.000000000000000000, 0.000000000000000000, 0.000000000000000000 ) ) ;
#41 = LINE ( 'NONE', #66, #134 ) ;
#42 = CARTESIAN_POINT ( 'NONE',  ( 0.000000000000000000, 0.000000000000000000, 350.0000000000000000 ) ) ;
#43 = DIRECTION ( 'NONE',  ( 0.000000000000000000, 0.000000000000000000, 1.000000000000000000 ) ) ;
#44 = MECHANICAL_DESIGN_GEOMETRIC_PRESENTATION_REPRESENTATION (  '', ( #4 ), #67 ) ;
#45 = EDGE_LOOP ( 'NONE', ( #29, #2 ) ) ;
#46 = CIRCLE ( 'NONE', #52, 25.00000000000000000 ) ;
#47 = EDGE_LOOP ( 'NONE', ( #13, #63, #122, #129 ) ) ;
#48 = CARTESIAN_POINT ( 'NONE',  ( 0.000000000000000000, 0.000000000000000000, 0.000000000000000000 ) ) ;
#49 = DIRECTION ( 'NONE',  ( -0.000000000000000000, -0.000000000000000000, -1.000000000000000000 ) ) ;
#50 = PRESENTATION_STYLE_ASSIGNMENT (( #104 ) ) ;
#51 = DIRECTION ( 'NONE',  ( 1.000000000000000000, 0.000000000000000000, 0.000000000000000000 ) ) ;
#52 = AXIS2_PLACEMENT_3D ( 'NONE', #22, #130, #40 ) ;
#53 =( NAMED_UNIT ( * ) SI_UNIT ( $, .STERADIAN. ) SOLID_ANGLE_UNIT ( ) );
#54 = AXIS2_PLACEMENT_3D ( 'NONE', #48, #37, #120 ) ;
#55 = CARTESIAN_POINT ( 'NONE',  ( 0.000000000000000000, 0.000000000000000000, 350.0000000000000000 ) ) ;
#56 = VERTEX_POINT ( 'NONE', #69 ) ;
#57 = DIRECTION ( 'NONE',  ( 0.000000000000000000, 0.000000000000000000, 1.000000000000000000 ) ) ;
#58 = FILL_AREA_STYLE_COLOUR ( '', #107 ) ;
#59 = PRESENTATION_STYLE_ASSIGNMENT (( #15 ) ) ;
#60 = DIRECTION ( 'NONE',  ( 1.000000000000000000, 0.000000000000000000, 0.000000000000000000 ) ) ;
#61 = APPLICATION_CONTEXT ( 'automotive_design' ) ;
#62 = DIRECTION ( 'NONE',  ( 0.000000000000000000, 0.000000000000000000, 1.000000000000000000 ) ) ;
#63 = ORIENTED_EDGE ( 'NONE', *, *, #128, .F. ) ;
#64 = CARTESIAN_POINT ( 'NONE',  ( 0.000000000000000000, 0.000000000000000000, 350.0000000000000000 ) ) ;
#65 = SURFACE_STYLE_FILL_AREA ( #39 ) ;
#66 = CARTESIAN_POINT ( 'NONE',  ( -25.00000000000000000, 0.000000000000000000, 350.0000000000000000 ) ) ;
#67 =( GEOMETRIC_REPRESENTATION_CONTEXT ( 3 ) GLOBAL_UNCERTAINTY_ASSIGNED_CONTEXT ( ( #95 ) ) GLOBAL_UNIT_ASSIGNED_CONTEXT ( ( #126, #138, #53 ) ) REPRESENTATION_CONTEXT ( 'NONE', 'WORKASPACE' ) );
#68 = VERTEX_POINT ( 'NONE', #70 ) ;
#69 = CARTESIAN_POINT ( 'NONE',  ( 25.00000000000000000, 3.061616997868383043E-15, 350.0000000000000000 ) ) ;
#70 = CARTESIAN_POINT ( 'NONE',  ( -25.00000000000000000, 0.000000000000000000, 0.000000000000000000 ) ) ;
#71 = AXIS2_PLACEMENT_3D ( 'NONE', #7, #62, #133 ) ;
#72 = ADVANCED_FACE ( 'NONE', ( #121 ), #115, .T. ) ;
#73 = AXIS2_PLACEMENT_3D ( 'NONE', #55, #57, #60 ) ;
#74 =( NAMED_UNIT ( * ) SI_UNIT ( $, .STERADIAN. ) SOLID_ANGLE_UNIT ( ) );
#75 = COLOUR_RGB ( '',0.7921568627450980005, 0.8196078431372548767, 0.9333333333333333481 ) ;
#76 = DIRECTION ( 'NONE',  ( -0.000000000000000000, -0.000000000000000000, -1.000000000000000000 ) ) ;
#77 = ORIENTED_EDGE ( 'NONE', *, *, #128, .T. ) ;
#78 = DIRECTION ( 'NONE',  ( 0.000000000000000000, 0.000000000000000000, 1.000000000000000000 ) ) ;
#79 = DIRECTION ( 'NONE',  ( 0.000000000000000000, 0.000000000000000000, 1.000000000000000000 ) ) ;
#80 = CIRCLE ( 'NONE', #54, 25.00000000000000000 ) ;
#81 = FACE_OUTER_BOUND ( 'NONE', #45, .T. ) ;
#82 = APPLICATION_PROTOCOL_DEFINITION ( 'draft international standard', 'automotive_design', 1998, #61 ) ;
#83 = UNCERTAINTY_MEASURE_WITH_UNIT (LENGTH_MEASURE( 1.000000000000000082E-05 ), #98, 'distance_accuracy_value', 'NONE');
#84 = AXIS2_PLACEMENT_3D ( 'NONE', #32, #43, #96 ) ;
#85 =( NAMED_UNIT ( * ) PLANE_ANGLE_UNIT ( ) SI_UNIT ( $, .RADIAN. ) );
#86 = FACE_OUTER_BOUND ( 'NONE', #3, .T. ) ;
#87 = ORIENTED_EDGE ( 'NONE', *, *, #140, .F. ) ;
#88 = CIRCLE ( 'NONE', #125, 25.00000000000000000 ) ;
#89 = SURFACE_SIDE_STYLE ('',( #5 ) ) ;
#90 = CARTESIAN_POINT ( 'NONE',  ( 0.000000000000000000, 0.000000000000000000, 350.0000000000000000 ) ) ;
#91 = DIRECTION ( 'NONE',  ( -0.000000000000000000, -0.000000000000000000, -1.000000000000000000 ) ) ;
#92 = PRODUCT_DEFINITION ( 'UNKNOWN', '', #10, #23 ) ;
#93 = PRODUCT_CONTEXT ( 'NONE', #137, 'mechanical' ) ;
#94 = AXIS2_PLACEMENT_3D ( 'NONE', #90, #18, #132 ) ;
#95 = UNCERTAINTY_MEASURE_WITH_UNIT (LENGTH_MEASURE( 1.000000000000000082E-05 ), #126, 'distance_accuracy_value', 'NONE');
#96 = DIRECTION ( 'NONE',  ( 1.000000000000000000, 0.000000000000000000, 0.000000000000000000 ) ) ;
#97 = STYLED_ITEM ( 'NONE', ( #50 ), #14 ) ;
#98 =( LENGTH_UNIT ( ) NAMED_UNIT ( * ) SI_UNIT ( .MILLI., .METRE. ) );
#99 = VERTEX_POINT ( 'NONE', #27 ) ;
#100 = APPLICATION_PROTOCOL_DEFINITION ( 'draft international standard', 'automotive_design', 1998, #137 ) ;
#101 = FILL_AREA_STYLE ('',( #58 ) ) ;
#102 = PRESENTATION_LAYER_ASSIGNMENT (  '', '', ( #4 ) ) ;
#103 = PLANE ( 'NONE',  #71 ) ;
#104 = SURFACE_STYLE_USAGE ( .BOTH. , #89 ) ;
#105 = FACE_OUTER_BOUND ( 'NONE', #47, .T. ) ;
#106 = EDGE_CURVE ( 'NONE', #99, #68, #41, .T. ) ;
#107 = COLOUR_RGB ( '',0.7921568627450980005, 0.8196078431372548767, 0.9333333333333333481 ) ;
#108 = PRESENTATION_LAYER_ASSIGNMENT (  '', '', ( #97 ) ) ;
#109 = ORIENTED_EDGE ( 'NONE', *, *, #28, .T. ) ;
#110 = EDGE_CURVE ( 'NONE', #56, #112, #6, .T. ) ;
#111 = ORIENTED_EDGE ( 'NONE', *, *, #140, .T. ) ;
#112 = VERTEX_POINT ( 'NONE', #114 ) ;
#113 = SURFACE_SIDE_STYLE ('',( #65 ) ) ;
#114 = CARTESIAN_POINT ( 'NONE',  ( 25.00000000000000000, 3.061616997868383043E-15, 0.000000000000000000 ) ) ;
#115 = CYLINDRICAL_SURFACE ( 'NONE', #94, 25.00000000000000000 ) ;
#116 = SHAPE_DEFINITION_REPRESENTATION ( #21, #12 ) ;
#117 = EDGE_CURVE ( 'NONE', #68, #112, #80, .T. ) ;
#118 = ADVANCED_FACE ( 'NONE', ( #105 ), #24, .T. ) ;
#119 = EDGE_LOOP ( 'NONE', ( #87, #36, #109, #26 ) ) ;
#120 = DIRECTION ( 'NONE',  ( 1.000000000000000000, 0.000000000000000000, 0.000000000000000000 ) ) ;
#121 = FACE_OUTER_BOUND ( 'NONE', #119, .T. ) ;
#122 = ORIENTED_EDGE ( 'NONE', *, *, #106, .T. ) ;
#123 = PLANE ( 'NONE',  #1 ) ;
#124 =( NAMED_UNIT ( * ) PLANE_ANGLE_UNIT ( ) SI_UNIT ( $, .RADIAN. ) );
#125 = AXIS2_PLACEMENT_3D ( 'NONE', #8, #79, #51 ) ;
#126 =( LENGTH_UNIT ( ) NAMED_UNIT ( * ) SI_UNIT ( .MILLI., .METRE. ) );
#127 =( GEOMETRIC_REPRESENTATION_CONTEXT ( 3 ) GLOBAL_UNCERTAINTY_ASSIGNED_CONTEXT ( ( #83 ) ) GLOBAL_UNIT_ASSIGNED_CONTEXT ( ( #98, #124, #31 ) ) REPRESENTATION_CONTEXT ( 'NONE', 'WORKASPACE' ) );
#128 = EDGE_CURVE ( 'NONE', #99, #56, #34, .T. ) ;
#129 = ORIENTED_EDGE ( 'NONE', *, *, #117, .T. ) ;
#130 = DIRECTION ( 'NONE',  ( 0.000000000000000000, 0.000000000000000000, 1.000000000000000000 ) ) ;
#131 = FILL_AREA_STYLE_COLOUR ( '', #75 ) ;
#132 = DIRECTION ( 'NONE',  ( -1.000000000000000000, 0.000000000000000000, 0.000000000000000000 ) ) ;
#133 = DIRECTION ( 'NONE',  ( 1.000000000000000000, 0.000000000000000000, -0.000000000000000000 ) ) ;
#134 = VECTOR ( 'NONE', #49, 1000.000000000000000 ) ;
#135 =( LENGTH_UNIT ( ) NAMED_UNIT ( * ) SI_UNIT ( .MILLI., .METRE. ) );
#136 = ADVANCED_FACE ( 'NONE', ( #81 ), #103, .F. ) ;
#137 = APPLICATION_CONTEXT ( 'automotive_design' ) ;
#138 =( NAMED_UNIT ( * ) PLANE_ANGLE_UNIT ( ) SI_UNIT ( $, .RADIAN. ) );
#139 = AXIS2_PLACEMENT_3D ( 'NONE', #64, #91, #17 ) ;
#140 = EDGE_CURVE ( 'NONE', #56, #99, #88, .T. ) ;
ENDSEC;
END-ISO-10303-21;
