ISO-10303-21;
HEADER;
FILE_DESCRIPTION (( 'STEP AP214' ),
    '1' );
FILE_NAME ('upper shot.STEP',
    '2024-02-07T08:06:11',
    ( '' ),
    ( '' ),
    'SwSTEP 2.0',
    'SolidWorks 2022',
    '' );
FILE_SCHEMA (( 'AUTOMOTIVE_DESIGN' ));
ENDSEC;

DATA;
#1 = ADVANCED_FACE ( 'NONE', ( #259 ), #612, .T. ) ;
#2 = CARTESIAN_POINT ( 'NONE',  ( -213.8177647757845250, 9.500000000000003553, -167.9785829926757117 ) ) ;
#3 = CARTESIAN_POINT ( 'NONE',  ( -400.0000000000000000, -7.499999999999999112, 175.0000000000000284 ) ) ;
#4 = ORIENTED_EDGE ( 'NONE', *, *, #819, .F. ) ;
#5 = LINE ( 'NONE', #737, #1165 ) ;
#6 = FACE_OUTER_BOUND ( 'NONE', #766, .T. ) ;
#7 = CARTESIAN_POINT ( 'NONE',  ( -202.3360923267275098, 7.826521471566684873, -167.1088164805620124 ) ) ;
#8 = PRODUCT_DEFINITION ( 'UNKNOWN', '', #739, #1119 ) ;
#9 = B_SPLINE_CURVE_WITH_KNOTS ( 'NONE', 3,
 ( #1114, #295, #1109, #202, #113, #1016, #22, #390 ),
 .UNSPECIFIED., .F., .F.,
 ( 4, 2, 2, 4 ),
 ( 2.776912483567713316E-17, 0.004382692291414658561, 0.008765384582829289367, 0.01753076916565848159 ),
 .UNSPECIFIED. ) ;
#10 = EDGE_CURVE ( 'NONE', #521, #319, #627, .T. ) ;
#11 = EDGE_LOOP ( 'NONE', ( #708, #55, #236, #1145 ) ) ;
#12 = CARTESIAN_POINT ( 'NONE',  ( -213.8177647757845250, 13.71658292777905253, -161.6684948894559852 ) ) ;
#13 = DIRECTION ( 'NONE',  ( -0.000000000000000000, -1.000000000000000000, -0.000000000000000000 ) ) ;
#14 = VECTOR ( 'NONE', #362, 1000.000000000000000 ) ;
#15 = CARTESIAN_POINT ( 'NONE',  ( -218.1932040138320588, 10.20507551256662637, -167.8588394641362811 ) ) ;
#16 = AXIS2_PLACEMENT_3D ( 'NONE', #643, #562, #458 ) ;
#18 = CARTESIAN_POINT ( 'NONE',  ( -213.8177647757845250, 132.5305411121489385, -24.28867109589541329 ) ) ;
#17 = AXIS2_PLACEMENT_3D ( 'NONE', #610, #137, #340 ) ;
#19 = CARTESIAN_POINT ( 'NONE',  ( -213.8177647757845250, 252.5305411121489101, -17.97858299267566906 ) ) ;
#20 = VECTOR ( 'NONE', #160, 1000.000000000000000 ) ;
#21 = CARTESIAN_POINT ( 'NONE',  ( -213.8177647757845250, 7.500000000000000888, -92.97858299267569748 ) ) ;
#22 = CARTESIAN_POINT ( 'NONE',  ( -216.7013649565377307, 9.029111173541560120, -167.9785829926756833 ) ) ;
#23 = DIRECTION ( 'NONE',  ( 0.000000000000000000, 0.000000000000000000, -1.000000000000000000 ) ) ;
#24 = EDGE_CURVE ( 'NONE', #322, #608, #422, .T. ) ;
#25 = EDGE_CURVE ( 'NONE', #990, #856, #988, .T. ) ;
#26 = DIRECTION ( 'NONE',  ( -0.000000000000000000, 1.000000000000000000, 0.000000000000000000 ) ) ;
#27 = ORIENTED_EDGE ( 'NONE', *, *, #1117, .F. ) ;
#28 = CARTESIAN_POINT ( 'NONE',  ( -213.8177647757845250, 252.5305411121489101, -92.97858299267569748 ) ) ;
#29 = DIRECTION ( 'NONE',  ( 0.000000000000000000, 0.000000000000000000, 1.000000000000000000 ) ) ;
#30 = STYLED_ITEM ( 'NONE', ( #799 ), #538 ) ;
#31 = FACE_OUTER_BOUND ( 'NONE', #869, .T. ) ;
#32 = CARTESIAN_POINT ( 'NONE',  ( -216.0068969483249646, 9.857496655315763689, -167.9546123493221330 ) ) ;
#33 = ORIENTED_EDGE ( 'NONE', *, *, #701, .F. ) ;
#34 = DIRECTION ( 'NONE',  ( 0.000000000000000000, 0.000000000000000000, -1.000000000000000000 ) ) ;
#35 = CIRCLE ( 'NONE', #131, 12.46239114177463669 ) ;
#36 = VECTOR ( 'NONE', #571, 1000.000000000000114 ) ;
#37 = DIRECTION ( 'NONE',  ( 0.000000000000000000, -1.000000000000000000, 0.000000000000000000 ) ) ;
#38 = ORIENTED_EDGE ( 'NONE', *, *, #968, .F. ) ;
#39 = LINE ( 'NONE', #1044, #495 ) ;
#40 = ORIENTED_EDGE ( 'NONE', *, *, #1162, .F. ) ;
#41 = ORIENTED_EDGE ( 'NONE', *, *, #599, .F. ) ;
#42 = CARTESIAN_POINT ( 'NONE',  ( -400.0000000000000000, 182.6639248764650461, 160.7511026367120337 ) ) ;
#43 = DIRECTION ( 'NONE',  ( 0.000000000000000000, 0.000000000000000000, -1.000000000000000000 ) ) ;
#44 = ORIENTED_EDGE ( 'NONE', *, *, #65, .T. ) ;
#45 = PRODUCT ( 'upper shot', 'upper shot', '', ( #63 ) ) ;
#46 = CARTESIAN_POINT ( 'NONE',  ( -213.8177647757845250, 80.72028924486363621, -17.97858299267566906 ) ) ;
#47 = ORIENTED_EDGE ( 'NONE', *, *, #1000, .F. ) ;
#48 = ORIENTED_EDGE ( 'NONE', *, *, #795, .T. ) ;
#49 = CARTESIAN_POINT ( 'NONE',  ( -213.8177647757845250, 307.5000000000000000, -17.97858299267566906 ) ) ;
#50 = ADVANCED_FACE ( 'NONE', ( #875 ), #1080, .F. ) ;
#51 = FACE_BOUND ( 'NONE', #606, .T. ) ;
#52 = VERTEX_POINT ( 'NONE', #813 ) ;
#53 = DIRECTION ( 'NONE',  ( 1.000000000000000000, 2.135044278125301343E-16, 0.000000000000000000 ) ) ;
#54 = VERTEX_POINT ( 'NONE', #621 ) ;
#55 = ORIENTED_EDGE ( 'NONE', *, *, #177, .F. ) ;
#56 = CYLINDRICAL_SURFACE ( 'NONE', #519, 2.000000000000001776 ) ;
#57 = VECTOR ( 'NONE', #452, 1000.000000000000114 ) ;
#58 = ORIENTED_EDGE ( 'NONE', *, *, #559, .T. ) ;
#59 = VECTOR ( 'NONE', #162, 1000.000000000000000 ) ;
#60 = CARTESIAN_POINT ( 'NONE',  ( -213.8177647757845250, 307.5000000000000000, -92.97858299267569748 ) ) ;
#61 = ORIENTED_EDGE ( 'NONE', *, *, #103, .F. ) ;
#62 = ORIENTED_EDGE ( 'NONE', *, *, #928, .F. ) ;
#63 = PRODUCT_CONTEXT ( 'NONE', #767, 'mechanical' ) ;
#64 = ADVANCED_FACE ( 'NONE', ( #164 ), #893, .T. ) ;
#65 = EDGE_CURVE ( 'NONE', #952, #830, #971, .T. ) ;
#66 = DIRECTION ( 'NONE',  ( 0.000000000000000000, 0.000000000000000000, -1.000000000000000000 ) ) ;
#67 = ORIENTED_EDGE ( 'NONE', *, *, #114, .F. ) ;
#68 = DIRECTION ( 'NONE',  ( 0.000000000000000000, 0.9063077870366526012, -0.4226182617406937236 ) ) ;
#69 = DIRECTION ( 'NONE',  ( -0.000000000000000000, -1.000000000000000000, -0.000000000000000000 ) ) ;
#70 = EDGE_LOOP ( 'NONE', ( #790, #239 ) ) ;
#71 = DIRECTION ( 'NONE',  ( 1.000000000000000000, 0.000000000000000000, 0.000000000000000000 ) ) ;
#72 = EDGE_LOOP ( 'NONE', ( #977, #1039, #326, #1079 ) ) ;
#73 = ORIENTED_EDGE ( 'NONE', *, *, #909, .F. ) ;
#74 = APPLICATION_PROTOCOL_DEFINITION ( 'draft international standard', 'automotive_design', 1998, #76 ) ;
#75 = DIRECTION ( 'NONE',  ( 0.000000000000000000, 0.000000000000000000, -1.000000000000000000 ) ) ;
#76 = APPLICATION_CONTEXT ( 'automotive_design' ) ;
#77 = AXIS2_PLACEMENT_3D ( 'NONE', #564, #657, #940 ) ;
#78 = EDGE_LOOP ( 'NONE', ( #433, #161, #1137, #145 ) ) ;
#79 = CIRCLE ( 'NONE', #234, 2.000000000000001776 ) ;
#80 = CARTESIAN_POINT ( 'NONE',  ( -210.2210734293305450, 8.918007386984676543, -167.8957422169241624 ) ) ;
#81 = VERTEX_POINT ( 'NONE', #359 ) ;
#82 = EDGE_CURVE ( 'NONE', #777, #350, #917, .T. ) ;
#83 = DIRECTION ( 'NONE',  ( 0.000000000000000000, 0.000000000000000000, 1.000000000000000000 ) ) ;
#84 = DIRECTION ( 'NONE',  ( 0.000000000000000000, 0.000000000000000000, 1.000000000000000000 ) ) ;
#85 = PRESENTATION_STYLE_ASSIGNMENT (( #923 ) ) ;
#86 = LINE ( 'NONE', #1180, #978 ) ;
#87 = SURFACE_SIDE_STYLE ('',( #165 ) ) ;
#88 = DIRECTION ( 'NONE',  ( 2.135044278125301343E-16, -1.000000000000000000, 0.000000000000000000 ) ) ;
#89 = ADVANCED_FACE ( 'NONE', ( #287, #271 ), #904, .T. ) ;
#90 = FILL_AREA_STYLE_COLOUR ( '', #518 ) ;
#91 = CARTESIAN_POINT ( 'NONE',  ( -209.4422897414230533, 10.21504907426643527, -167.8829590195421986 ) ) ;
#92 = CARTESIAN_POINT ( 'NONE',  ( -400.0000000000000000, 7.500000000000000888, 175.0000000000000284 ) ) ;
#93 = CARTESIAN_POINT ( 'NONE',  ( -150.3769731102270555, 252.5305411121489101, -54.99999999999997868 ) ) ;
#94 =( LENGTH_UNIT ( ) NAMED_UNIT ( * ) SI_UNIT ( .MILLI., .METRE. ) );
#95 = AXIS2_PLACEMENT_3D ( 'NONE', #900, #692, #522 ) ;
#96 = AXIS2_PLACEMENT_3D ( 'NONE', #104, #821, #721 ) ;
#97 = DIRECTION ( 'NONE',  ( 0.000000000000000000, 0.000000000000000000, 1.000000000000000000 ) ) ;
#98 = AXIS2_PLACEMENT_3D ( 'NONE', #344, #619, #702 ) ;
#99 = CARTESIAN_POINT ( 'NONE',  ( -213.8177647757845250, 307.5000000000000000, -24.28867109589541329 ) ) ;
#100 = CARTESIAN_POINT ( 'NONE',  ( -213.8177647757845250, 9.500000000000003553, -167.9785829926757117 ) ) ;
#101 = EDGE_CURVE ( 'NONE', #384, #685, #924, .T. ) ;
#102 = DIRECTION ( 'NONE',  ( -0.000000000000000000, -1.000000000000000000, -0.000000000000000000 ) ) ;
#103 = EDGE_CURVE ( 'NONE', #967, #689, #731, .T. ) ;
#104 = CARTESIAN_POINT ( 'NONE',  ( -150.3769731102270555, 252.5305411121489101, -54.99999999999997868 ) ) ;
#105 = DIRECTION ( 'NONE',  ( 0.000000000000000000, 0.9063077870366526012, -0.4226182617406937236 ) ) ;
#106 = EDGE_CURVE ( 'NONE', #319, #646, #645, .T. ) ;
#107 = LINE ( 'NONE', #289, #726 ) ;
#108 = B_SPLINE_CURVE_WITH_KNOTS ( 'NONE', 3,
 ( #1085, #544, #542, #91, #736, #725 ),
 .UNSPECIFIED., .F., .F.,
 ( 4, 2, 4 ),
 ( 8.371725890308805625E-17, 0.006656700828468644152, 0.01331340165693720330 ),
 .UNSPECIFIED. ) ;
#109 = LINE ( 'NONE', #285, #804 ) ;
#110 = CARTESIAN_POINT ( 'NONE',  ( -400.0000000000000000, -7.499999999999999112, -174.9999999999999716 ) ) ;
#111 = VECTOR ( 'NONE', #545, 1000.000000000000000 ) ;
#113 = CARTESIAN_POINT ( 'NONE',  ( -223.8671630030806625, 7.992101130204053661, -167.3162601929364826 ) ) ;
#112 = CIRCLE ( 'NONE', #191, 12.46239114177463669 ) ;
#114 = EDGE_CURVE ( 'NONE', #129, #448, #108, .T. ) ;
#115 = CARTESIAN_POINT ( 'NONE',  ( -400.0000000000000000, 7.500000000000000888, -174.9999999999999716 ) ) ;
#116 = FACE_BOUND ( 'NONE', #1176, .T. ) ;
#117 = DIRECTION ( 'NONE',  ( 0.000000000000000000, 0.000000000000000000, -1.000000000000000000 ) ) ;
#118 =( NAMED_UNIT ( * ) SI_UNIT ( $, .STERADIAN. ) SOLID_ANGLE_UNIT ( ) );
#119 = DIRECTION ( 'NONE',  ( -0.000000000000000000, 1.000000000000000000, 0.000000000000000000 ) ) ;
#120 = DIRECTION ( 'NONE',  ( 0.000000000000000000, 0.000000000000000000, 1.000000000000000000 ) ) ;
#121 = EDGE_LOOP ( 'NONE', ( #389, #352 ) ) ;
#122 = CARTESIAN_POINT ( 'NONE',  ( -213.8177647757845250, 132.5305411121489385, -17.97858299267566906 ) ) ;
#123 = FACE_OUTER_BOUND ( 'NONE', #334, .T. ) ;
#124 = CARTESIAN_POINT ( 'NONE',  ( -400.0000000000000000, 11.31261557407337115, -166.8238195161569593 ) ) ;
#125 = EDGE_CURVE ( 'NONE', #264, #128, #86, .T. ) ;
#126 = ORIENTED_EDGE ( 'NONE', *, *, #607, .T. ) ;
#127 = CARTESIAN_POINT ( 'NONE',  ( -351.1975885693450437, 13.71658292777905430, -161.6684948894559568 ) ) ;
#128 = VERTEX_POINT ( 'NONE', #277 ) ;
#129 = VERTEX_POINT ( 'NONE', #456 ) ;
#130 = DIRECTION ( 'NONE',  ( -0.000000000000000000, 1.000000000000000000, 0.000000000000000000 ) ) ;
#131 = AXIS2_PLACEMENT_3D ( 'NONE', #738, #291, #23 ) ;
#132 = AXIS2_PLACEMENT_3D ( 'NONE', #1035, #941, #210 ) ;
#133 = DIRECTION ( 'NONE',  ( 0.000000000000000000, 0.000000000000000000, -1.000000000000000000 ) ) ;
#134 = VECTOR ( 'NONE', #217, 1000.000000000000000 ) ;
#135 = EDGE_LOOP ( 'NONE', ( #950, #229, #802, #980 ) ) ;
#136 = ADVANCED_FACE ( 'NONE', ( #281 ), #640, .F. ) ;
#137 = DIRECTION ( 'NONE',  ( -0.000000000000000000, 1.000000000000000000, 0.000000000000000000 ) ) ;
#138 = ORIENTED_EDGE ( 'NONE', *, *, #877, .F. ) ;
#139 = ORIENTED_EDGE ( 'NONE', *, *, #10, .T. ) ;
#140 = DIRECTION ( 'NONE',  ( 0.000000000000000000, 0.9063077870366527122, -0.4226182617406936681 ) ) ;
#141 = VERTEX_POINT ( 'NONE', #1001 ) ;
#142 = CARTESIAN_POINT ( 'NONE',  ( 0.000000000000000000, 9.500000000000001776, -165.9785829926757117 ) ) ;
#143 = ORIENTED_EDGE ( 'NONE', *, *, #470, .T. ) ;
#144 = ADVANCED_FACE ( 'NONE', ( #1186 ), #192, .F. ) ;
#145 = ORIENTED_EDGE ( 'NONE', *, *, #1183, .F. ) ;
#146 = CARTESIAN_POINT ( 'NONE',  ( -213.8177647757845250, 252.5305411121489101, -24.28867109589541329 ) ) ;
#147 = EDGE_LOOP ( 'NONE', ( #337, #408, #246 ) ) ;
#148 = CARTESIAN_POINT ( 'NONE',  ( -156.5820134462537681, 132.5305411121489385, -54.99999999999997868 ) ) ;
#149 = EDGE_LOOP ( 'NONE', ( #705, #1067, #262, #1139, #868, #328, #227 ) ) ;
#150 = ORIENTED_EDGE ( 'NONE', *, *, #501, .T. ) ;
#151 =( LENGTH_UNIT ( ) NAMED_UNIT ( * ) SI_UNIT ( .MILLI., .METRE. ) );
#152 = EDGE_CURVE ( 'NONE', #1149, #407, #881, .T. ) ;
#153 = EDGE_CURVE ( 'NONE', #1166, #560, #997, .T. ) ;
#154 = MECHANICAL_DESIGN_GEOMETRIC_PRESENTATION_REPRESENTATION (  '', ( #1026 ), #593 ) ;
#155 = ORIENTED_EDGE ( 'NONE', *, *, #1117, .T. ) ;
#156 = AXIS2_PLACEMENT_3D ( 'NONE', #1048, #317, #849 ) ;
#157 =( GEOMETRIC_REPRESENTATION_CONTEXT ( 3 ) GLOBAL_UNCERTAINTY_ASSIGNED_CONTEXT ( ( #247 ) ) GLOBAL_UNIT_ASSIGNED_CONTEXT ( ( #896, #269, #1184 ) ) REPRESENTATION_CONTEXT ( 'NONE', 'WORKASPACE' ) );
#158 = CARTESIAN_POINT ( 'NONE',  ( -150.3769731102270555, 307.5000000000000000, -52.97525872021880389 ) ) ;
#159 = ORIENTED_EDGE ( 'NONE', *, *, #101, .F. ) ;
#160 = DIRECTION ( 'NONE',  ( -0.000000000000000000, -0.000000000000000000, 1.000000000000000000 ) ) ;
#161 = ORIENTED_EDGE ( 'NONE', *, *, #704, .T. ) ;
#162 = DIRECTION ( 'NONE',  ( -0.000000000000000000, -1.000000000000000000, -0.000000000000000000 ) ) ;
#163 = ORIENTED_EDGE ( 'NONE', *, *, #960, .T. ) ;
#164 = FACE_OUTER_BOUND ( 'NONE', #11, .T. ) ;
#165 = SURFACE_STYLE_FILL_AREA ( #622 ) ;
#166 = FACE_OUTER_BOUND ( 'NONE', #72, .T. ) ;
#167 = VERTEX_POINT ( 'NONE', #632 ) ;
#168 = EDGE_LOOP ( 'NONE', ( #944, #556, #964, #592 ) ) ;
#169 = ORIENTED_EDGE ( 'NONE', *, *, #1049, .F. ) ;
#170 = FACE_OUTER_BOUND ( 'NONE', #446, .T. ) ;
#171 = CLOSED_SHELL ( 'NONE', ( #569, #772, #749, #1002 ) ) ;
#172 = CIRCLE ( 'NONE', #190, 75.00000000000002842 ) ;
#173 = ORIENTED_EDGE ( 'NONE', *, *, #828, .T. ) ;
#174 = COLOUR_RGB ( '',0.7921568627450980005, 0.8196078431372548767, 0.9333333333333333481 ) ;
#175 = DIRECTION ( 'NONE',  ( 0.000000000000000000, 0.000000000000000000, -1.000000000000000000 ) ) ;
#176 = AXIS2_PLACEMENT_3D ( 'NONE', #354, #69, #885 ) ;
#177 = EDGE_CURVE ( 'NONE', #1166, #897, #910, .T. ) ;
#178 = CARTESIAN_POINT ( 'NONE',  ( -400.0000000000000000, 167.3854953738639324, 167.8755513183560026 ) ) ;
#179 = CARTESIAN_POINT ( 'NONE',  ( -280.3769731102270839, 252.5305411121489101, -54.99999999999997868 ) ) ;
#180 = CARTESIAN_POINT ( 'NONE',  ( -400.0000000000000000, 9.500000000000001776, -165.9785829926757117 ) ) ;
#181 = DIRECTION ( 'NONE',  ( -0.000000000000000000, 1.000000000000000000, 0.000000000000000000 ) ) ;
#182 = DIRECTION ( 'NONE',  ( 0.000000000000000000, -0.4226182617406937791, -0.9063077870366527122 ) ) ;
#183 = CARTESIAN_POINT ( 'NONE',  ( -400.0000000000000000, 7.500000000000000888, -174.9999999999999716 ) ) ;
#184 = CARTESIAN_POINT ( 'NONE',  ( -329.4775736397589299, 17.50000000000000000, 117.3952087441504659 ) ) ;
#185 = EDGE_CURVE ( 'NONE', #411, #967, #994, .T. ) ;
#186 = DIRECTION ( 'NONE',  ( -0.000000000000000000, -1.000000000000000000, -0.000000000000000000 ) ) ;
#187 = CARTESIAN_POINT ( 'NONE',  ( -200.0000000000000000, -2.499999999999998668, -30.00000000000000000 ) ) ;
#188 = EDGE_CURVE ( 'NONE', #653, #1051, #996, .T. ) ;
#189 = DIRECTION ( 'NONE',  ( -0.000000000000000000, 1.000000000000000000, 0.000000000000000000 ) ) ;
#190 = AXIS2_PLACEMENT_3D ( 'NONE', #360, #379, #472 ) ;
#191 = AXIS2_PLACEMENT_3D ( 'NONE', #482, #779, #29 ) ;
#192 = PLANE ( 'NONE',  #96 ) ;
#193 = CIRCLE ( 'NONE', #616, 2.000000000000001776 ) ;
#194 = CARTESIAN_POINT ( 'NONE',  ( -213.8177647757845250, 132.5305411121489385, -92.97858299267569748 ) ) ;
#195 = DIRECTION ( 'NONE',  ( -0.000000000000000000, 1.000000000000000000, 0.000000000000000000 ) ) ;
#196 = ADVANCED_FACE ( 'NONE', ( #170, #1093, #1006 ), #894, .T. ) ;
#197 = ORIENTED_EDGE ( 'NONE', *, *, #1060, .T. ) ;
#198 = CARTESIAN_POINT ( 'NONE',  ( -400.0000000000000000, 22.77842950260112431, -182.1244486816440258 ) ) ;
#199 = CARTESIAN_POINT ( 'NONE',  ( -280.3769731102270839, 252.5305411121489101, -54.99999999999997868 ) ) ;
#200 = ADVANCED_FACE ( 'NONE', ( #732 ), #727, .T. ) ;
#201 = CARTESIAN_POINT ( 'NONE',  ( -329.4775736397589299, 7.500000000000000000, 104.9328176023758630 ) ) ;
#202 = CARTESIAN_POINT ( 'NONE',  ( -225.2995189219862482, 7.826513223966475863, -167.1088034246257905 ) ) ;
#203 = PRESENTATION_STYLE_ASSIGNMENT (( #935 ) ) ;
#204 = CARTESIAN_POINT ( 'NONE',  ( -351.1975885693450437, 77.77784683869951721, -24.28867109589545947 ) ) ;
#205 = AXIS2_PLACEMENT_3D ( 'NONE', #712, #454, #642 ) ;
#206 = EDGE_CURVE ( 'NONE', #500, #167, #1123, .T. ) ;
#207 = CYLINDRICAL_SURFACE ( 'NONE', #1012, 30.00000000000000000 ) ;
#208 = CARTESIAN_POINT ( 'NONE',  ( -213.8177647757845250, 307.5000000000000000, -167.9785829926757117 ) ) ;
#210 = DIRECTION ( 'NONE',  ( 0.000000000000000000, 0.000000000000000000, -1.000000000000000000 ) ) ;
#209 = AXIS2_PLACEMENT_3D ( 'NONE', #734, #189, #724 ) ;
#211 = CARTESIAN_POINT ( 'NONE',  ( -329.4775736397589299, 7.500000000000000000, 104.9328176023758630 ) ) ;
#212 = DIRECTION ( 'NONE',  ( 1.000000000000000000, 0.000000000000000000, 0.000000000000000000 ) ) ;
#213 = ORIENTED_EDGE ( 'NONE', *, *, #316, .T. ) ;
#214 = CARTESIAN_POINT ( 'NONE',  ( -400.0000000000000000, 9.500000000000001776, -165.9785829926757117 ) ) ;
#215 = EDGE_CURVE ( 'NONE', #52, #793, #914, .T. ) ;
#216 = DIRECTION ( 'NONE',  ( -0.000000000000000000, -1.000000000000000000, -0.000000000000000000 ) ) ;
#217 = DIRECTION ( 'NONE',  ( 1.000000000000000000, 0.000000000000000000, 0.000000000000000000 ) ) ;
#218 = EDGE_LOOP ( 'NONE', ( #441, #719, #604, #1056 ) ) ;
#219 =( BOUNDED_CURVE ( )  B_SPLINE_CURVE ( 3, ( #951, #127, #204, #591 ),
 .UNSPECIFIED., .F., .T. ) 
 B_SPLINE_CURVE_WITH_KNOTS ( ( 4, 4 ),
 ( 0.000000000000000000, 3.141592653589793116 ),
 .UNSPECIFIED. ) 
 CURVE ( )  GEOMETRIC_REPRESENTATION_ITEM ( )  RATIONAL_B_SPLINE_CURVE ( ( 1.000000000000000000, 0.3333333333333333703, 0.3333333333333333703, 1.000000000000000000 ) ) 
 REPRESENTATION_ITEM ( '' )  );
#220 = DIRECTION ( 'NONE',  ( -0.000000000000000000, -1.000000000000000000, -0.000000000000000000 ) ) ;
#221 = ORIENTED_EDGE ( 'NONE', *, *, #1183, .T. ) ;
#222 = EDGE_LOOP ( 'NONE', ( #601, #713, #345, #126 ) ) ;
#223 = DIRECTION ( 'NONE',  ( 0.000000000000000000, 0.4226182617406936126, 0.9063077870366526012 ) ) ;
#224 = DIRECTION ( 'NONE',  ( 0.000000000000000000, 0.4226182617406936126, 0.9063077870366526012 ) ) ;
#225 = DIRECTION ( 'NONE',  ( -0.000000000000000000, -0.4226182617406936126, -0.9063077870366526012 ) ) ;
#226 = EDGE_CURVE ( 'NONE', #350, #777, #332, .T. ) ;
#227 = ORIENTED_EDGE ( 'NONE', *, *, #188, .F. ) ;
#228 = CARTESIAN_POINT ( 'NONE',  ( -222.5628912221170026, 10.85109159088215414, -167.4992724352347295 ) ) ;
#229 = ORIENTED_EDGE ( 'NONE', *, *, #101, .T. ) ;
#230 = EDGE_LOOP ( 'NONE', ( #510, #250, #699, #1059 ) ) ;
#231 = DIRECTION ( 'NONE',  ( 0.000000000000000000, -0.9063077870366527122, 0.4226182617406937236 ) ) ;
#232 = AXIS2_PLACEMENT_3D ( 'NONE', #832, #13, #840 ) ;
#233 = PLANE ( 'NONE',  #959 ) ;
#234 = AXIS2_PLACEMENT_3D ( 'NONE', #237, #1138, #66 ) ;
#235 = VECTOR ( 'NONE', #669, 1000.000000000000000 ) ;
#236 = ORIENTED_EDGE ( 'NONE', *, *, #153, .T. ) ;
#237 = CARTESIAN_POINT ( 'NONE',  ( -400.0000000000000000, 9.500000000000001776, -165.9785829926757117 ) ) ;
#238 = VERTEX_POINT ( 'NONE', #442 ) ;
#239 = ORIENTED_EDGE ( 'NONE', *, *, #267, .T. ) ;
#240 = CARTESIAN_POINT ( 'NONE',  ( -200.0000000000000000, -7.499999999999999112, 30.00000000000000000 ) ) ;
#241 = ORIENTED_EDGE ( 'NONE', *, *, #816, .F. ) ;
#242 = ADVANCED_FACE ( 'NONE', ( #1172 ), #532, .F. ) ;
#243 = CARTESIAN_POINT ( 'NONE',  ( 0.000000000000000000, 11.31261557407336937, -166.8238195161569593 ) ) ;
#244 = ORIENTED_EDGE ( 'NONE', *, *, #297, .F. ) ;
#245 = ADVANCED_FACE ( 'NONE', ( #463 ), #548, .T. ) ;
#246 = ORIENTED_EDGE ( 'NONE', *, *, #641, .F. ) ;
#247 = UNCERTAINTY_MEASURE_WITH_UNIT (LENGTH_MEASURE( 1.000000000000000082E-05 ), #896, 'distance_accuracy_value', 'NONE');
#248 = ORIENTED_EDGE ( 'NONE', *, *, #82, .F. ) ;
#249 = LINE ( 'NONE', #796, #1052 ) ;
#250 = ORIENTED_EDGE ( 'NONE', *, *, #1034, .T. ) ;
#251 = ORIENTED_EDGE ( 'NONE', *, *, #387, .T. ) ;
#252 = DIRECTION ( 'NONE',  ( 0.000000000000000000, 0.000000000000000000, 1.000000000000000000 ) ) ;
#253 = AXIS2_PLACEMENT_3D ( 'NONE', #798, #1072, #83 ) ;
#254 = VECTOR ( 'NONE', #1003, 1000.000000000000000 ) ;
#255 = AXIS2_PLACEMENT_3D ( 'NONE', #392, #220, #962 ) ;
#256 = ORIENTED_EDGE ( 'NONE', *, *, #185, .F. ) ;
#257 = CARTESIAN_POINT ( 'NONE',  ( -213.8177647757845250, 307.5000000000000000, -24.28867109589541329 ) ) ;
#258 = ORIENTED_EDGE ( 'NONE', *, *, #283, .F. ) ;
#259 = FACE_OUTER_BOUND ( 'NONE', #378, .T. ) ;
#260 = EDGE_CURVE ( 'NONE', #1161, #238, #537, .T. ) ;
#261 = CARTESIAN_POINT ( 'NONE',  ( 99.99999999999997158, 11.31261557407336937, -166.8238195161569593 ) ) ;
#262 = ORIENTED_EDGE ( 'NONE', *, *, #1162, .T. ) ;
#263 = FACE_OUTER_BOUND ( 'NONE', #168, .T. ) ;
#264 = VERTEX_POINT ( 'NONE', #272 ) ;
#265 = CARTESIAN_POINT ( 'NONE',  ( -400.0000000000000000, 167.3854953738639324, 167.8755513183560026 ) ) ;
#266 = DIRECTION ( 'NONE',  ( 0.000000000000000000, 0.000000000000000000, 1.000000000000000000 ) ) ;
#267 = EDGE_CURVE ( 'NONE', #1045, #1133, #292, .T. ) ;
#268 = ORIENTED_EDGE ( 'NONE', *, *, #185, .T. ) ;
#269 =( NAMED_UNIT ( * ) PLANE_ANGLE_UNIT ( ) SI_UNIT ( $, .RADIAN. ) );
#270 = VERTEX_POINT ( 'NONE', #543 ) ;
#271 = FACE_BOUND ( 'NONE', #307, .T. ) ;
#272 = CARTESIAN_POINT ( 'NONE',  ( -329.4775736397589299, 7.500000000000000000, 92.47042646060127424 ) ) ;
#273 = VECTOR ( 'NONE', #1178, 1000.000000000000000 ) ;
#274 = EDGE_CURVE ( 'NONE', #129, #52, #906, .T. ) ;
#275 = CARTESIAN_POINT ( 'NONE',  ( -213.4589461618010091, 9.441405303974558905, -167.9785829926757970 ) ) ;
#276 = VECTOR ( 'NONE', #942, 1000.000000000000000 ) ;
#277 = CARTESIAN_POINT ( 'NONE',  ( -329.4775736397589299, -7.499999999999999112, 92.47042646060127424 ) ) ;
#278 = PLANE ( 'NONE',  #957 ) ;
#279 = CARTESIAN_POINT ( 'NONE',  ( -212.0179889861044273, 9.206765786293047427, -167.9578479598376362 ) ) ;
#280 = ADVANCED_FACE ( 'NONE', ( #166 ), #278, .T. ) ;
#281 = FACE_OUTER_BOUND ( 'NONE', #890, .T. ) ;
#282 = UNCERTAINTY_MEASURE_WITH_UNIT (LENGTH_MEASURE( 1.000000000000000082E-05 ), #871, 'distance_accuracy_value', 'NONE');
#283 = EDGE_CURVE ( 'NONE', #777, #1132, #815, .T. ) ;
#284 = DIRECTION ( 'NONE',  ( 0.000000000000000000, 1.000000000000000000, 0.000000000000000000 ) ) ;
#285 = CARTESIAN_POINT ( 'NONE',  ( -400.0000000000000000, -7.499999999999999112, 175.0000000000000284 ) ) ;
#286 = DIRECTION ( 'NONE',  ( 1.000000000000000000, 0.000000000000000000, 0.000000000000000000 ) ) ;
#287 = FACE_OUTER_BOUND ( 'NONE', #70, .T. ) ;
#288 = ORIENTED_EDGE ( 'NONE', *, *, #617, .F. ) ;
#289 = CARTESIAN_POINT ( 'NONE',  ( -150.3769731102270555, 252.5305411121489101, -54.99999999999997868 ) ) ;
#290 = EDGE_CURVE ( 'NONE', #1133, #1045, #172, .T. ) ;
#291 = DIRECTION ( 'NONE',  ( 0.000000000000000000, -1.000000000000000000, 0.000000000000000000 ) ) ;
#292 = CIRCLE ( 'NONE', #615, 75.00000000000002842 ) ;
#293 = VECTOR ( 'NONE', #568, 1000.000000000000000 ) ;
#294 = AXIS2_PLACEMENT_3D ( 'NONE', #490, #37, #133 ) ;
#295 = CARTESIAN_POINT ( 'NONE',  ( -229.5986400622415999, 7.499999999999998224, -166.3141385484911439 ) ) ;
#296 = CARTESIAN_POINT ( 'NONE',  ( 0.000000000000000000, 7.500000000000000888, -165.9785829926755696 ) ) ;
#297 = EDGE_CURVE ( 'NONE', #418, #1062, #1160, .T. ) ;
#298 = CYLINDRICAL_SURFACE ( 'NONE', #255, 12.46239114177459584 ) ;
#299 = DIRECTION ( 'NONE',  ( -0.000000000000000000, -1.000000000000000000, -0.000000000000000000 ) ) ;
#300 = CARTESIAN_POINT ( 'NONE',  ( -213.8177647757845250, 307.5000000000000000, -92.97858299267569748 ) ) ;
#301 = EDGE_CURVE ( 'NONE', #322, #418, #477, .T. ) ;
#302 = UNCERTAINTY_MEASURE_WITH_UNIT (LENGTH_MEASURE( 1.000000000000000082E-05 ), #151, 'distance_accuracy_value', 'NONE');
#303 = DIRECTION ( 'NONE',  ( 1.000000000000000000, 0.000000000000000000, 0.000000000000000000 ) ) ;
#304 = LINE ( 'NONE', #93, #365 ) ;
#305 = B_SPLINE_CURVE_WITH_KNOTS ( 'NONE', 3,
 ( #388, #754, #32, #15, #836, #228, #476, #746 ),
 .UNSPECIFIED., .F., .F.,
 ( 4, 2, 2, 4 ),
 ( -5.477225921491398874E-05, 0.003268369589774815058, 0.006591511438764544213, 0.01323779513674400339 ),
 .UNSPECIFIED. ) ;
#306 = DIRECTION ( 'NONE',  ( -1.000000000000000000, -0.000000000000000000, -0.000000000000000000 ) ) ;
#307 = EDGE_LOOP ( 'NONE', ( #691, #248 ) ) ;
#308 = DIRECTION ( 'NONE',  ( 0.000000000000000000, 0.000000000000000000, 1.000000000000000000 ) ) ;
#310 = CYLINDRICAL_SURFACE ( 'NONE', #981, 68.68991189678028775 ) ;
#309 = VECTOR ( 'NONE', #664, 1000.000000000000000 ) ;
#311 = DIRECTION ( 'NONE',  ( -0.000000000000000000, -1.000000000000000000, -0.000000000000000000 ) ) ;
#312 = FACE_OUTER_BOUND ( 'NONE', #147, .T. ) ;
#313 = EDGE_LOOP ( 'NONE', ( #1113, #698, #895, #241 ) ) ;
#314 = EDGE_CURVE ( 'NONE', #1133, #448, #834, .T. ) ;
#315 = PLANE ( 'NONE',  #1053 ) ;
#316 = EDGE_CURVE ( 'NONE', #897, #952, #385, .T. ) ;
#317 = DIRECTION ( 'NONE',  ( -0.000000000000000000, 1.000000000000000000, 0.000000000000000000 ) ) ;
#318 = LINE ( 'NONE', #404, #634 ) ;
#319 = VERTEX_POINT ( 'NONE', #1024 ) ;
#320 = CARTESIAN_POINT ( 'NONE',  ( -200.7074237126729201, 11.31261557407336937, -166.8238195161569593 ) ) ;
#321 = VERTEX_POINT ( 'NONE', #198 ) ;
#322 = VERTEX_POINT ( 'NONE', #18 ) ;
#323 = FACE_OUTER_BOUND ( 'NONE', #218, .T. ) ;
#324 = FACE_OUTER_BOUND ( 'NONE', #347, .T. ) ;
#325 = EDGE_CURVE ( 'NONE', #888, #430, #747, .T. ) ;
#326 = ORIENTED_EDGE ( 'NONE', *, *, #440, .T. ) ;
#327 = DIRECTION ( 'NONE',  ( 0.000000000000000000, -1.000000000000000000, 0.000000000000000000 ) ) ;
#328 = ORIENTED_EDGE ( 'NONE', *, *, #387, .F. ) ;
#329 = ORIENTED_EDGE ( 'NONE', *, *, #25, .T. ) ;
#330 = VECTOR ( 'NONE', #817, 1000.000000000000000 ) ;
#331 = CARTESIAN_POINT ( 'NONE',  ( -400.0000000000000000, 7.500000000000000888, -174.9999999999999716 ) ) ;
#332 = CIRCLE ( 'NONE', #687, 68.68991189678028775 ) ;
#333 = AXIS2_PLACEMENT_3D ( 'NONE', #180, #286, #644 ) ;
#334 = EDGE_LOOP ( 'NONE', ( #862, #872, #797, #435, #805, #598, #673 ) ) ;
#335 = DIRECTION ( 'NONE',  ( -1.000000000000000000, -0.000000000000000000, -0.000000000000000000 ) ) ;
#336 = ORIENTED_EDGE ( 'NONE', *, *, #660, .T. ) ;
#337 = ORIENTED_EDGE ( 'NONE', *, *, #416, .F. ) ;
#338 = FACE_OUTER_BOUND ( 'NONE', #533, .T. ) ;
#339 = VERTEX_POINT ( 'NONE', #741 ) ;
#340 = DIRECTION ( 'NONE',  ( 0.000000000000000000, 0.000000000000000000, 1.000000000000000000 ) ) ;
#341 = ORIENTED_EDGE ( 'NONE', *, *, #791, .T. ) ;
#342 = ORIENTED_EDGE ( 'NONE', *, *, #512, .T. ) ;
#343 =( NAMED_UNIT ( * ) SI_UNIT ( $, .STERADIAN. ) SOLID_ANGLE_UNIT ( ) );
#344 = CARTESIAN_POINT ( 'NONE',  ( -213.8177647757845250, 7.500000000000000888, -92.97858299267569748 ) ) ;
#345 = ORIENTED_EDGE ( 'NONE', *, *, #696, .T. ) ;
#346 = EDGE_CURVE ( 'NONE', #430, #1161, #107, .T. ) ;
#347 = EDGE_LOOP ( 'NONE', ( #527, #47, #268, #143 ) ) ;
#348 = CARTESIAN_POINT ( 'NONE',  ( -74.61657888639949476, 17.50000000000000000, 104.9328176023758630 ) ) ;
#349 = CIRCLE ( 'NONE', #808, 12.46239114177459584 ) ;
#350 = VERTEX_POINT ( 'NONE', #934 ) ;
#351 = DIRECTION ( 'NONE',  ( -0.000000000000000000, -1.000000000000000000, -0.000000000000000000 ) ) ;
#352 = ORIENTED_EDGE ( 'NONE', *, *, #828, .F. ) ;
#353 = CARTESIAN_POINT ( 'NONE',  ( 0.000000000000000000, 7.500000000000000888, 175.0000000000000284 ) ) ;
#354 = CARTESIAN_POINT ( 'NONE',  ( -74.61657888639949476, 17.50000000000000000, 104.9328176023758630 ) ) ;
#355 = DIRECTION ( 'NONE',  ( 0.000000000000000000, -0.000000000000000000, 1.000000000000000000 ) ) ;
#356 = EDGE_CURVE ( 'NONE', #794, #975, #9, .T. ) ;
#357 = ORIENTED_EDGE ( 'NONE', *, *, #1107, .F. ) ;
#358 = EDGE_LOOP ( 'NONE', ( #41, #1171 ) ) ;
#359 = CARTESIAN_POINT ( 'NONE',  ( -400.0000000000000000, 11.31261557407336937, -166.8238195161569593 ) ) ;
#360 = CARTESIAN_POINT ( 'NONE',  ( -213.8177647757845250, 307.5000000000000000, -92.97858299267569748 ) ) ;
#361 = CARTESIAN_POINT ( 'NONE',  ( -213.8177647757845250, 307.5000000000000000, -17.97858299267566906 ) ) ;
#362 = DIRECTION ( 'NONE',  ( -0.000000000000000000, -1.000000000000000000, -0.000000000000000000 ) ) ;
#363 = AXIS2_PLACEMENT_3D ( 'NONE', #993, #436, #982 ) ;
#364 = EDGE_CURVE ( 'NONE', #128, #685, #381, .T. ) ;
#365 = VECTOR ( 'NONE', #752, 1000.000000000000000 ) ;
#366 = ADVANCED_FACE ( 'NONE', ( #926 ), #1019, .T. ) ;
#367 = CIRCLE ( 'NONE', #294, 12.46239114177459584 ) ;
#368 = DIRECTION ( 'NONE',  ( 0.000000000000000000, -0.000000000000000000, 1.000000000000000000 ) ) ;
#369 = ORIENTED_EDGE ( 'NONE', *, *, #297, .T. ) ;
#370 = DIRECTION ( 'NONE',  ( 0.000000000000000000, -1.000000000000000000, 0.000000000000000000 ) ) ;
#371 = CARTESIAN_POINT ( 'NONE',  ( -200.0000000000000000, -2.499999999999998668, -30.00000000000000000 ) ) ;
#372 = CARTESIAN_POINT ( 'NONE',  ( -198.0369097780221921, 7.499999999999998224, -166.3141433301336463 ) ) ;
#373 = CARTESIAN_POINT ( 'NONE',  ( -200.0000000000000000, -2.499999999999998668, 0.000000000000000000 ) ) ;
#374 = CARTESIAN_POINT ( 'NONE',  ( -213.8177647757845250, 77.77784683869955984, -24.28867109589541329 ) ) ;
#375 = LINE ( 'NONE', #199, #401 ) ;
#376 =( GEOMETRIC_REPRESENTATION_CONTEXT ( 3 ) GLOBAL_UNCERTAINTY_ASSIGNED_CONTEXT ( ( #302 ) ) GLOBAL_UNIT_ASSIGNED_CONTEXT ( ( #151, #613, #523 ) ) REPRESENTATION_CONTEXT ( 'NONE', 'WORKASPACE' ) );
#377 = EDGE_CURVE ( 'NONE', #1051, #793, #5, .T. ) ;
#378 = EDGE_LOOP ( 'NONE', ( #515, #929, #668, #837, #504, #1120, #251, #800, #513 ) ) ;
#379 = DIRECTION ( 'NONE',  ( 0.000000000000000000, 1.000000000000000000, 0.000000000000000000 ) ) ;
#380 = LINE ( 'NONE', #742, #566 ) ;
#381 = CIRCLE ( 'NONE', #77, 12.46239114177459584 ) ;
#382 = AXIS2_PLACEMENT_3D ( 'NONE', #683, #773, #489 ) ;
#383 = CARTESIAN_POINT ( 'NONE',  ( 0.000000000000000000, -7.499999999999999112, 175.0000000000000284 ) ) ;
#384 = VERTEX_POINT ( 'NONE', #647 ) ;
#385 = LINE ( 'NONE', #654, #36 ) ;
#386 = FACE_OUTER_BOUND ( 'NONE', #861, .T. ) ;
#387 = EDGE_CURVE ( 'NONE', #1051, #970, #1143, .T. ) ;
#388 = CARTESIAN_POINT ( 'NONE',  ( -213.8177647757845250, 9.500000000000003553, -167.9785829926757117 ) ) ;
#389 = ORIENTED_EDGE ( 'NONE', *, *, #550, .F. ) ;
#390 = CARTESIAN_POINT ( 'NONE',  ( -213.8177647757845250, 9.500000000000003553, -167.9785829926757117 ) ) ;
#391 = DIRECTION ( 'NONE',  ( 0.000000000000000000, 1.000000000000000000, 0.000000000000000000 ) ) ;
#392 = CARTESIAN_POINT ( 'NONE',  ( -329.4775736397589299, 17.50000000000000000, 104.9328176023758630 ) ) ;
#393 = VERTEX_POINT ( 'NONE', #921 ) ;
#394 = CARTESIAN_POINT ( 'NONE',  ( -271.0535161053152251, 307.5000000000000000, -54.99999999999997868 ) ) ;
#395 = LINE ( 'NONE', #1041, #553 ) ;
#396 = CARTESIAN_POINT ( 'NONE',  ( 99.99999999999997158, 9.500000000000003553, -165.9785829926757117 ) ) ;
#397 = EDGE_CURVE ( 'NONE', #496, #681, #855, .T. ) ;
#398 = AXIS2_PLACEMENT_3D ( 'NONE', #547, #555, #368 ) ;
#399 = CARTESIAN_POINT ( 'NONE',  ( -74.61657888639949476, 17.50000000000000000, 117.3952087441505086 ) ) ;
#400 = ORIENTED_EDGE ( 'NONE', *, *, #984, .T. ) ;
#401 = VECTOR ( 'NONE', #1097, 1000.000000000000000 ) ;
#402 = CARTESIAN_POINT ( 'NONE',  ( -213.8177647757845250, 307.5000000000000000, -167.9785829926757117 ) ) ;
#403 = VECTOR ( 'NONE', #768, 1000.000000000000000 ) ;
#404 = CARTESIAN_POINT ( 'NONE',  ( 99.99999999999997158, 7.500000000000001776, -165.9785829926756833 ) ) ;
#405 = ORIENTED_EDGE ( 'NONE', *, *, #512, .F. ) ;
#406 = DIRECTION ( 'NONE',  ( 0.000000000000000000, 1.000000000000000000, 0.000000000000000000 ) ) ;
#407 = VERTEX_POINT ( 'NONE', #19 ) ;
#408 = ORIENTED_EDGE ( 'NONE', *, *, #968, .T. ) ;
#409 = CYLINDRICAL_SURFACE ( 'NONE', #176, 12.46239114177463669 ) ;
#410 = FACE_OUTER_BOUND ( 'NONE', #784, .T. ) ;
#411 = VERTEX_POINT ( 'NONE', #473 ) ;
#412 = CARTESIAN_POINT ( 'NONE',  ( 0.000000000000000000, 182.6639248764650461, 160.7511026367120337 ) ) ;
#413 = ORIENTED_EDGE ( 'NONE', *, *, #206, .T. ) ;
#414 = ORIENTED_EDGE ( 'NONE', *, *, #659, .F. ) ;
#415 = CARTESIAN_POINT ( 'NONE',  ( -213.8177647757845250, 7.500000000000000888, -167.9785829926757117 ) ) ;
#416 = EDGE_CURVE ( 'NONE', #141, #1155, #665, .T. ) ;
#417 = PLANE ( 'NONE',  #382 ) ;
#418 = VERTEX_POINT ( 'NONE', #733 ) ;
#419 = FACE_OUTER_BOUND ( 'NONE', #1031, .T. ) ;
#420 = UNCERTAINTY_MEASURE_WITH_UNIT (LENGTH_MEASURE( 1.000000000000000082E-05 ), #905, 'distance_accuracy_value', 'NONE');
#421 = ORIENTED_EDGE ( 'NONE', *, *, #356, .T. ) ;
#422 = CIRCLE ( 'NONE', #95, 68.68991189678028775 ) ;
#423 = VERTEX_POINT ( 'NONE', #183 ) ;
#424 = FACE_OUTER_BOUND ( 'NONE', #703, .T. ) ;
#425 = AXIS2_PLACEMENT_3D ( 'NONE', #631, #181, #97 ) ;
#426 = PRODUCT_RELATED_PRODUCT_CATEGORY ( 'part', '', ( #45 ) ) ;
#427 = PRESENTATION_LAYER_ASSIGNMENT (  '', '', ( #841 ) ) ;
#428 =( GEOMETRIC_REPRESENTATION_CONTEXT ( 3 ) GLOBAL_UNCERTAINTY_ASSIGNED_CONTEXT ( ( #420 ) ) GLOBAL_UNIT_ASSIGNED_CONTEXT ( ( #905, #1181, #343 ) ) REPRESENTATION_CONTEXT ( 'NONE', 'WORKASPACE' ) );
#429 = EDGE_CURVE ( 'NONE', #321, #1166, #824, .T. ) ;
#430 = VERTEX_POINT ( 'NONE', #1115 ) ;
#431 = CARTESIAN_POINT ( 'NONE',  ( -150.3769731102270555, 132.5305411121489385, -54.99999999999997868 ) ) ;
#432 = ORIENTED_EDGE ( 'NONE', *, *, #928, .T. ) ;
#433 = ORIENTED_EDGE ( 'NONE', *, *, #599, .T. ) ;
#434 = CARTESIAN_POINT ( 'NONE',  ( -74.61657888639949476, -7.499999999999999112, 104.9328176023758630 ) ) ;
#435 = ORIENTED_EDGE ( 'NONE', *, *, #260, .F. ) ;
#436 = DIRECTION ( 'NONE',  ( -0.000000000000000000, -1.000000000000000000, -0.000000000000000000 ) ) ;
#437 = ORIENTED_EDGE ( 'NONE', *, *, #877, .T. ) ;
#438 = PLANE ( 'NONE',  #1010 ) ;
#439 = ORIENTED_EDGE ( 'NONE', *, *, #188, .T. ) ;
#440 = EDGE_CURVE ( 'NONE', #423, #321, #927, .T. ) ;
#441 = ORIENTED_EDGE ( 'NONE', *, *, #1021, .T. ) ;
#443 = AXIS2_PLACEMENT_3D ( 'NONE', #831, #88, #818 ) ;
#442 = CARTESIAN_POINT ( 'NONE',  ( -156.5820134462537681, 252.5305411121489101, -54.99999999999997868 ) ) ;
#444 = CIRCLE ( 'NONE', #857, 12.46239114177459584 ) ;
#445 = VECTOR ( 'NONE', #693, 1000.000000000000000 ) ;
#446 = EDGE_LOOP ( 'NONE', ( #958, #1043, #1127, #400 ) ) ;
#447 = CARTESIAN_POINT ( 'NONE',  ( -208.0676998741623436, 8.582540778849326202, -167.7716608349421961 ) ) ;
#448 = VERTEX_POINT ( 'NONE', #100 ) ;
#449 = VERTEX_POINT ( 'NONE', #464 ) ;
#450 = LINE ( 'NONE', #806, #1147 ) ;
#451 = DIRECTION ( 'NONE',  ( 0.000000000000000000, 0.9063077870366526012, -0.4226182617406937236 ) ) ;
#452 = DIRECTION ( 'NONE',  ( -0.000000000000000000, -0.9063077870366543776, 0.4226182617406899489 ) ) ;
#453 = EDGE_CURVE ( 'NONE', #1161, #985, #304, .T. ) ;
#454 = DIRECTION ( 'NONE',  ( -0.000000000000000000, 0.000000000000000000, 1.000000000000000000 ) ) ;
#455 = ADVANCED_FACE ( 'NONE', ( #6 ), #1110, .F. ) ;
#456 = CARTESIAN_POINT ( 'NONE',  ( -200.7074237126729201, 11.31261557407336937, -166.8238195161569593 ) ) ;
#457 = DIRECTION ( 'NONE',  ( -0.000000000000000000, 1.000000000000000000, 0.000000000000000000 ) ) ;
#458 = DIRECTION ( 'NONE',  ( 0.000000000000000000, 0.000000000000000000, -1.000000000000000000 ) ) ;
#459 = AXIS2_PLACEMENT_3D ( 'NONE', #623, #457, #355 ) ;
#460 = CIRCLE ( 'NONE', #1125, 75.00000000000002842 ) ;
#461 = SURFACE_STYLE_FILL_AREA ( #730 ) ;
#462 = DIRECTION ( 'NONE',  ( 0.000000000000000000, 1.000000000000000000, 0.000000000000000000 ) ) ;
#463 = FACE_OUTER_BOUND ( 'NONE', #710, .T. ) ;
#464 = CARTESIAN_POINT ( 'NONE',  ( -400.0000000000000000, 9.500000000000001776, -167.9785829926757117 ) ) ;
#465 = EDGE_CURVE ( 'NONE', #695, #1149, #375, .T. ) ;
#466 = LINE ( 'NONE', #833, #788 ) ;
#467 = DIRECTION ( 'NONE',  ( 1.000000000000000000, 2.135044278125301343E-16, 0.000000000000000000 ) ) ;
#468 = DIRECTION ( 'NONE',  ( 1.000000000000000000, 0.000000000000000000, 0.000000000000000000 ) ) ;
#469 = DIRECTION ( 'NONE',  ( -0.000000000000000000, 1.000000000000000000, -0.000000000000000000 ) ) ;
#470 = EDGE_CURVE ( 'NONE', #967, #646, #109, .T. ) ;
#471 = ORIENTED_EDGE ( 'NONE', *, *, #483, .T. ) ;
#472 = DIRECTION ( 'NONE',  ( 0.000000000000000000, 0.000000000000000000, 1.000000000000000000 ) ) ;
#473 = CARTESIAN_POINT ( 'NONE',  ( -400.0000000000000000, 7.500000000000000888, 175.0000000000000284 ) ) ;
#474 = VECTOR ( 'NONE', #561, 1000.000000000000000 ) ;
#475 = AXIS2_PLACEMENT_3D ( 'NONE', #864, #216, #43 ) ;
#476 = CARTESIAN_POINT ( 'NONE',  ( -224.7491829277102795, 11.13222829098835298, -167.2106612931048062 ) ) ;
#477 = LINE ( 'NONE', #930, #1009 ) ;
#478 = ADVANCED_FACE ( 'NONE', ( #386 ), #479, .T. ) ;
#479 = CYLINDRICAL_SURFACE ( 'NONE', #232, 75.00000000000001421 ) ;
#480 = CARTESIAN_POINT ( 'NONE',  ( 0.000000000000000000, 9.500000000000001776, -165.9785829926757117 ) ) ;
#481 = LINE ( 'NONE', #402, #235 ) ;
#482 = CARTESIAN_POINT ( 'NONE',  ( -74.61657888639949476, 7.500000000000000000, 104.9328176023758630 ) ) ;
#483 = EDGE_CURVE ( 'NONE', #339, #1064, #35, .T. ) ;
#484 = LINE ( 'NONE', #587, #276 ) ;
#485 = ADVANCED_FACE ( 'NONE', ( #911 ), #844, .F. ) ;
#486 = CARTESIAN_POINT ( 'NONE',  ( -213.8177647757845250, 80.72028924486363621, -17.97858299267566906 ) ) ;
#487 = ORIENTED_EDGE ( 'NONE', *, *, #684, .F. ) ;
#488 = CARTESIAN_POINT ( 'NONE',  ( -213.8177647757845250, 13.71658292777905253, -161.6684948894559852 ) ) ;
#489 = DIRECTION ( 'NONE',  ( 0.000000000000000000, 0.4226182617406936681, 0.9063077870366527122 ) ) ;
#490 = CARTESIAN_POINT ( 'NONE',  ( -329.4775736397589299, -7.499999999999999112, 104.9328176023758630 ) ) ;
#491 = ORIENTED_EDGE ( 'NONE', *, *, #878, .T. ) ;
#492 = AXIS2_PLACEMENT_3D ( 'NONE', #751, #303, #662 ) ;
#493 = CARTESIAN_POINT ( 'NONE',  ( -400.0000000000000000, 22.77842950260112431, -182.1244486816440258 ) ) ;
#494 = EDGE_LOOP ( 'NONE', ( #197, #329, #58, #213, #44, #1173, #48, #139, #755, #1175 ) ) ;
#495 = VECTOR ( 'NONE', #469, 1000.000000000000000 ) ;
#496 = VERTEX_POINT ( 'NONE', #1190 ) ;
#497 = CARTESIAN_POINT ( 'NONE',  ( -278.4909990684070067, 252.5305411121489101, -54.99999999999997868 ) ) ;
#498 = CIRCLE ( 'NONE', #998, 68.68991189678028775 ) ;
#499 = LINE ( 'NONE', #865, #309 ) ;
#500 = VERTEX_POINT ( 'NONE', #371 ) ;
#501 = EDGE_CURVE ( 'NONE', #500, #812, #1007, .T. ) ;
#502 = DIRECTION ( 'NONE',  ( 0.000000000000000000, 0.000000000000000000, -1.000000000000000000 ) ) ;
#503 = ORIENTED_EDGE ( 'NONE', *, *, #1032, .F. ) ;
#504 = ORIENTED_EDGE ( 'NONE', *, *, #215, .T. ) ;
#505 = DIRECTION ( 'NONE',  ( 1.000000000000000000, 0.000000000000000000, 0.000000000000000000 ) ) ;
#506 =( NAMED_UNIT ( * ) PLANE_ANGLE_UNIT ( ) SI_UNIT ( $, .RADIAN. ) );
#507 = ORIENTED_EDGE ( 'NONE', *, *, #660, .F. ) ;
#508 = DIRECTION ( 'NONE',  ( 0.000000000000000000, 0.000000000000000000, -1.000000000000000000 ) ) ;
#509 = ORIENTED_EDGE ( 'NONE', *, *, #125, .T. ) ;
#510 = ORIENTED_EDGE ( 'NONE', *, *, #803, .T. ) ;
#511 = CARTESIAN_POINT ( 'NONE',  ( -213.8177647757845250, 132.5305411121489385, -92.97858299267569748 ) ) ;
#512 = EDGE_CURVE ( 'NONE', #888, #238, #380, .T. ) ;
#513 = ORIENTED_EDGE ( 'NONE', *, *, #152, .T. ) ;
#514 = DIRECTION ( 'NONE',  ( 1.000000000000000000, 0.000000000000000000, 0.000000000000000000 ) ) ;
#515 = ORIENTED_EDGE ( 'NONE', *, *, #947, .F. ) ;
#516 = ORIENTED_EDGE ( 'NONE', *, *, #949, .F. ) ;
#517 = AXIS2_PLACEMENT_3D ( 'NONE', #373, #1099, #915 ) ;
#518 = COLOUR_RGB ( '',0.7921568627450980005, 0.8196078431372548767, 0.9333333333333333481 ) ;
#519 = AXIS2_PLACEMENT_3D ( 'NONE', #965, #1134, #764 ) ;
#520 = PLANE ( 'NONE',  #785 ) ;
#521 = VERTEX_POINT ( 'NONE', #296 ) ;
#522 = DIRECTION ( 'NONE',  ( 1.000000000000000000, 4.040706247714652331E-16, 0.000000000000000000 ) ) ;
#523 =( NAMED_UNIT ( * ) SI_UNIT ( $, .STERADIAN. ) SOLID_ANGLE_UNIT ( ) );
#524 = MANIFOLD_SOLID_BREP ( 'Cut-Extrude2', #839 ) ;
#525 = ADVANCED_FACE ( 'NONE', ( #123 ), #655, .F. ) ;
#526 = ADVANCED_FACE ( 'NONE', ( #1025 ), #310, .F. ) ;
#527 = ORIENTED_EDGE ( 'NONE', *, *, #106, .F. ) ;
#528 = CARTESIAN_POINT ( 'NONE',  ( -280.3769731102270271, 132.5305411121489101, -54.99999999999997868 ) ) ;
#529 = EDGE_LOOP ( 'NONE', ( #581, #786 ) ) ;
#530 = ORIENTED_EDGE ( 'NONE', *, *, #416, .T. ) ;
#531 = CARTESIAN_POINT ( 'NONE',  ( 0.000000000000000000, 0.000000000000000000, 0.000000000000000000 ) ) ;
#532 = CYLINDRICAL_SURFACE ( 'NONE', #760, 12.46239114177463669 ) ;
#533 = EDGE_LOOP ( 'NONE', ( #680, #487, #976, #740 ) ) ;
#534 = CARTESIAN_POINT ( 'NONE',  ( -212.3776988795243312, 9.265172265735913015, -167.9656203756665036 ) ) ;
#535 = ORIENTED_EDGE ( 'NONE', *, *, #984, .F. ) ;
#536 = EDGE_LOOP ( 'NONE', ( #1140, #61, #256, #535, #1015, #879, #1150, #1066, #847, #611 ) ) ;
#537 = LINE ( 'NONE', #179, #254 ) ;
#538 = ADVANCED_BREP_SHAPE_REPRESENTATION ( 'upper shot', ( #524, #916, #922, #753 ), #428 ) ;
#539 = VECTOR ( 'NONE', #71, 1000.000000000000000 ) ;
#540 = AXIS2_PLACEMENT_3D ( 'NONE', #511, #603, #863 ) ;
#541 = CARTESIAN_POINT ( 'NONE',  ( 0.000000000000000000, 167.3854953738639324, 167.8755513183560026 ) ) ;
#542 = CARTESIAN_POINT ( 'NONE',  ( -205.0726100345241036, 10.85109518895046676, -167.4992687000815010 ) ) ;
#543 = CARTESIAN_POINT ( 'NONE',  ( 0.000000000000000000, -7.499999999999999112, -174.9999999999999716 ) ) ;
#544 = CARTESIAN_POINT ( 'NONE',  ( -202.8863325156096664, 11.13222945897309479, -167.2106587883533848 ) ) ;
#545 = DIRECTION ( 'NONE',  ( 0.000000000000000000, -1.000000000000000000, 0.000000000000000000 ) ) ;
#546 = DIRECTION ( 'NONE',  ( 0.000000000000000000, 0.000000000000000000, 1.000000000000000000 ) ) ;
#547 = CARTESIAN_POINT ( 'NONE',  ( -213.8177647757845250, 307.5000000000000000, -92.97858299267569748 ) ) ;
#548 = PLANE ( 'NONE',  #782 ) ;
#549 = DIRECTION ( 'NONE',  ( 1.000000000000000000, 3.700743415417187646E-16, 0.000000000000000000 ) ) ;
#550 = EDGE_CURVE ( 'NONE', #812, #1163, #1146, .T. ) ;
#551 = VECTOR ( 'NONE', #105, 1000.000000000000114 ) ;
#552 = VECTOR ( 'NONE', #1189, 1000.000000000000000 ) ;
#553 = VECTOR ( 'NONE', #224, 1000.000000000000114 ) ;
#554 = FILL_AREA_STYLE_COLOUR ( '', #174 ) ;
#555 = DIRECTION ( 'NONE',  ( 0.000000000000000000, 1.000000000000000000, 0.000000000000000000 ) ) ;
#556 = ORIENTED_EDGE ( 'NONE', *, *, #1111, .T. ) ;
#557 = DIRECTION ( 'NONE',  ( 2.135044278125301343E-16, -1.000000000000000000, 0.000000000000000000 ) ) ;
#558 = CARTESIAN_POINT ( 'NONE',  ( -213.8177647757845250, 7.500000000000000888, -92.97858299267569748 ) ) ;
#559 = EDGE_CURVE ( 'NONE', #856, #897, #395, .T. ) ;
#560 = VERTEX_POINT ( 'NONE', #586 ) ;
#561 = DIRECTION ( 'NONE',  ( -0.000000000000000000, -1.000000000000000000, -0.000000000000000000 ) ) ;
#562 = DIRECTION ( 'NONE',  ( -0.000000000000000000, -1.000000000000000000, -0.000000000000000000 ) ) ;
#563 = CARTESIAN_POINT ( 'NONE',  ( -329.4775736397589299, -7.499999999999999112, 117.3952087441504659 ) ) ;
#564 = CARTESIAN_POINT ( 'NONE',  ( -329.4775736397589299, -7.499999999999999112, 104.9328176023758630 ) ) ;
#565 = CARTESIAN_POINT ( 'NONE',  ( -400.0000000000000000, 22.77842950260112431, -182.1244486816440258 ) ) ;
#566 = VECTOR ( 'NONE', #931, 1000.000000000000000 ) ;
#567 = VECTOR ( 'NONE', #938, 1000.000000000000000 ) ;
#568 = DIRECTION ( 'NONE',  ( -0.000000000000000000, -1.000000000000000000, -0.000000000000000000 ) ) ;
#569 = ADVANCED_FACE ( 'NONE', ( #597 ), #572, .T. ) ;
#570 = DIRECTION ( 'NONE',  ( -1.000000000000000000, -0.000000000000000000, -0.000000000000000000 ) ) ;
#571 = DIRECTION ( 'NONE',  ( -0.000000000000000000, -0.9063077870366543776, 0.4226182617406899489 ) ) ;
#572 = CYLINDRICAL_SURFACE ( 'NONE', #475, 75.00000000000001421 ) ;
#573 = LINE ( 'NONE', #854, #134 ) ;
#574 = FACE_OUTER_BOUND ( 'NONE', #715, .T. ) ;
#575 = ORIENTED_EDGE ( 'NONE', *, *, #274, .F. ) ;
#576 = LINE ( 'NONE', #870, #445 ) ;
#577 = DIRECTION ( 'NONE',  ( 0.000000000000000000, 0.000000000000000000, 1.000000000000000000 ) ) ;
#578 = ORIENTED_EDGE ( 'NONE', *, *, #24, .F. ) ;
#579 = MECHANICAL_DESIGN_GEOMETRIC_PRESENTATION_REPRESENTATION (  '', ( #30 ), #376 ) ;
#580 = DIRECTION ( 'NONE',  ( -0.000000000000000000, 0.000000000000000000, 1.000000000000000000 ) ) ;
#581 = ORIENTED_EDGE ( 'NONE', *, *, #483, .F. ) ;
#582 = B_SPLINE_CURVE_WITH_KNOTS ( 'NONE', 3,
 ( #2, #275, #827, #534, #279, #1004, #80, #447, #907, #635, #7, #811, #372, #820 ),
 .UNSPECIFIED., .F., .F.,
 ( 4, 2, 2, 2, 2, 2, 4 ),
 ( -5.477225922251652957E-05, 0.001035941761409104244, 0.002126655782040725012, 0.004308083823304048945, 0.008670939905830617883, 0.01303379598835718856, 0.01739665207088375576 ),
 .UNSPECIFIED. ) ;
#583 = ORIENTED_EDGE ( 'NONE', *, *, #274, .T. ) ;
#584 =( BOUNDED_CURVE ( )  B_SPLINE_CURVE ( 3, ( #486, #672, #851, #320 ),
 .UNSPECIFIED., .F., .T. ) 
 B_SPLINE_CURVE_WITH_KNOTS ( ( 4, 4 ),
 ( 3.141592653589793116, 6.107478051418234521 ),
 .UNSPECIFIED. ) 
 CURVE ( )  GEOMETRIC_REPRESENTATION_ITEM ( )  RATIONAL_B_SPLINE_CURVE ( ( 1.000000000000000000, 0.3918271057532019541, 0.3918271057532019541, 1.000000000000000000 ) ) 
 REPRESENTATION_ITEM ( '' )  );
#585 = DIRECTION ( 'NONE',  ( 1.000000000000000000, 0.000000000000000000, 0.000000000000000000 ) ) ;
#586 = CARTESIAN_POINT ( 'NONE',  ( -400.0000000000000000, 167.3854953738639324, 167.8755513183560026 ) ) ;
#587 = CARTESIAN_POINT ( 'NONE',  ( -400.0000000000000000, 7.500000000000000888, 175.0000000000000284 ) ) ;
#588 = ADVANCED_FACE ( 'NONE', ( #51, #410 ), #417, .F. ) ;
#589 = ORIENTED_EDGE ( 'NONE', *, *, #364, .F. ) ;
#590 = AXIS2_PLACEMENT_3D ( 'NONE', #558, #391, #546 ) ;
#591 = CARTESIAN_POINT ( 'NONE',  ( -213.8177647757845250, 77.77784683869955984, -24.28867109589541329 ) ) ;
#592 = ORIENTED_EDGE ( 'NONE', *, *, #795, .F. ) ;
#593 =( GEOMETRIC_REPRESENTATION_CONTEXT ( 3 ) GLOBAL_UNCERTAINTY_ASSIGNED_CONTEXT ( ( #282 ) ) GLOBAL_UNIT_ASSIGNED_CONTEXT ( ( #871, #506, #118 ) ) REPRESENTATION_CONTEXT ( 'NONE', 'WORKASPACE' ) );
#594 = ORIENTED_EDGE ( 'NONE', *, *, #103, .T. ) ;
#595 = CARTESIAN_POINT ( 'NONE',  ( -213.8177647757845250, 307.5000000000000000, -167.9785829926757117 ) ) ;
#596 = AXIS2_PLACEMENT_3D ( 'NONE', #756, #231, #1151 ) ;
#597 = FACE_OUTER_BOUND ( 'NONE', #892, .T. ) ;
#598 = ORIENTED_EDGE ( 'NONE', *, *, #878, .F. ) ;
#599 = EDGE_CURVE ( 'NONE', #681, #496, #112, .T. ) ;
#600 = FACE_OUTER_BOUND ( 'NONE', #1169, .T. ) ;
#601 = ORIENTED_EDGE ( 'NONE', *, *, #1060, .F. ) ;
#602 = DIRECTION ( 'NONE',  ( 0.000000000000000000, -0.9063077870366542665, 0.4226182617406898934 ) ) ;
#603 = DIRECTION ( 'NONE',  ( 2.135044278125301343E-16, -1.000000000000000000, 0.000000000000000000 ) ) ;
#604 = ORIENTED_EDGE ( 'NONE', *, *, #65, .F. ) ;
#605 = CARTESIAN_POINT ( 'NONE',  ( -200.0000000000000000, -7.499999999999999112, 0.000000000000000000 ) ) ;
#606 = EDGE_LOOP ( 'NONE', ( #1046, #369 ) ) ;
#607 = EDGE_CURVE ( 'NONE', #423, #990, #1122, .T. ) ;
#608 = VERTEX_POINT ( 'NONE', #946 ) ;
#609 = ORIENTED_EDGE ( 'NONE', *, *, #470, .F. ) ;
#610 = CARTESIAN_POINT ( 'NONE',  ( -213.8177647757845250, 252.5305411121489101, -92.97858299267569748 ) ) ;
#611 = ORIENTED_EDGE ( 'NONE', *, *, #440, .F. ) ;
#612 = CYLINDRICAL_SURFACE ( 'NONE', #363, 75.00000000000001421 ) ;
#613 =( NAMED_UNIT ( * ) PLANE_ANGLE_UNIT ( ) SI_UNIT ( $, .RADIAN. ) );
#614 = ADVANCED_FACE ( 'NONE', ( #324 ), #233, .T. ) ;
#615 = AXIS2_PLACEMENT_3D ( 'NONE', #920, #1081, #266 ) ;
#616 = AXIS2_PLACEMENT_3D ( 'NONE', #480, #306, #1126 ) ;
#617 = EDGE_CURVE ( 'NONE', #1062, #418, #219, .T. ) ;
#618 = ORIENTED_EDGE ( 'NONE', *, *, #301, .T. ) ;
#619 = DIRECTION ( 'NONE',  ( 0.000000000000000000, 1.000000000000000000, 0.000000000000000000 ) ) ;
#620 = ORIENTED_EDGE ( 'NONE', *, *, #816, .T. ) ;
#621 = CARTESIAN_POINT ( 'NONE',  ( 0.000000000000000000, 9.500000000000001776, -167.9785829926757117 ) ) ;
#622 = FILL_AREA_STYLE ('',( #1073 ) ) ;
#623 = CARTESIAN_POINT ( 'NONE',  ( -400.0000000000000000, 7.500000000000000888, 175.0000000000000284 ) ) ;
#624 = ORIENTED_EDGE ( 'NONE', *, *, #267, .F. ) ;
#625 = CARTESIAN_POINT ( 'NONE',  ( 0.000000000000000000, 22.77842950260112431, -182.1244486816440258 ) ) ;
#626 = EDGE_LOOP ( 'NONE', ( #163, #341, #169, #678 ) ) ;
#627 = LINE ( 'NONE', #353, #20 ) ;
#628 = APPLICATION_PROTOCOL_DEFINITION ( 'draft international standard', 'automotive_design', 1998, #767 ) ;
#629 = CARTESIAN_POINT ( 'NONE',  ( -400.0000000000000000, 7.500000000000000888, -174.9999999999999716 ) ) ;
#630 = ORIENTED_EDGE ( 'NONE', *, *, #82, .T. ) ;
#631 = CARTESIAN_POINT ( 'NONE',  ( -213.8177647757845250, 252.5305411121489101, -92.97858299267569748 ) ) ;
#632 = CARTESIAN_POINT ( 'NONE',  ( -200.0000000000000000, -2.499999999999998668, 30.00000000000000000 ) ) ;
#633 = VECTOR ( 'NONE', #1118, 1000.000000000000000 ) ;
#634 = VECTOR ( 'NONE', #850, 1000.000000000000000 ) ;
#635 = CARTESIAN_POINT ( 'NONE',  ( -203.7684686169389181, 7.992113213602401345, -167.3162743850820107 ) ) ;
#636 = ADVANCED_FACE ( 'NONE', ( #116, #943, #656, #574 ), #846, .T. ) ;
#637 = CARTESIAN_POINT ( 'NONE',  ( 0.000000000000000000, 7.500000000000000888, 175.0000000000000284 ) ) ;
#638 = CARTESIAN_POINT ( 'NONE',  ( -340.9329307401292226, 80.72028924486357937, -17.97858299267569748 ) ) ;
#639 = SURFACE_SIDE_STYLE ('',( #461 ) ) ;
#640 = CYLINDRICAL_SURFACE ( 'NONE', #517, 30.00000000000000000 ) ;
#641 = EDGE_CURVE ( 'NONE', #1155, #794, #460, .T. ) ;
#642 = DIRECTION ( 'NONE',  ( 1.000000000000000000, 0.000000000000000000, 0.000000000000000000 ) ) ;
#643 = CARTESIAN_POINT ( 'NONE',  ( -329.4775736397589299, 17.50000000000000000, 104.9328176023758630 ) ) ;
#644 = DIRECTION ( 'NONE',  ( 0.000000000000000000, 0.000000000000000000, -1.000000000000000000 ) ) ;
#645 = LINE ( 'NONE', #637, #1142 ) ;
#646 = VERTEX_POINT ( 'NONE', #383 ) ;
#647 = CARTESIAN_POINT ( 'NONE',  ( -329.4775736397589299, 7.500000000000000000, 117.3952087441504659 ) ) ;
#648 = DIRECTION ( 'NONE',  ( 0.000000000000000000, 0.4226182617406936126, 0.9063077870366526012 ) ) ;
#649 = AXIS2_PLACEMENT_3D ( 'NONE', #663, #195, #1013 ) ;
#650 = EDGE_CURVE ( 'NONE', #81, #830, #1018, .T. ) ;
#651 = VECTOR ( 'NONE', #1054, 1000.000000000000000 ) ;
#652 = VECTOR ( 'NONE', #311, 1000.000000000000000 ) ;
#653 = VERTEX_POINT ( 'NONE', #1108 ) ;
#654 = CARTESIAN_POINT ( 'NONE',  ( 0.000000000000000000, 167.3854953738639324, 167.8755513183560026 ) ) ;
#655 = PLANE ( 'NONE',  #156 ) ;
#656 = FACE_BOUND ( 'NONE', #121, .T. ) ;
#657 = DIRECTION ( 'NONE',  ( 0.000000000000000000, -1.000000000000000000, 0.000000000000000000 ) ) ;
#658 = FILL_AREA_STYLE ('',( #748 ) ) ;
#659 = EDGE_CURVE ( 'NONE', #264, #384, #444, .T. ) ;
#660 = EDGE_CURVE ( 'NONE', #793, #129, #584, .T. ) ;
#661 = CARTESIAN_POINT ( 'NONE',  ( -400.0000000000000000, 11.31261557407336937, -166.8238195161569593 ) ) ;
#662 = DIRECTION ( 'NONE',  ( 0.000000000000000000, 0.000000000000000000, -1.000000000000000000 ) ) ;
#663 = CARTESIAN_POINT ( 'NONE',  ( -74.61657888639949476, 7.500000000000000000, 104.9328176023758630 ) ) ;
#664 = DIRECTION ( 'NONE',  ( 1.000000000000000000, 0.000000000000000000, 0.000000000000000000 ) ) ;
#665 = CIRCLE ( 'NONE', #590, 75.00000000000002842 ) ;
#666 = CIRCLE ( 'NONE', #761, 30.00000000000000000 ) ;
#667 = MECHANICAL_DESIGN_GEOMETRIC_PRESENTATION_REPRESENTATION (  '', ( #983 ), #157 ) ;
#668 = ORIENTED_EDGE ( 'NONE', *, *, #314, .T. ) ;
#669 = DIRECTION ( 'NONE',  ( -0.000000000000000000, -1.000000000000000000, -0.000000000000000000 ) ) ;
#670 = DIRECTION ( 'NONE',  ( 1.000000000000000000, 0.000000000000000000, 0.000000000000000000 ) ) ;
#671 = CARTESIAN_POINT ( 'NONE',  ( -213.8177647757845250, 9.500000000000003553, -167.9785829926757117 ) ) ;
#672 = CARTESIAN_POINT ( 'NONE',  ( -86.70259881143960001, 80.72028924486362200, -17.97858299267566906 ) ) ;
#673 = ORIENTED_EDGE ( 'NONE', *, *, #152, .F. ) ;
#674 = PLANE ( 'NONE',  #902 ) ;
#675 = ADVANCED_FACE ( 'NONE', ( #679 ), #298, .F. ) ;
#676 = DIRECTION ( 'NONE',  ( -0.000000000000000000, -1.000000000000000000, -0.000000000000000000 ) ) ;
#677 = LINE ( 'NONE', #124, #886 ) ;
#678 = ORIENTED_EDGE ( 'NONE', *, *, #465, .T. ) ;
#679 = FACE_OUTER_BOUND ( 'NONE', #918, .T. ) ;
#680 = ORIENTED_EDGE ( 'NONE', *, *, #559, .F. ) ;
#681 = VERTEX_POINT ( 'NONE', #1038 ) ;
#682 = CARTESIAN_POINT ( 'NONE',  ( -74.61657888639949476, -7.499999999999999112, 117.3952087441505086 ) ) ;
#683 = CARTESIAN_POINT ( 'NONE',  ( 99.99999999999997158, 89.34905547396864733, 0.5258659010995148098 ) ) ;
#684 = EDGE_CURVE ( 'NONE', #321, #856, #842, .T. ) ;
#685 = VERTEX_POINT ( 'NONE', #563 ) ;
#686 = AXIS2_PLACEMENT_3D ( 'NONE', #265, #1057, #602 ) ;
#687 = AXIS2_PLACEMENT_3D ( 'NONE', #1096, #284, #84 ) ;
#688 = DIRECTION ( 'NONE',  ( -0.000000000000000000, -0.000000000000000000, 1.000000000000000000 ) ) ;
#689 = VERTEX_POINT ( 'NONE', #110 ) ;
#690 = CIRCLE ( 'NONE', #1071, 12.46239114177463669 ) ;
#691 = ORIENTED_EDGE ( 'NONE', *, *, #226, .F. ) ;
#692 = DIRECTION ( 'NONE',  ( 2.135044278125301343E-16, -1.000000000000000000, 0.000000000000000000 ) ) ;
#693 = DIRECTION ( 'NONE',  ( -0.000000000000000000, 1.000000000000000000, -0.000000000000000000 ) ) ;
#694 = VECTOR ( 'NONE', #585, 1000.000000000000000 ) ;
#695 = VERTEX_POINT ( 'NONE', #932 ) ;
#696 = EDGE_CURVE ( 'NONE', #689, #423, #39, .T. ) ;
#697 = CARTESIAN_POINT ( 'NONE',  ( 0.000000000000000000, 0.000000000000000000, -54.99999999999997868 ) ) ;
#698 = ORIENTED_EDGE ( 'NONE', *, *, #346, .F. ) ;
#699 = ORIENTED_EDGE ( 'NONE', *, *, #735, .F. ) ;
#700 = ORIENTED_EDGE ( 'NONE', *, *, #283, .T. ) ;
#701 = EDGE_CURVE ( 'NONE', #448, #52, #305, .T. ) ;
#702 = DIRECTION ( 'NONE',  ( 0.000000000000000000, -0.000000000000000000, 1.000000000000000000 ) ) ;
#703 = EDGE_LOOP ( 'NONE', ( #4, #1055, #173, #852 ) ) ;
#704 = EDGE_CURVE ( 'NONE', #496, #1064, #750, .T. ) ;
#705 = ORIENTED_EDGE ( 'NONE', *, *, #789, .F. ) ;
#706 = CYLINDRICAL_SURFACE ( 'NONE', #823, 75.00000000000001421 ) ;
#707 = AXIS2_PLACEMENT_3D ( 'NONE', #829, #462, #1095 ) ;
#708 = ORIENTED_EDGE ( 'NONE', *, *, #316, .F. ) ;
#709 = AXIS2_PLACEMENT_3D ( 'NONE', #822, #370, #1182 ) ;
#710 = EDGE_LOOP ( 'NONE', ( #413, #716 ) ) ;
#711 = CIRCLE ( 'NONE', #901, 30.00000000000000000 ) ;
#712 = CARTESIAN_POINT ( 'NONE',  ( 0.000000000000000000, 0.000000000000000000, -54.99999999999997868 ) ) ;
#713 = ORIENTED_EDGE ( 'NONE', *, *, #1135, .F. ) ;
#714 = DIRECTION ( 'NONE',  ( -0.000000000000000000, -1.000000000000000000, -0.000000000000000000 ) ) ;
#715 = EDGE_LOOP ( 'NONE', ( #516, #609, #594, #883 ) ) ;
#716 = ORIENTED_EDGE ( 'NONE', *, *, #819, .T. ) ;
#717 = EDGE_CURVE ( 'NONE', #560, #952, #762, .T. ) ;
#718 = CARTESIAN_POINT ( 'NONE',  ( -200.0000000000000000, -2.499999999999998668, 0.000000000000000000 ) ) ;
#719 = ORIENTED_EDGE ( 'NONE', *, *, #650, .T. ) ;
#720 = EDGE_LOOP ( 'NONE', ( #583, #33, #67 ) ) ;
#721 = DIRECTION ( 'NONE',  ( 0.000000000000000000, 0.000000000000000000, -1.000000000000000000 ) ) ;
#722 = DIRECTION ( 'NONE',  ( 1.000000000000000000, 0.000000000000000000, 0.000000000000000000 ) ) ;
#723 = DIRECTION ( 'NONE',  ( 0.000000000000000000, -0.000000000000000000, -1.000000000000000000 ) ) ;
#724 = DIRECTION ( 'NONE',  ( 0.000000000000000000, 0.000000000000000000, 1.000000000000000000 ) ) ;
#725 = CARTESIAN_POINT ( 'NONE',  ( -213.8177647757845250, 9.500000000000003553, -167.9785829926757117 ) ) ;
#727 = PLANE ( 'NONE',  #205 ) ;
#726 = VECTOR ( 'NONE', #1011, 1000.000000000000000 ) ;
#728 = CIRCLE ( 'NONE', #17, 75.00000000000002842 ) ;
#729 = PRESENTATION_LAYER_ASSIGNMENT (  '', '', ( #983 ) ) ;
#730 = FILL_AREA_STYLE ('',( #554 ) ) ;
#731 = LINE ( 'NONE', #3, #330 ) ;
#732 = FACE_OUTER_BOUND ( 'NONE', #626, .T. ) ;
#733 = CARTESIAN_POINT ( 'NONE',  ( -213.8177647757845250, 77.77784683869955984, -24.28867109589541329 ) ) ;
#734 = CARTESIAN_POINT ( 'NONE',  ( -213.8177647757845250, 252.5305411121489101, -92.97858299267569748 ) ) ;
#735 = EDGE_CURVE ( 'NONE', #830, #54, #193, .T. ) ;
#736 = CARTESIAN_POINT ( 'NONE',  ( -211.6278707059896647, 9.857607356486679961, -167.9785829926756833 ) ) ;
#737 = CARTESIAN_POINT ( 'NONE',  ( -213.8177647757845250, 307.5000000000000000, -17.97858299267566906 ) ) ;
#738 = CARTESIAN_POINT ( 'NONE',  ( -74.61657888639949476, -7.499999999999999112, 104.9328176023758630 ) ) ;
#739 = PRODUCT_DEFINITION_FORMATION_WITH_SPECIFIED_SOURCE ( 'ANY', '', #45, .NOT_KNOWN. ) ;
#740 = ORIENTED_EDGE ( 'NONE', *, *, #177, .T. ) ;
#741 = CARTESIAN_POINT ( 'NONE',  ( -74.61657888639949476, -7.499999999999999112, 92.47042646060123161 ) ) ;
#742 = CARTESIAN_POINT ( 'NONE',  ( -156.5820134462537681, 307.5000000000000000, -54.99999999999997868 ) ) ;
#743 = AXIS2_PLACEMENT_3D ( 'NONE', #300, #1101, #1106 ) ;
#744 = VECTOR ( 'NONE', #688, 1000.000000000000000 ) ;
#745 = AXIS2_PLACEMENT_3D ( 'NONE', #848, #140, #223 ) ;
#746 = CARTESIAN_POINT ( 'NONE',  ( -226.9281058388962151, 11.31261557407336937, -166.8238195161569593 ) ) ;
#747 = LINE ( 'NONE', #843, #1102 ) ;
#748 = FILL_AREA_STYLE_COLOUR ( '', #898 ) ;
#749 = ADVANCED_FACE ( 'NONE', ( #312 ), #979, .F. ) ;
#750 = LINE ( 'NONE', #399, #293 ) ;
#751 = CARTESIAN_POINT ( 'NONE',  ( 0.000000000000000000, 9.500000000000001776, -165.9785829926757117 ) ) ;
#752 = DIRECTION ( 'NONE',  ( -0.000000000000000000, -0.000000000000000000, 1.000000000000000000 ) ) ;
#753 = AXIS2_PLACEMENT_3D ( 'NONE', #531, #252, #722 ) ;
#754 = CARTESIAN_POINT ( 'NONE',  ( -214.9109983183026031, 9.678523866772737350, -167.9785829926757685 ) ) ;
#755 = ORIENTED_EDGE ( 'NONE', *, *, #106, .T. ) ;
#756 = CARTESIAN_POINT ( 'NONE',  ( -400.0000000000000000, 11.31261557407337115, -166.8238195161569593 ) ) ;
#757 = DIRECTION ( 'NONE',  ( 0.000000000000000000, 0.000000000000000000, -1.000000000000000000 ) ) ;
#758 = DIRECTION ( 'NONE',  ( 0.000000000000000000, 0.000000000000000000, 1.000000000000000000 ) ) ;
#759 = VECTOR ( 'NONE', #1005, 1000.000000000000227 ) ;
#760 = AXIS2_PLACEMENT_3D ( 'NONE', #348, #186, #75 ) ;
#761 = AXIS2_PLACEMENT_3D ( 'NONE', #605, #887, #502 ) ;
#762 = LINE ( 'NONE', #1022, #567 ) ;
#763 = ORIENTED_EDGE ( 'NONE', *, *, #356, .F. ) ;
#764 = DIRECTION ( 'NONE',  ( 0.000000000000000000, 0.000000000000000000, -1.000000000000000000 ) ) ;
#765 = CARTESIAN_POINT ( 'NONE',  ( -150.3769731102270555, 252.5305411121489101, -52.97525872021880389 ) ) ;
#766 = EDGE_LOOP ( 'NONE', ( #780, #700, #874, #770, #578, #618, #288, #138 ) ) ;
#767 = APPLICATION_CONTEXT ( 'automotive_design' ) ;
#768 = DIRECTION ( 'NONE',  ( 1.000000000000000000, 0.000000000000000000, 0.000000000000000000 ) ) ;
#769 = ORIENTED_EDGE ( 'NONE', *, *, #1014, .T. ) ;
#770 = ORIENTED_EDGE ( 'NONE', *, *, #1049, .T. ) ;
#771 = CARTESIAN_POINT ( 'NONE',  ( -200.0000000000000000, -2.499999999999998668, 0.000000000000000000 ) ) ;
#772 = ADVANCED_FACE ( 'NONE', ( #419 ), #706, .T. ) ;
#773 = DIRECTION ( 'NONE',  ( 0.000000000000000000, 0.9063077870366527122, -0.4226182617406936681 ) ) ;
#774 = EDGE_LOOP ( 'NONE', ( #414, #1154 ) ) ;
#775 = CARTESIAN_POINT ( 'NONE',  ( -200.0000000000000000, -2.499999999999998668, 30.00000000000000000 ) ) ;
#776 = ORIENTED_EDGE ( 'NONE', *, *, #641, .T. ) ;
#777 = VERTEX_POINT ( 'NONE', #257 ) ;
#778 = DIRECTION ( 'NONE',  ( 0.000000000000000000, 0.000000000000000000, -1.000000000000000000 ) ) ;
#779 = DIRECTION ( 'NONE',  ( -0.000000000000000000, 1.000000000000000000, 0.000000000000000000 ) ) ;
#780 = ORIENTED_EDGE ( 'NONE', *, *, #226, .T. ) ;
#781 = CLOSED_SHELL ( 'NONE', ( #478, #455, #526, #89, #1, #588, #50, #144, #845, #525, #200, #826 ) ) ;
#782 = AXIS2_PLACEMENT_3D ( 'NONE', #718, #809, #723 ) ;
#783 = DIRECTION ( 'NONE',  ( 2.135044278125301343E-16, -1.000000000000000000, 0.000000000000000000 ) ) ;
#784 = EDGE_LOOP ( 'NONE', ( #575, #507, #884 ) ) ;
#785 = AXIS2_PLACEMENT_3D ( 'NONE', #697, #873, #514 ) ;
#786 = ORIENTED_EDGE ( 'NONE', *, *, #899, .F. ) ;
#787 = PLANE ( 'NONE',  #596 ) ;
#788 = VECTOR ( 'NONE', #175, 1000.000000000000000 ) ;
#789 = EDGE_CURVE ( 'NONE', #430, #653, #1078, .T. ) ;
#790 = ORIENTED_EDGE ( 'NONE', *, *, #290, .T. ) ;
#791 = EDGE_CURVE ( 'NONE', #970, #608, #1069, .T. ) ;
#792 = CARTESIAN_POINT ( 'NONE',  ( -231.0224153098700128, 7.500000000000001776, -165.9785829926756833 ) ) ;
#793 = VERTEX_POINT ( 'NONE', #46 ) ;
#794 = VERTEX_POINT ( 'NONE', #792 ) ;
#795 = EDGE_CURVE ( 'NONE', #54, #521, #1103, .T. ) ;
#796 = CARTESIAN_POINT ( 'NONE',  ( -213.8177647757845250, 307.5000000000000000, -161.6684948894559852 ) ) ;
#797 = ORIENTED_EDGE ( 'NONE', *, *, #1107, .T. ) ;
#798 = CARTESIAN_POINT ( 'NONE',  ( 99.99999999999997158, 9.500000000000003553, -165.9785829926757117 ) ) ;
#799 = PRESENTATION_STYLE_ASSIGNMENT (( #1156 ) ) ;
#800 = ORIENTED_EDGE ( 'NONE', *, *, #960, .F. ) ;
#801 = DIRECTION ( 'NONE',  ( 0.000000000000000000, 0.000000000000000000, -1.000000000000000000 ) ) ;
#802 = ORIENTED_EDGE ( 'NONE', *, *, #1032, .T. ) ;
#803 = EDGE_CURVE ( 'NONE', #81, #449, #79, .T. ) ;
#804 = VECTOR ( 'NONE', #468, 1000.000000000000000 ) ;
#805 = ORIENTED_EDGE ( 'NONE', *, *, #453, .T. ) ;
#806 = CARTESIAN_POINT ( 'NONE',  ( -74.61657888639949476, 17.50000000000000000, 92.47042646060123161 ) ) ;
#807 = AXIS2_PLACEMENT_3D ( 'NONE', #1030, #1131, #1112 ) ;
#808 = AXIS2_PLACEMENT_3D ( 'NONE', #211, #119, #758 ) ;
#809 = DIRECTION ( 'NONE',  ( 0.000000000000000000, -1.000000000000000000, 0.000000000000000000 ) ) ;
#810 = EDGE_LOOP ( 'NONE', ( #1130, #1082, #221, #471 ) ) ;
#811 = CARTESIAN_POINT ( 'NONE',  ( -199.4673396374177230, 7.580965576510418025, -166.6072840374727946 ) ) ;
#812 = VERTEX_POINT ( 'NONE', #882 ) ;
#813 = CARTESIAN_POINT ( 'NONE',  ( -226.9281058388962151, 11.31261557407336937, -166.8238195161569593 ) ) ;
#814 = DIRECTION ( 'NONE',  ( -0.000000000000000000, -1.000000000000000000, -0.000000000000000000 ) ) ;
#815 = LINE ( 'NONE', #99, #273 ) ;
#816 = EDGE_CURVE ( 'NONE', #985, #653, #1065, .T. ) ;
#817 = DIRECTION ( 'NONE',  ( 0.000000000000000000, 0.000000000000000000, -1.000000000000000000 ) ) ;
#818 = DIRECTION ( 'NONE',  ( 1.000000000000000000, 3.700743415417187646E-16, 0.000000000000000000 ) ) ;
#819 = EDGE_CURVE ( 'NONE', #167, #500, #711, .T. ) ;
#820 = CARTESIAN_POINT ( 'NONE',  ( -196.6131142416990656, 7.500000000000000888, -165.9785829926756833 ) ) ;
#821 = DIRECTION ( 'NONE',  ( 1.000000000000000000, 0.000000000000000000, 0.000000000000000000 ) ) ;
#822 = CARTESIAN_POINT ( 'NONE',  ( -200.0000000000000000, -2.499999999999998668, 0.000000000000000000 ) ) ;
#824 = LINE ( 'NONE', #565, #919 ) ;
#823 = AXIS2_PLACEMENT_3D ( 'NONE', #60, #714, #1061 ) ;
#825 = CIRCLE ( 'NONE', #209, 68.68991189678028775 ) ;
#826 = ADVANCED_FACE ( 'NONE', ( #600 ), #520, .T. ) ;
#827 = CARTESIAN_POINT ( 'NONE',  ( -213.0975277187106940, 9.382385779835514583, -167.9759884400993428 ) ) ;
#828 = EDGE_CURVE ( 'NONE', #1163, #812, #666, .T. ) ;
#829 = CARTESIAN_POINT ( 'NONE',  ( -213.8177647757845250, 307.5000000000000000, -92.97858299267569748 ) ) ;
#830 = VERTEX_POINT ( 'NONE', #243 ) ;
#831 = CARTESIAN_POINT ( 'NONE',  ( -213.8177647757845250, 132.5305411121489385, -92.97858299267569748 ) ) ;
#832 = CARTESIAN_POINT ( 'NONE',  ( -213.8177647757845250, 307.5000000000000000, -92.97858299267569748 ) ) ;
#833 = CARTESIAN_POINT ( 'NONE',  ( 0.000000000000000000, -7.499999999999999112, 175.0000000000000284 ) ) ;
#834 = LINE ( 'NONE', #208, #474 ) ;
#835 = DIRECTION ( 'NONE',  ( -0.000000000000000000, -1.000000000000000000, -0.000000000000000000 ) ) ;
#836 = CARTESIAN_POINT ( 'NONE',  ( -219.2856102244002727, 10.37405313568899601, -167.7870401618970106 ) ) ;
#837 = ORIENTED_EDGE ( 'NONE', *, *, #701, .T. ) ;
#838 = CARTESIAN_POINT ( 'NONE',  ( -76.43794098222397793, 77.77784683869954563, -24.28867109589542750 ) ) ;
#839 = CLOSED_SHELL ( 'NONE', ( #485, #1177, #1074, #1076, #1158, #636, #614, #196, #912, #1087, #64, #1089, #280, #1144, #366, #136, #245, #242, #675 ) ) ;
#840 = DIRECTION ( 'NONE',  ( 0.000000000000000000, 0.000000000000000000, -1.000000000000000000 ) ) ;
#841 = STYLED_ITEM ( 'NONE', ( #991 ), #916 ) ;
#842 = LINE ( 'NONE', #493, #633 ) ;
#843 = CARTESIAN_POINT ( 'NONE',  ( -280.3769731102270271, 132.5305411121489101, -54.99999999999997868 ) ) ;
#844 = CYLINDRICAL_SURFACE ( 'NONE', #16, 12.46239114177459584 ) ;
#845 = ADVANCED_FACE ( 'NONE', ( #867 ), #438, .F. ) ;
#846 = PLANE ( 'NONE',  #807 ) ;
#847 = ORIENTED_EDGE ( 'NONE', *, *, #429, .F. ) ;
#848 = CARTESIAN_POINT ( 'NONE',  ( -400.0000000000000000, 22.77842950260112431, -182.1244486816440258 ) ) ;
#849 = DIRECTION ( 'NONE',  ( 0.000000000000000000, -0.000000000000000000, 1.000000000000000000 ) ) ;
#850 = DIRECTION ( 'NONE',  ( -1.000000000000000000, -0.000000000000000000, -0.000000000000000000 ) ) ;
#851 = CARTESIAN_POINT ( 'NONE',  ( -75.54943042789125229, 21.67411585896919490, -144.6035104483356690 ) ) ;
#852 = ORIENTED_EDGE ( 'NONE', *, *, #501, .F. ) ;
#853 = FACE_OUTER_BOUND ( 'NONE', #222, .T. ) ;
#854 = CARTESIAN_POINT ( 'NONE',  ( -400.0000000000000000, 7.500000000000000888, 175.0000000000000284 ) ) ;
#855 = CIRCLE ( 'NONE', #649, 12.46239114177463669 ) ;
#856 = VERTEX_POINT ( 'NONE', #625 ) ;
#857 = AXIS2_PLACEMENT_3D ( 'NONE', #201, #26, #860 ) ;
#858 = AXIS2_PLACEMENT_3D ( 'NONE', #396, #1027, #577 ) ;
#859 = EDGE_CURVE ( 'NONE', #393, #521, #891, .T. ) ;
#860 = DIRECTION ( 'NONE',  ( 0.000000000000000000, 0.000000000000000000, 1.000000000000000000 ) ) ;
#861 = EDGE_LOOP ( 'NONE', ( #624, #973, #491, #620, #439, #987, #336, #866, #995 ) ) ;
#862 = ORIENTED_EDGE ( 'NONE', *, *, #465, .F. ) ;
#863 = DIRECTION ( 'NONE',  ( 1.000000000000000000, 4.040706247714652331E-16, 0.000000000000000000 ) ) ;
#864 = CARTESIAN_POINT ( 'NONE',  ( -213.8177647757845250, 307.5000000000000000, -92.97858299267569748 ) ) ;
#865 = CARTESIAN_POINT ( 'NONE',  ( -400.0000000000000000, 9.500000000000001776, -167.9785829926757117 ) ) ;
#866 = ORIENTED_EDGE ( 'NONE', *, *, #114, .T. ) ;
#867 = FACE_OUTER_BOUND ( 'NONE', #149, .T. ) ;
#868 = ORIENTED_EDGE ( 'NONE', *, *, #791, .F. ) ;
#869 = EDGE_LOOP ( 'NONE', ( #38, #62, #763 ) ) ;
#870 = CARTESIAN_POINT ( 'NONE',  ( 0.000000000000000000, 7.500000000000000888, -174.9999999999999716 ) ) ;
#871 =( LENGTH_UNIT ( ) NAMED_UNIT ( * ) SI_UNIT ( .MILLI., .METRE. ) );
#872 = ORIENTED_EDGE ( 'NONE', *, *, #933, .T. ) ;
#873 = DIRECTION ( 'NONE',  ( -0.000000000000000000, 0.000000000000000000, 1.000000000000000000 ) ) ;
#874 = ORIENTED_EDGE ( 'NONE', *, *, #933, .F. ) ;
#875 = FACE_OUTER_BOUND ( 'NONE', #720, .T. ) ;
#876 = FACE_OUTER_BOUND ( 'NONE', #230, .T. ) ;
#877 = EDGE_CURVE ( 'NONE', #350, #1062, #249, .T. ) ;
#878 = EDGE_CURVE ( 'NONE', #407, #985, #728, .T. ) ;
#879 = ORIENTED_EDGE ( 'NONE', *, *, #803, .F. ) ;
#880 = VECTOR ( 'NONE', #68, 1000.000000000000114 ) ;
#881 = CIRCLE ( 'NONE', #425, 75.00000000000002842 ) ;
#882 = CARTESIAN_POINT ( 'NONE',  ( -200.0000000000000000, -7.499999999999999112, -30.00000000000000000 ) ) ;
#883 = ORIENTED_EDGE ( 'NONE', *, *, #1135, .T. ) ;
#884 = ORIENTED_EDGE ( 'NONE', *, *, #215, .F. ) ;
#885 = DIRECTION ( 'NONE',  ( 0.000000000000000000, 0.000000000000000000, -1.000000000000000000 ) ) ;
#886 = VECTOR ( 'NONE', #225, 1000.000000000000227 ) ;
#887 = DIRECTION ( 'NONE',  ( 0.000000000000000000, -1.000000000000000000, 0.000000000000000000 ) ) ;
#888 = VERTEX_POINT ( 'NONE', #148 ) ;
#889 = CARTESIAN_POINT ( 'NONE',  ( 0.000000000000000000, 7.500000000000000888, -174.9999999999999716 ) ) ;
#890 = EDGE_LOOP ( 'NONE', ( #73, #963, #150, #1063 ) ) ;
#891 = LINE ( 'NONE', #1148, #539 ) ;
#892 = EDGE_LOOP ( 'NONE', ( #421, #155, #776 ) ) ;
#893 = PLANE ( 'NONE',  #686 ) ;
#894 = PLANE ( 'NONE',  #459 ) ;
#895 = ORIENTED_EDGE ( 'NONE', *, *, #789, .T. ) ;
#896 =( LENGTH_UNIT ( ) NAMED_UNIT ( * ) SI_UNIT ( .MILLI., .METRE. ) );
#897 = VERTEX_POINT ( 'NONE', #412 ) ;
#898 = COLOUR_RGB ( '',0.7921568627450980005, 0.8196078431372548767, 0.9333333333333333481 ) ;
#899 = EDGE_CURVE ( 'NONE', #1064, #339, #690, .T. ) ;
#900 = CARTESIAN_POINT ( 'NONE',  ( -213.8177647757845250, 132.5305411121489385, -92.97858299267569748 ) ) ;
#901 = AXIS2_PLACEMENT_3D ( 'NONE', #1153, #327, #986 ) ;
#902 = AXIS2_PLACEMENT_3D ( 'NONE', #1033, #505, #778 ) ;
#903 = CARTESIAN_POINT ( 'NONE',  ( -213.8177647757845250, 80.72028924486363621, -17.97858299267566906 ) ) ;
#904 = PLANE ( 'NONE',  #398 ) ;
#905 =( LENGTH_UNIT ( ) NAMED_UNIT ( * ) SI_UNIT ( .MILLI., .METRE. ) );
#906 = LINE ( 'NONE', #261, #1068 ) ;
#907 = CARTESIAN_POINT ( 'NONE',  ( -206.6343034835642243, 8.369887494254690807, -167.6477104732080932 ) ) ;
#908 = DIRECTION ( 'NONE',  ( 0.000000000000000000, -1.000000000000000000, 0.000000000000000000 ) ) ;
#909 = EDGE_CURVE ( 'NONE', #167, #1163, #1168, .T. ) ;
#910 = LINE ( 'NONE', #1075, #552 ) ;
#911 = FACE_OUTER_BOUND ( 'NONE', #135, .T. ) ;
#912 = ADVANCED_FACE ( 'NONE', ( #263 ), #913, .F. ) ;
#913 = CYLINDRICAL_SURFACE ( 'NONE', #333, 2.000000000000001776 ) ;
#914 =( BOUNDED_CURVE ( )  B_SPLINE_CURVE ( 3, ( #1086, #999, #638, #903 ),
 .UNSPECIFIED., .F., .T. ) 
 B_SPLINE_CURVE_WITH_KNOTS ( ( 4, 4 ),
 ( 0.1757072557613535424, 3.141592653589793116 ),
 .UNSPECIFIED. ) 
 CURVE ( )  GEOMETRIC_REPRESENTATION_ITEM ( )  RATIONAL_B_SPLINE_CURVE ( ( 1.000000000000000000, 0.3918271057532025647, 0.3918271057532025647, 1.000000000000000000 ) ) 
 REPRESENTATION_ITEM ( '' )  );
#915 = DIRECTION ( 'NONE',  ( 0.000000000000000000, 0.000000000000000000, -1.000000000000000000 ) ) ;
#916 = MANIFOLD_SOLID_BREP ( 'Cut-Extrude3[2]', #171 ) ;
#917 = CIRCLE ( 'NONE', #707, 68.68991189678028775 ) ;
#918 = EDGE_LOOP ( 'NONE', ( #159, #769, #509, #1077 ) ) ;
#920 = CARTESIAN_POINT ( 'NONE',  ( -213.8177647757845250, 307.5000000000000000, -92.97858299267569748 ) ) ;
#919 = VECTOR ( 'NONE', #648, 1000.000000000000114 ) ;
#921 = CARTESIAN_POINT ( 'NONE',  ( -400.0000000000000000, 7.500000000000000888, -165.9785829926755696 ) ) ;
#922 = MANIFOLD_SOLID_BREP ( 'Cut-Extrude4', #781 ) ;
#923 = SURFACE_STYLE_USAGE ( .BOTH. , #1083 ) ;
#924 = LINE ( 'NONE', #184, #14 ) ;
#925 = UNCERTAINTY_MEASURE_WITH_UNIT (LENGTH_MEASURE( 1.000000000000000082E-05 ), #94, 'distance_accuracy_value', 'NONE');
#926 = FACE_OUTER_BOUND ( 'NONE', #494, .T. ) ;
#927 = LINE ( 'NONE', #115, #551 ) ;
#928 = EDGE_CURVE ( 'NONE', #975, #141, #582, .T. ) ;
#929 = ORIENTED_EDGE ( 'NONE', *, *, #290, .F. ) ;
#930 = CARTESIAN_POINT ( 'NONE',  ( -213.8177647757845250, 307.5000000000000000, -24.28867109589541329 ) ) ;
#931 = DIRECTION ( 'NONE',  ( 0.000000000000000000, 1.000000000000000000, 0.000000000000000000 ) ) ;
#932 = CARTESIAN_POINT ( 'NONE',  ( -271.0535161053152251, 252.5305411121489101, -54.99999999999997868 ) ) ;
#933 = EDGE_CURVE ( 'NONE', #695, #1132, #825, .T. ) ;
#934 = CARTESIAN_POINT ( 'NONE',  ( -213.8177647757845250, 307.5000000000000000, -161.6684948894559852 ) ) ;
#935 = SURFACE_STYLE_USAGE ( .BOTH. , #1017 ) ;
#936 = VECTOR ( 'NONE', #351, 1000.000000000000000 ) ;
#937 = CIRCLE ( 'NONE', #540, 68.68991189678028775 ) ;
#938 = DIRECTION ( 'NONE',  ( 1.000000000000000000, 0.000000000000000000, 0.000000000000000000 ) ) ;
#939 = DIRECTION ( 'NONE',  ( -0.000000000000000000, -1.000000000000000000, -0.000000000000000000 ) ) ;
#940 = DIRECTION ( 'NONE',  ( 0.000000000000000000, 0.000000000000000000, -1.000000000000000000 ) ) ;
#941 = DIRECTION ( 'NONE',  ( 0.000000000000000000, -1.000000000000000000, 0.000000000000000000 ) ) ;
#942 = DIRECTION ( 'NONE',  ( -0.000000000000000000, -0.000000000000000000, 1.000000000000000000 ) ) ;
#943 = FACE_BOUND ( 'NONE', #529, .T. ) ;
#944 = ORIENTED_EDGE ( 'NONE', *, *, #1034, .F. ) ;
#945 = FACE_OUTER_BOUND ( 'NONE', #536, .T. ) ;
#946 = CARTESIAN_POINT ( 'NONE',  ( -271.0535161053152251, 132.5305411121489101, -54.99999999999997868 ) ) ;
#947 = EDGE_CURVE ( 'NONE', #1045, #407, #1179, .T. ) ;
#948 = CARTESIAN_POINT ( 'NONE',  ( 0.000000000000000000, 7.500000000000000888, -174.9999999999999716 ) ) ;
#949 = EDGE_CURVE ( 'NONE', #646, #270, #466, .T. ) ;
#950 = ORIENTED_EDGE ( 'NONE', *, *, #659, .T. ) ;
#951 = CARTESIAN_POINT ( 'NONE',  ( -213.8177647757845250, 13.71658292777905253, -161.6684948894559852 ) ) ;
#952 = VERTEX_POINT ( 'NONE', #541 ) ;
#953 = ORIENTED_EDGE ( 'NONE', *, *, #325, .T. ) ;
#954 = LINE ( 'NONE', #394, #961 ) ;
#955 = CARTESIAN_POINT ( 'NONE',  ( -213.8177647757845250, 307.5000000000000000, -92.97858299267569748 ) ) ;
#956 = CYLINDRICAL_SURFACE ( 'NONE', #858, 2.000000000000001776 ) ;
#957 = AXIS2_PLACEMENT_3D ( 'NONE', #629, #182, #451 ) ;
#958 = ORIENTED_EDGE ( 'NONE', *, *, #1000, .T. ) ;
#959 = AXIS2_PLACEMENT_3D ( 'NONE', #966, #580, #212 ) ;
#960 = EDGE_CURVE ( 'NONE', #1149, #970, #1036, .T. ) ;
#961 = VECTOR ( 'NONE', #939, 1000.000000000000000 ) ;
#962 = DIRECTION ( 'NONE',  ( 0.000000000000000000, 0.000000000000000000, -1.000000000000000000 ) ) ;
#963 = ORIENTED_EDGE ( 'NONE', *, *, #206, .F. ) ;
#964 = ORIENTED_EDGE ( 'NONE', *, *, #859, .T. ) ;
#965 = CARTESIAN_POINT ( 'NONE',  ( -400.0000000000000000, 9.500000000000001776, -165.9785829926757117 ) ) ;
#966 = CARTESIAN_POINT ( 'NONE',  ( -400.0000000000000000, 7.500000000000000888, 175.0000000000000284 ) ) ;
#967 = VERTEX_POINT ( 'NONE', #1129 ) ;
#968 = EDGE_CURVE ( 'NONE', #141, #794, #318, .T. ) ;
#969 = CARTESIAN_POINT ( 'NONE',  ( -280.3769731102270271, 132.5305411121489101, -54.99999999999997868 ) ) ;
#970 = VERTEX_POINT ( 'NONE', #1042 ) ;
#971 = LINE ( 'NONE', #1008, #759 ) ;
#972 = FACE_OUTER_BOUND ( 'NONE', #78, .T. ) ;
#973 = ORIENTED_EDGE ( 'NONE', *, *, #947, .T. ) ;
#974 = DIRECTION ( 'NONE',  ( -0.000000000000000000, -1.000000000000000000, -0.000000000000000000 ) ) ;
#975 = VERTEX_POINT ( 'NONE', #671 ) ;
#976 = ORIENTED_EDGE ( 'NONE', *, *, #429, .T. ) ;
#977 = ORIENTED_EDGE ( 'NONE', *, *, #25, .F. ) ;
#978 = VECTOR ( 'NONE', #1091, 1000.000000000000000 ) ;
#979 = PLANE ( 'NONE',  #98 ) ;
#980 = ORIENTED_EDGE ( 'NONE', *, *, #125, .F. ) ;
#981 = AXIS2_PLACEMENT_3D ( 'NONE', #955, #676, #757 ) ;
#982 = DIRECTION ( 'NONE',  ( 0.000000000000000000, 0.000000000000000000, -1.000000000000000000 ) ) ;
#983 = STYLED_ITEM ( 'NONE', ( #85 ), #922 ) ;
#984 = EDGE_CURVE ( 'NONE', #393, #411, #484, .T. ) ;
#985 = VERTEX_POINT ( 'NONE', #765 ) ;
#986 = DIRECTION ( 'NONE',  ( 0.000000000000000000, 0.000000000000000000, -1.000000000000000000 ) ) ;
#987 = ORIENTED_EDGE ( 'NONE', *, *, #377, .T. ) ;
#988 = LINE ( 'NONE', #889, #880 ) ;
#989 = DIRECTION ( 'NONE',  ( -1.000000000000000000, -0.000000000000000000, -0.000000000000000000 ) ) ;
#990 = VERTEX_POINT ( 'NONE', #948 ) ;
#991 = PRESENTATION_STYLE_ASSIGNMENT (( #1174 ) ) ;
#992 = ORIENTED_EDGE ( 'NONE', *, *, #260, .T. ) ;
#993 = CARTESIAN_POINT ( 'NONE',  ( -213.8177647757845250, 307.5000000000000000, -92.97858299267569748 ) ) ;
#994 = LINE ( 'NONE', #92, #111 ) ;
#995 = ORIENTED_EDGE ( 'NONE', *, *, #314, .F. ) ;
#996 = CIRCLE ( 'NONE', #443, 75.00000000000001421 ) ;
#997 = LINE ( 'NONE', #178, #57 ) ;
#998 = AXIS2_PLACEMENT_3D ( 'NONE', #28, #130, #308 ) ;
#999 = CARTESIAN_POINT ( 'NONE',  ( -352.0860991236776272, 21.67411585896926951, -144.6035104483354985 ) ) ;
#1000 = EDGE_CURVE ( 'NONE', #411, #319, #573, .T. ) ;
#1001 = CARTESIAN_POINT ( 'NONE',  ( -196.6131142416990656, 7.500000000000000888, -165.9785829926756833 ) ) ;
#1002 = ADVANCED_FACE ( 'NONE', ( #31 ), #956, .F. ) ;
#1003 = DIRECTION ( 'NONE',  ( -1.000000000000000000, -0.000000000000000000, -0.000000000000000000 ) ) ;
#1004 = CARTESIAN_POINT ( 'NONE',  ( -210.9394037660992751, 9.032639611661165802, -167.9267818338348093 ) ) ;
#1005 = DIRECTION ( 'NONE',  ( -0.000000000000000000, -0.4226182617406936126, -0.9063077870366526012 ) ) ;
#1006 = FACE_BOUND ( 'NONE', #358, .T. ) ;
#1007 = LINE ( 'NONE', #187, #1090 ) ;
#1008 = CARTESIAN_POINT ( 'NONE',  ( 0.000000000000000000, 11.31261557407337115, -166.8238195161569593 ) ) ;
#1009 = VECTOR ( 'NONE', #299, 1000.000000000000000 ) ;
#1011 = DIRECTION ( 'NONE',  ( -0.000000000000000000, 1.000000000000000000, -0.000000000000000000 ) ) ;
#1010 = AXIS2_PLACEMENT_3D ( 'NONE', #528, #783, #53 ) ;
#1013 = DIRECTION ( 'NONE',  ( 0.000000000000000000, 0.000000000000000000, 1.000000000000000000 ) ) ;
#1012 = AXIS2_PLACEMENT_3D ( 'NONE', #771, #1047, #1023 ) ;
#1014 = EDGE_CURVE ( 'NONE', #384, #264, #349, .T. ) ;
#1015 = ORIENTED_EDGE ( 'NONE', *, *, #1111, .F. ) ;
#1016 = CARTESIAN_POINT ( 'NONE',  ( -219.5684720340152580, 8.558750352937506634, -167.8134143953984108 ) ) ;
#1017 = SURFACE_SIDE_STYLE ('',( #1020 ) ) ;
#1018 = LINE ( 'NONE', #661, #403 ) ;
#1019 = PLANE ( 'NONE',  #492 ) ;
#1020 = SURFACE_STYLE_FILL_AREA ( #658 ) ;
#1021 = EDGE_CURVE ( 'NONE', #560, #81, #677, .T. ) ;
#1022 = CARTESIAN_POINT ( 'NONE',  ( -400.0000000000000000, 167.3854953738639324, 167.8755513183560026 ) ) ;
#1023 = DIRECTION ( 'NONE',  ( 0.000000000000000000, 0.000000000000000000, -1.000000000000000000 ) ) ;
#1024 = CARTESIAN_POINT ( 'NONE',  ( 0.000000000000000000, 7.500000000000000888, 175.0000000000000284 ) ) ;
#1025 = FACE_OUTER_BOUND ( 'NONE', #1070, .T. ) ;
#1026 = STYLED_ITEM ( 'NONE', ( #203 ), #524 ) ;
#1027 = DIRECTION ( 'NONE',  ( -1.000000000000000000, -0.000000000000000000, -0.000000000000000000 ) ) ;
#1028 =( GEOMETRIC_REPRESENTATION_CONTEXT ( 3 ) GLOBAL_UNCERTAINTY_ASSIGNED_CONTEXT ( ( #925 ) ) GLOBAL_UNIT_ASSIGNED_CONTEXT ( ( #94, #1098, #1088 ) ) REPRESENTATION_CONTEXT ( 'NONE', 'WORKASPACE' ) );
#1029 = COLOUR_RGB ( '',0.7921568627450980005, 0.8196078431372548767, 0.9333333333333333481 ) ;
#1030 = CARTESIAN_POINT ( 'NONE',  ( -400.0000000000000000, -7.499999999999999112, 175.0000000000000284 ) ) ;
#1031 = EDGE_LOOP ( 'NONE', ( #27, #432, #530 ) ) ;
#1032 = EDGE_CURVE ( 'NONE', #685, #128, #367, .T. ) ;
#1033 = CARTESIAN_POINT ( 'NONE',  ( -400.0000000000000000, 9.500000000000001776, -165.9785829926757117 ) ) ;
#1034 = EDGE_CURVE ( 'NONE', #449, #54, #499, .T. ) ;
#1035 = CARTESIAN_POINT ( 'NONE',  ( -200.0000000000000000, -7.499999999999999112, 0.000000000000000000 ) ) ;
#1036 = LINE ( 'NONE', #1124, #652 ) ;
#1037 = PRODUCT_DEFINITION_SHAPE ( 'NONE', 'NONE',  #8 ) ;
#1038 = CARTESIAN_POINT ( 'NONE',  ( -74.61657888639949476, 7.500000000000000000, 92.47042646060123161 ) ) ;
#1039 = ORIENTED_EDGE ( 'NONE', *, *, #607, .F. ) ;
#1040 = CARTESIAN_POINT ( 'NONE',  ( -150.3769731102270555, 252.5305411121489101, -54.99999999999997868 ) ) ;
#1041 = CARTESIAN_POINT ( 'NONE',  ( 0.000000000000000000, 22.77842950260112431, -182.1244486816440258 ) ) ;
#1042 = CARTESIAN_POINT ( 'NONE',  ( -278.4909990684070067, 132.5305411121489101, -54.99999999999997868 ) ) ;
#1043 = ORIENTED_EDGE ( 'NONE', *, *, #10, .F. ) ;
#1044 = CARTESIAN_POINT ( 'NONE',  ( -400.0000000000000000, 7.500000000000000888, -174.9999999999999716 ) ) ;
#1045 = VERTEX_POINT ( 'NONE', #49 ) ;
#1046 = ORIENTED_EDGE ( 'NONE', *, *, #617, .T. ) ;
#1047 = DIRECTION ( 'NONE',  ( -0.000000000000000000, -1.000000000000000000, -0.000000000000000000 ) ) ;
#1048 = CARTESIAN_POINT ( 'NONE',  ( -280.3769731102270839, 252.5305411121489101, -54.99999999999997868 ) ) ;
#1049 = EDGE_CURVE ( 'NONE', #695, #608, #954, .T. ) ;
#1050 = AXIS2_PLACEMENT_3D ( 'NONE', #194, #557, #549 ) ;
#1051 = VERTEX_POINT ( 'NONE', #122 ) ;
#1052 = VECTOR ( 'NONE', #974, 1000.000000000000000 ) ;
#1053 = AXIS2_PLACEMENT_3D ( 'NONE', #331, #34, #1058 ) ;
#1054 = DIRECTION ( 'NONE',  ( 1.000000000000000000, 2.135044278125301343E-16, 0.000000000000000000 ) ) ;
#1055 = ORIENTED_EDGE ( 'NONE', *, *, #909, .T. ) ;
#1056 = ORIENTED_EDGE ( 'NONE', *, *, #717, .F. ) ;
#1057 = DIRECTION ( 'NONE',  ( -0.000000000000000000, 0.4226182617406899489, 0.9063077870366543776 ) ) ;
#1058 = DIRECTION ( 'NONE',  ( -1.000000000000000000, 0.000000000000000000, -0.000000000000000000 ) ) ;
#1059 = ORIENTED_EDGE ( 'NONE', *, *, #650, .F. ) ;
#1060 = EDGE_CURVE ( 'NONE', #270, #990, #576, .T. ) ;
#1061 = DIRECTION ( 'NONE',  ( 0.000000000000000000, 0.000000000000000000, -1.000000000000000000 ) ) ;
#1062 = VERTEX_POINT ( 'NONE', #488 ) ;
#1063 = ORIENTED_EDGE ( 'NONE', *, *, #550, .T. ) ;
#1064 = VERTEX_POINT ( 'NONE', #682 ) ;
#1065 = LINE ( 'NONE', #158, #59 ) ;
#1066 = ORIENTED_EDGE ( 'NONE', *, *, #153, .F. ) ;
#1067 = ORIENTED_EDGE ( 'NONE', *, *, #325, .F. ) ;
#1068 = VECTOR ( 'NONE', #989, 1000.000000000000000 ) ;
#1069 = LINE ( 'NONE', #969, #651 ) ;
#1070 = EDGE_LOOP ( 'NONE', ( #258, #630, #437, #244, #1084, #40, #342, #357 ) ) ;
#1071 = AXIS2_PLACEMENT_3D ( 'NONE', #434, #1159, #801 ) ;
#1072 = DIRECTION ( 'NONE',  ( -1.000000000000000000, -0.000000000000000000, -0.000000000000000000 ) ) ;
#1073 = FILL_AREA_STYLE_COLOUR ( '', #1029 ) ;
#1074 = ADVANCED_FACE ( 'NONE', ( #424 ), #207, .F. ) ;
#1075 = CARTESIAN_POINT ( 'NONE',  ( -400.0000000000000000, 182.6639248764650461, 160.7511026367120337 ) ) ;
#1076 = ADVANCED_FACE ( 'NONE', ( #876 ), #56, .F. ) ;
#1077 = ORIENTED_EDGE ( 'NONE', *, *, #364, .T. ) ;
#1078 = LINE ( 'NONE', #431, #744 ) ;
#1079 = ORIENTED_EDGE ( 'NONE', *, *, #684, .T. ) ;
#1080 = CYLINDRICAL_SURFACE ( 'NONE', #253, 2.000000000000001776 ) ;
#1081 = DIRECTION ( 'NONE',  ( 0.000000000000000000, 1.000000000000000000, 0.000000000000000000 ) ) ;
#1082 = ORIENTED_EDGE ( 'NONE', *, *, #397, .T. ) ;
#1083 = SURFACE_SIDE_STYLE ('',( #1094 ) ) ;
#1084 = ORIENTED_EDGE ( 'NONE', *, *, #301, .F. ) ;
#1085 = CARTESIAN_POINT ( 'NONE',  ( -200.7074237126729201, 11.31261557407336937, -166.8238195161569593 ) ) ;
#1086 = CARTESIAN_POINT ( 'NONE',  ( -226.9281058388962151, 11.31261557407336937, -166.8238195161569593 ) ) ;
#1087 = ADVANCED_FACE ( 'NONE', ( #323 ), #787, .T. ) ;
#1088 =( NAMED_UNIT ( * ) SI_UNIT ( $, .STERADIAN. ) SOLID_ANGLE_UNIT ( ) );
#1089 = ADVANCED_FACE ( 'NONE', ( #338 ), #1121, .T. ) ;
#1090 = VECTOR ( 'NONE', #835, 1000.000000000000000 ) ;
#1091 = DIRECTION ( 'NONE',  ( -0.000000000000000000, -1.000000000000000000, -0.000000000000000000 ) ) ;
#1092 = MECHANICAL_DESIGN_GEOMETRIC_PRESENTATION_REPRESENTATION (  '', ( #841 ), #1028 ) ;
#1093 = FACE_BOUND ( 'NONE', #774, .T. ) ;
#1094 = SURFACE_STYLE_FILL_AREA ( #1116 ) ;
#1095 = DIRECTION ( 'NONE',  ( 0.000000000000000000, 0.000000000000000000, 1.000000000000000000 ) ) ;
#1096 = CARTESIAN_POINT ( 'NONE',  ( -213.8177647757845250, 307.5000000000000000, -92.97858299267569748 ) ) ;
#1097 = DIRECTION ( 'NONE',  ( -1.000000000000000000, -0.000000000000000000, -0.000000000000000000 ) ) ;
#1098 =( NAMED_UNIT ( * ) PLANE_ANGLE_UNIT ( ) SI_UNIT ( $, .RADIAN. ) );
#1099 = DIRECTION ( 'NONE',  ( -0.000000000000000000, -1.000000000000000000, -0.000000000000000000 ) ) ;
#1100 = DIRECTION ( 'NONE',  ( -0.000000000000000000, -1.000000000000000000, -0.000000000000000000 ) ) ;
#1101 = DIRECTION ( 'NONE',  ( -0.000000000000000000, -1.000000000000000000, -0.000000000000000000 ) ) ;
#1102 = VECTOR ( 'NONE', #467, 1000.000000000000000 ) ;
#1104 = CARTESIAN_POINT ( 'NONE',  ( -76.43794098222397793, 13.71658292777905430, -161.6684948894559568 ) ) ;
#1103 = CIRCLE ( 'NONE', #1167, 2.000000000000001776 ) ;
#1106 = DIRECTION ( 'NONE',  ( 0.000000000000000000, 0.000000000000000000, -1.000000000000000000 ) ) ;
#1105 = VECTOR ( 'NONE', #102, 1000.000000000000000 ) ;
#1107 = EDGE_CURVE ( 'NONE', #1132, #238, #498, .T. ) ;
#1108 = CARTESIAN_POINT ( 'NONE',  ( -150.3769731102270555, 132.5305411121489385, -52.97525872021880389 ) ) ;
#1109 = CARTESIAN_POINT ( 'NONE',  ( -228.1682308538194377, 7.580963326852160122, -166.6072756532580854 ) ) ;
#1110 = CYLINDRICAL_SURFACE ( 'NONE', #743, 68.68991189678028775 ) ;
#1111 = EDGE_CURVE ( 'NONE', #449, #393, #1170, .T. ) ;
#1112 = DIRECTION ( 'NONE',  ( 0.000000000000000000, -0.000000000000000000, -1.000000000000000000 ) ) ;
#1113 = ORIENTED_EDGE ( 'NONE', *, *, #453, .F. ) ;
#1114 = CARTESIAN_POINT ( 'NONE',  ( -231.0224153098700128, 7.500000000000001776, -165.9785829926756833 ) ) ;
#1115 = CARTESIAN_POINT ( 'NONE',  ( -150.3769731102270555, 132.5305411121489385, -54.99999999999997868 ) ) ;
#1116 = FILL_AREA_STYLE ('',( #90 ) ) ;
#1117 = EDGE_CURVE ( 'NONE', #975, #1155, #481, .T. ) ;
#1118 = DIRECTION ( 'NONE',  ( 1.000000000000000000, 0.000000000000000000, 0.000000000000000000 ) ) ;
#1119 = PRODUCT_DEFINITION_CONTEXT ( 'detailed design', #76, 'design' ) ;
#1120 = ORIENTED_EDGE ( 'NONE', *, *, #377, .F. ) ;
#1121 = PLANE ( 'NONE',  #745 ) ;
#1122 = LINE ( 'NONE', #1136, #1187 ) ;
#1123 = CIRCLE ( 'NONE', #709, 30.00000000000000000 ) ;
#1124 = CARTESIAN_POINT ( 'NONE',  ( -278.4909990684070067, 307.5000000000000000, -54.99999999999997868 ) ) ;
#1125 = AXIS2_PLACEMENT_3D ( 'NONE', #21, #406, #120 ) ;
#1126 = DIRECTION ( 'NONE',  ( 0.000000000000000000, 0.000000000000000000, -1.000000000000000000 ) ) ;
#1127 = ORIENTED_EDGE ( 'NONE', *, *, #859, .F. ) ;
#1128 = CARTESIAN_POINT ( 'NONE',  ( -400.0000000000000000, -7.499999999999999112, -174.9999999999999716 ) ) ;
#1129 = CARTESIAN_POINT ( 'NONE',  ( -400.0000000000000000, -7.499999999999999112, 175.0000000000000284 ) ) ;
#1130 = ORIENTED_EDGE ( 'NONE', *, *, #704, .F. ) ;
#1131 = DIRECTION ( 'NONE',  ( 0.000000000000000000, -1.000000000000000000, 0.000000000000000000 ) ) ;
#1132 = VERTEX_POINT ( 'NONE', #146 ) ;
#1133 = VERTEX_POINT ( 'NONE', #595 ) ;
#1134 = DIRECTION ( 'NONE',  ( 1.000000000000000000, 0.000000000000000000, 0.000000000000000000 ) ) ;
#1135 = EDGE_CURVE ( 'NONE', #689, #270, #1141, .T. ) ;
#1136 = CARTESIAN_POINT ( 'NONE',  ( -400.0000000000000000, 7.500000000000000888, -174.9999999999999716 ) ) ;
#1137 = ORIENTED_EDGE ( 'NONE', *, *, #899, .T. ) ;
#1138 = DIRECTION ( 'NONE',  ( -1.000000000000000000, -0.000000000000000000, -0.000000000000000000 ) ) ;
#1139 = ORIENTED_EDGE ( 'NONE', *, *, #24, .T. ) ;
#1140 = ORIENTED_EDGE ( 'NONE', *, *, #696, .F. ) ;
#1141 = LINE ( 'NONE', #1128, #694 ) ;
#1142 = VECTOR ( 'NONE', #908, 1000.000000000000000 ) ;
#1143 = CIRCLE ( 'NONE', #1050, 75.00000000000001421 ) ;
#1144 = ADVANCED_FACE ( 'NONE', ( #945 ), #674, .F. ) ;
#1145 = ORIENTED_EDGE ( 'NONE', *, *, #717, .T. ) ;
#1146 = CIRCLE ( 'NONE', #132, 30.00000000000000000 ) ;
#1147 = VECTOR ( 'NONE', #814, 1000.000000000000000 ) ;
#1148 = CARTESIAN_POINT ( 'NONE',  ( -400.0000000000000000, 7.500000000000000888, -165.9785829926755696 ) ) ;
#1149 = VERTEX_POINT ( 'NONE', #497 ) ;
#1150 = ORIENTED_EDGE ( 'NONE', *, *, #1021, .F. ) ;
#1151 = DIRECTION ( 'NONE',  ( 0.000000000000000000, -0.4226182617406936681, -0.9063077870366526012 ) ) ;
#1152 = ORIENTED_EDGE ( 'NONE', *, *, #346, .T. ) ;
#1153 = CARTESIAN_POINT ( 'NONE',  ( -200.0000000000000000, -2.499999999999998668, 0.000000000000000000 ) ) ;
#1154 = ORIENTED_EDGE ( 'NONE', *, *, #1014, .F. ) ;
#1155 = VERTEX_POINT ( 'NONE', #415 ) ;
#1156 = SURFACE_STYLE_USAGE ( .BOTH. , #87 ) ;
#1157 = PRESENTATION_LAYER_ASSIGNMENT (  '', '', ( #30 ) ) ;
#1158 = ADVANCED_FACE ( 'NONE', ( #853 ), #315, .T. ) ;
#1159 = DIRECTION ( 'NONE',  ( 0.000000000000000000, -1.000000000000000000, 0.000000000000000000 ) ) ;
#1160 =( BOUNDED_CURVE ( )  B_SPLINE_CURVE ( 3, ( #374, #838, #1104, #12 ),
 .UNSPECIFIED., .F., .T. ) 
 B_SPLINE_CURVE_WITH_KNOTS ( ( 4, 4 ),
 ( 3.141592653589793116, 6.283185307179586232 ),
 .UNSPECIFIED. ) 
 CURVE ( )  GEOMETRIC_REPRESENTATION_ITEM ( )  RATIONAL_B_SPLINE_CURVE ( ( 1.000000000000000000, 0.3333333333333333703, 0.3333333333333333703, 1.000000000000000000 ) ) 
 REPRESENTATION_ITEM ( '' )  );
#1161 = VERTEX_POINT ( 'NONE', #1040 ) ;
#1162 = EDGE_CURVE ( 'NONE', #888, #322, #937, .T. ) ;
#1163 = VERTEX_POINT ( 'NONE', #240 ) ;
#1164 = SHAPE_DEFINITION_REPRESENTATION ( #1037, #538 ) ;
#1165 = VECTOR ( 'NONE', #1100, 1000.000000000000000 ) ;
#1166 = VERTEX_POINT ( 'NONE', #42 ) ;
#1167 = AXIS2_PLACEMENT_3D ( 'NONE', #142, #335, #508 ) ;
#1168 = LINE ( 'NONE', #775, #936 ) ;
#1169 = EDGE_LOOP ( 'NONE', ( #953, #1152, #992, #405 ) ) ;
#1170 = CIRCLE ( 'NONE', #1188, 2.000000000000001776 ) ;
#1171 = ORIENTED_EDGE ( 'NONE', *, *, #397, .F. ) ;
#1172 = FACE_OUTER_BOUND ( 'NONE', #810, .T. ) ;
#1173 = ORIENTED_EDGE ( 'NONE', *, *, #735, .T. ) ;
#1174 = SURFACE_STYLE_USAGE ( .BOTH. , #639 ) ;
#1175 = ORIENTED_EDGE ( 'NONE', *, *, #949, .T. ) ;
#1176 = EDGE_LOOP ( 'NONE', ( #589, #503 ) ) ;
#1177 = ADVANCED_FACE ( 'NONE', ( #972 ), #409, .F. ) ;
#1178 = DIRECTION ( 'NONE',  ( -0.000000000000000000, -1.000000000000000000, -0.000000000000000000 ) ) ;
#1179 = LINE ( 'NONE', #361, #1105 ) ;
#1180 = CARTESIAN_POINT ( 'NONE',  ( -329.4775736397589299, 17.50000000000000000, 92.47042646060127424 ) ) ;
#1181 =( NAMED_UNIT ( * ) PLANE_ANGLE_UNIT ( ) SI_UNIT ( $, .RADIAN. ) );
#1182 = DIRECTION ( 'NONE',  ( 0.000000000000000000, 0.000000000000000000, -1.000000000000000000 ) ) ;
#1183 = EDGE_CURVE ( 'NONE', #681, #339, #450, .T. ) ;
#1184 =( NAMED_UNIT ( * ) SI_UNIT ( $, .STERADIAN. ) SOLID_ANGLE_UNIT ( ) );
#1185 = PRESENTATION_LAYER_ASSIGNMENT (  '', '', ( #1026 ) ) ;
#1186 = FACE_OUTER_BOUND ( 'NONE', #313, .T. ) ;
#1187 = VECTOR ( 'NONE', #670, 1000.000000000000000 ) ;
#1188 = AXIS2_PLACEMENT_3D ( 'NONE', #214, #570, #117 ) ;
#1189 = DIRECTION ( 'NONE',  ( 1.000000000000000000, 0.000000000000000000, 0.000000000000000000 ) ) ;
#1190 = CARTESIAN_POINT ( 'NONE',  ( -74.61657888639949476, 7.500000000000000000, 117.3952087441505086 ) ) ;
ENDSEC;
END-ISO-10303-21;
